<svg xmlns="http://www.w3.org/2000/svg" width="13" height="14" viewBox="0 0 13 14" fill="none">
    <path d="M12.0173 10.3337C10.176 13.5231 6.09799 14.6157 2.90866 12.7744C2.05111 12.2805 1.31473 11.6013 0.753323 10.7864C0.709819 10.7233 0.681399 10.6511 0.670259 10.5752C0.659118 10.4994 0.665556 10.422 0.689074 10.3491C0.712591 10.2762 0.75256 10.2096 0.805892 10.1546C0.859224 10.0996 0.924493 10.0575 0.996656 10.0317C3.50799 9.13306 4.85332 8.09173 5.63399 6.60106C6.45532 5.03239 6.66799 3.31439 6.09332 0.95906C6.07479 0.883251 6.07426 0.804156 6.09178 0.728106C6.1093 0.652056 6.14437 0.581162 6.1942 0.521098C6.24402 0.461034 6.30722 0.413467 6.37873 0.382204C6.45023 0.350941 6.52806 0.336851 6.60599 0.34106C7.65236 0.397383 8.67055 0.700532 9.57732 1.22573C12.7667 3.06706 13.8593 7.14506 12.0173 10.3337Z"
          fill="#F2C94C"/>
</svg>
