<svg width="14" height="14" viewBox="0 0 14 14" fill="none" xmlns="http://www.w3.org/2000/svg">
<path d="M7.00001 0.333496C7.13262 0.333496 7.25979 0.386174 7.35356 0.479943C7.44733 0.573711 7.50001 0.700888 7.50001 0.833496V1.8335C7.50001 1.9661 7.44733 2.09328 7.35356 2.18705C7.25979 2.28082 7.13262 2.3335 7.00001 2.3335C6.8674 2.3335 6.74022 2.28082 6.64646 2.18705C6.55269 2.09328 6.50001 1.9661 6.50001 1.8335V0.833496C6.50001 0.700888 6.55269 0.573711 6.64646 0.479943C6.74022 0.386174 6.8674 0.333496 7.00001 0.333496ZM10.3333 7.00016C10.3333 7.88422 9.98215 8.73206 9.35703 9.35719C8.73191 9.98231 7.88406 10.3335 7.00001 10.3335C6.11595 10.3335 5.26811 9.98231 4.64299 9.35719C4.01787 8.73206 3.66668 7.88422 3.66668 7.00016C3.66668 6.11611 4.01787 5.26826 4.64299 4.64314C5.26811 4.01802 6.11595 3.66683 7.00001 3.66683C7.88406 3.66683 8.73191 4.01802 9.35703 4.64314C9.98215 5.26826 10.3333 6.11611 10.3333 7.00016ZM13.1667 7.50016C13.2993 7.50016 13.4265 7.44748 13.5202 7.35372C13.614 7.25995 13.6667 7.13277 13.6667 7.00016C13.6667 6.86755 13.614 6.74038 13.5202 6.64661C13.4265 6.55284 13.2993 6.50016 13.1667 6.50016H12.1667C12.0341 6.50016 11.9069 6.55284 11.8131 6.64661C11.7194 6.74038 11.6667 6.86755 11.6667 7.00016C11.6667 7.13277 11.7194 7.25995 11.8131 7.35372C11.9069 7.44748 12.0341 7.50016 12.1667 7.50016H13.1667ZM7.00001 11.6668C7.13262 11.6668 7.25979 11.7195 7.35356 11.8133C7.44733 11.907 7.50001 12.0342 7.50001 12.1668V13.1668C7.50001 13.2994 7.44733 13.4266 7.35356 13.5204C7.25979 13.6142 7.13262 13.6668 7.00001 13.6668C6.8674 13.6668 6.74022 13.6142 6.64646 13.5204C6.55269 13.4266 6.50001 13.2994 6.50001 13.1668V12.1668C6.50001 12.0342 6.55269 11.907 6.64646 11.8133C6.74022 11.7195 6.8674 11.6668 7.00001 11.6668ZM1.83334 7.50016C1.96595 7.50016 2.09313 7.44748 2.1869 7.35372C2.28067 7.25995 2.33334 7.13277 2.33334 7.00016C2.33334 6.86755 2.28067 6.74038 2.1869 6.64661C2.09313 6.55284 1.96595 6.50016 1.83334 6.50016H0.833343C0.700735 6.50016 0.573558 6.55284 0.47979 6.64661C0.386022 6.74038 0.333344 6.86755 0.333344 7.00016C0.333344 7.13277 0.386022 7.25995 0.47979 7.35372C0.573558 7.44748 0.700735 7.50016 0.833343 7.50016H1.83334ZM1.81334 1.8135C1.90709 1.71986 2.03418 1.66727 2.16668 1.66727C2.29918 1.66727 2.42626 1.71986 2.52001 1.8135L3.52001 2.8135C3.60833 2.90828 3.65641 3.03364 3.65413 3.16318C3.65184 3.29271 3.59937 3.4163 3.50776 3.50791C3.41615 3.59952 3.29256 3.65199 3.16303 3.65428C3.03349 3.65656 2.90813 3.60848 2.81334 3.52016L1.81334 2.52016C1.71971 2.42641 1.66712 2.29933 1.66712 2.16683C1.66712 2.03433 1.71971 1.90725 1.81334 1.8135ZM2.52001 12.1868C2.47424 12.236 2.41903 12.2754 2.3577 12.3027C2.29637 12.33 2.23016 12.3447 2.16303 12.3459C2.09589 12.3471 2.0292 12.3347 1.96694 12.3096C1.90469 12.2844 1.84813 12.247 1.80065 12.1995C1.75317 12.152 1.71574 12.0955 1.69059 12.0332C1.66545 11.971 1.6531 11.9043 1.65428 11.8371C1.65547 11.77 1.67016 11.7038 1.69749 11.6425C1.72482 11.5811 1.76422 11.5259 1.81334 11.4802L2.81334 10.4802C2.85912 10.431 2.91432 10.3916 2.97565 10.3643C3.03698 10.337 3.10319 10.3223 3.17033 10.3211C3.23746 10.3199 3.30415 10.3323 3.36641 10.3574C3.42867 10.3826 3.48522 10.42 3.5327 10.4675C3.58018 10.515 3.61761 10.5715 3.64276 10.6338C3.66791 10.696 3.68026 10.7627 3.67907 10.8298C3.67789 10.897 3.66319 10.9632 3.63586 11.0245C3.60854 11.0859 3.56913 11.1411 3.52001 11.1868L2.52001 12.1868ZM12.1867 1.8135C12.0929 1.71986 11.9658 1.66727 11.8333 1.66727C11.7008 1.66727 11.5738 1.71986 11.48 1.8135L10.48 2.8135C10.3917 2.90828 10.3436 3.03364 10.3459 3.16318C10.3482 3.29271 10.4007 3.4163 10.4923 3.50791C10.5839 3.59952 10.7075 3.65199 10.837 3.65428C10.9665 3.65656 11.0919 3.60848 11.1867 3.52016L12.1867 2.52016C12.2803 2.42641 12.3329 2.29933 12.3329 2.16683C12.3329 2.03433 12.2803 1.90725 12.1867 1.8135ZM11.48 12.1868C11.5258 12.236 11.581 12.2754 11.6423 12.3027C11.7036 12.33 11.7699 12.3447 11.837 12.3459C11.9041 12.3471 11.9708 12.3347 12.0331 12.3096C12.0953 12.2844 12.1519 12.247 12.1994 12.1995C12.2468 12.152 12.2843 12.0955 12.3094 12.0332C12.3346 11.971 12.3469 11.9043 12.3457 11.8371C12.3446 11.77 12.3299 11.7038 12.3025 11.6425C12.2752 11.5811 12.2358 11.5259 12.1867 11.4802L11.1867 10.4802C11.1409 10.431 11.0857 10.3916 11.0244 10.3643C10.963 10.337 10.8968 10.3223 10.8297 10.3211C10.7626 10.3199 10.6959 10.3323 10.6336 10.3574C10.5714 10.3826 10.5148 10.42 10.4673 10.4675C10.4198 10.515 10.3824 10.5715 10.3573 10.6338C10.3321 10.696 10.3198 10.7627 10.3209 10.8298C10.3221 10.897 10.3368 10.9632 10.3642 11.0245C10.3915 11.0859 10.4309 11.1411 10.48 11.1868L11.48 12.1868Z" fill="#FB923C"/>
</svg>
