<svg width="12" height="12" viewBox="0 0 12 12" fill="none" xmlns="http://www.w3.org/2000/svg">
<path d="M9.12489 10.25C9.332 10.2499 9.5 10.4178 9.5 10.6249C9.5 10.832 9.33222 10.9999 9.12511 11L2.62511 11.0019C2.418 11.0019 2.25 10.8341 2.25 10.627C2.25 10.4199 2.41778 10.2519 2.62489 10.2519L9.12489 10.25ZM5.82411 1.0059L5.875 1.00247C6.06485 1.00247 6.22175 1.14355 6.24658 1.32659L6.25 1.37747L6.2495 8.21997L8.11041 6.35981C8.24356 6.22669 8.45189 6.21461 8.59868 6.32355L8.64074 6.35986C8.77386 6.49301 8.78594 6.70134 8.677 6.84814L8.64068 6.89019L6.14186 9.3885C6.00879 9.52154 5.80059 9.5337 5.6538 9.42491L5.61174 9.38865L3.11002 6.89035C2.96347 6.744 2.96331 6.50656 3.10965 6.36002C3.2427 6.22679 3.45102 6.21455 3.5979 6.32337L3.63998 6.35965L5.4995 8.21647L5.5 1.37747C5.5 1.18762 5.64108 1.03073 5.82411 1.0059L5.875 1.00247L5.82411 1.0059Z" fill="#047851"/>
</svg>
