<svg width="10" height="8" viewBox="0 0 10 8" fill="none" xmlns="http://www.w3.org/2000/svg">
<path d="M5.63364 0.104445C5.48368 -0.0383986 5.24631 -0.0326269 5.10347 0.117336C4.96063 0.2673 4.9664 0.504666 5.11636 0.64751L8.24207 3.62482H0.875C0.667893 3.62482 0.5 3.79271 0.5 3.99982C0.5 4.20692 0.667893 4.37482 0.875 4.37482H8.24211L5.11636 7.35217C4.9664 7.49501 4.96063 7.73238 5.10347 7.88234C5.24631 8.03231 5.48368 8.03808 5.63364 7.89523L9.34311 4.36188C9.42757 4.28143 9.47754 4.17882 9.49303 4.07213C9.4976 4.04873 9.5 4.02455 9.5 3.99982C9.5 3.97503 9.4976 3.95081 9.49301 3.92737C9.47749 3.82075 9.42752 3.7182 9.34311 3.6378L5.63364 0.104445Z" fill="#8E95A4"/>
</svg>
