<svg width="24" height="24" viewBox="0 0 24 24" fill="none" xmlns="http://www.w3.org/2000/svg"><path fill-rule="evenodd" clip-rule="evenodd" d="M9.80769 14.5H4.5L4.5 19.5L9.80769 19.5L9.80769 14.5ZM11.2301 14.0226C11.0307 13.4282 10.4692 13 9.80769 13H4.5C3.67157 13 3 13.6716 3 14.5V19.5C3 20.3284 3.67157 21 4.5 21H9.80769C10.4692 21 11.0306 20.5718 11.2301 19.9775C11.2804 19.8275 11.3077 19.667 11.3077 19.5001V19.5001V14.5001C11.3077 14.3332 11.2804 14.1725 11.2301 14.0226ZM12.7699 19.9775C12.9693 20.5719 13.5308 21.0001 14.1923 21.0001H19.5C20.3284 21.0001 21 20.3285 21 19.5001V14.5001C21 13.6717 20.3284 13.0001 19.5 13.0001H14.1923C13.5308 13.0001 12.9694 13.4283 12.7699 14.0226C12.7196 14.1726 12.6923 14.3331 12.6923 14.5V14.5V19.5C12.6923 19.6669 12.7196 19.8276 12.7699 19.9775ZM19.5 4.5H4.5L4.5 9.5H19.5L19.5 4.5ZM19.5 14.5001H14.1923L14.1923 19.5001H19.5L19.5 14.5001ZM3 4.5C3 3.67157 3.67157 3 4.5 3H19.5C20.3284 3 21 3.67157 21 4.5V9.5C21 10.3284 20.3284 11 19.5 11H4.5C3.67157 11 3 10.3284 3 9.5V4.5Z" fill="#212121"/></svg>
