<svg width="24" height="24" viewBox="0 0 24 24" fill="none" xmlns="http://www.w3.org/2000/svg">
<path d="M9.0002 3.99862C9.30769 3.99862 9.58403 4.18633 9.69738 4.47219L15.4474 18.9732C15.6001 19.3583 15.4117 19.7942 15.0267 19.9469C14.6416 20.0996 14.2057 19.9113 14.053 19.5262L12.258 14.9994H5.74236L3.94738 19.5262C3.79469 19.9113 3.35877 20.0996 2.97373 19.9469C2.58869 19.7942 2.40033 19.3583 2.55302 18.9732L8.30302 4.47219C8.41637 4.18633 8.69271 3.99862 9.0002 3.99862ZM9.0002 6.7834L6.33719 13.4993H11.6632L9.0002 6.7834Z" fill="#212121"/>
<path d="M17.01 1.99707L16.908 2.00407C16.7285 2.02872 16.5639 2.11655 16.4448 2.25314C16.3257 2.38973 16.26 2.56483 16.26 2.74607V6.00207H13.008L12.907 6.00907C12.7273 6.0335 12.5625 6.12223 12.4432 6.25884C12.3239 6.39545 12.2581 6.57068 12.258 6.75207L12.265 6.85407C12.2897 7.03362 12.3785 7.19818 12.5151 7.3173C12.6517 7.43643 12.8268 7.50206 13.008 7.50207L16.26 7.50107V10.7501L16.267 10.8521C16.2917 11.0316 16.3805 11.1962 16.5171 11.3153C16.6537 11.4344 16.8288 11.5001 17.01 11.5001L17.112 11.4941C17.2918 11.4694 17.4565 11.3804 17.5756 11.2436C17.6947 11.1068 17.7603 10.9315 17.76 10.7501V7.50207H21.012L21.114 7.49507C21.2936 7.47042 21.4581 7.38159 21.5773 7.245C21.6964 7.10841 21.762 6.93331 21.762 6.75207L21.755 6.65007C21.7304 6.47052 21.6416 6.30596 21.505 6.18684C21.3684 6.06771 21.1933 6.00208 21.012 6.00207L17.76 6.00107V2.74707L17.753 2.64607C17.7286 2.46633 17.6399 2.30154 17.5033 2.18221C17.3667 2.06289 17.1914 1.99711 17.01 1.99707Z" fill="#212121"/>
</svg>
