<svg width="20" height="20" viewBox="0 0 20 20" fill="none" xmlns="http://www.w3.org/2000/svg">
<path d="M4.5 4C3.11929 4 2 5.11929 2 6.5V13.5C2 14.8807 3.11929 16 4.5 16H11.5C12.8807 16 14 14.8807 14 13.5V12.5L16.4 14.3C17.0592 14.7944 18 14.324 18 13.5V6.49998C18 5.67594 17.0592 5.20556 16.4 5.69998L14 7.49998V6.5C14 5.11929 12.8807 4 11.5 4H4.5ZM14 8.74998L17 6.49998V13.5L14 11.25V8.74998ZM13 6.5V13.5C13 14.3284 12.3284 15 11.5 15H4.5C3.67157 15 3 14.3284 3 13.5V6.5C3 5.67157 3.67157 5 4.5 5H11.5C12.3284 5 13 5.67157 13 6.5Z" fill="#DB6B0F"/>
<path d="M4.3125 10.0068C4.3125 9.79264 4.37858 9.61263 4.51074 9.4668C4.64746 9.31641 4.84342 9.24121 5.09863 9.24121C5.35384 9.24121 5.54753 9.31641 5.67969 9.4668C5.81641 9.61263 5.88477 9.79264 5.88477 10.0068C5.88477 10.2165 5.81641 10.3942 5.67969 10.54C5.54753 10.6859 5.35384 10.7588 5.09863 10.7588C4.84342 10.7588 4.64746 10.6859 4.51074 10.54C4.37858 10.3942 4.3125 10.2165 4.3125 10.0068Z" fill="#DB6B0F"/>
<path d="M7.3125 10.0068C7.3125 9.79264 7.37858 9.61263 7.51074 9.4668C7.64746 9.31641 7.84342 9.24121 8.09863 9.24121C8.35384 9.24121 8.54753 9.31641 8.67969 9.4668C8.81641 9.61263 8.88477 9.79264 8.88477 10.0068C8.88477 10.2165 8.81641 10.3942 8.67969 10.54C8.54753 10.6859 8.35384 10.7588 8.09863 10.7588C7.84342 10.7588 7.64746 10.6859 7.51074 10.54C7.37858 10.3942 7.3125 10.2165 7.3125 10.0068Z" fill="#DB6B0F"/>
<path d="M10.1143 10.0068C10.1143 9.79264 10.1803 9.61263 10.3125 9.4668C10.4492 9.31641 10.6452 9.24121 10.9004 9.24121C11.1556 9.24121 11.3493 9.31641 11.4814 9.4668C11.6182 9.61263 11.6865 9.79264 11.6865 10.0068C11.6865 10.2165 11.6182 10.3942 11.4814 10.54C11.3493 10.6859 11.1556 10.7588 10.9004 10.7588C10.6452 10.7588 10.4492 10.6859 10.3125 10.54C10.1803 10.3942 10.1143 10.2165 10.1143 10.0068Z" fill="#DB6B0F"/>
</svg>
