<svg width="16" height="16" viewBox="0 0 16 16" fill="none" xmlns="http://www.w3.org/2000/svg">
<path fill-rule="evenodd" clip-rule="evenodd" d="M15.1687 4.43905L5.83539 15.1057C5.59293 15.3828 5.17176 15.4109 4.89466 15.1684C4.61757 14.926 4.5895 14.5048 4.83195 14.2277L14.1653 3.56105C14.4077 3.28396 14.8289 3.25588 15.106 3.49833C15.3831 3.74079 15.4112 4.16196 15.1687 4.43905ZM15.1792 11.0935L11.8458 15.0935C11.6101 15.3764 11.1897 15.4146 10.9069 15.1789C10.624 14.9432 10.5858 14.5228 10.8215 14.2399L14.1549 10.2399C14.3906 9.95708 14.8109 9.91886 15.0938 10.1546C15.3766 10.3903 15.4149 10.8107 15.1792 11.0935Z" fill="#8E95A4"/>
</svg>
