<svg width="24" height="24" viewBox="0 0 24 24" fill="none" xmlns="http://www.w3.org/2000/svg">
<g filter="url(#filter0_iii_1230_444)">
<path d="M16.5394 4.58517C11.4594 2.05057 5.43808 3.0289 2.6939 7.46319C-0.0502892 11.8975 1.69727 17.7976 6.59908 20.6421C9.0076 22.0392 12.8955 23.4665 14.4752 21.5635C16.0238 19.6989 13.7395 18.5177 14.2724 17.4857C15.1306 15.8256 18.9687 18.0036 21.4793 15.3199C24.3083 12.2945 21.4862 7.05444 16.5394 4.58517ZM18.0597 14.3288C16.7378 14.3288 15.7873 13.3851 15.7873 12.1052C15.7873 10.8254 16.7378 9.88167 18.0597 9.88167C19.3816 9.88167 20.3321 10.8254 20.3321 12.1052C20.3321 13.3851 19.3816 14.3288 18.0597 14.3288Z" fill="url(#paint0_linear_1230_444)"/>
</g>
<g filter="url(#filter1_f_1230_444)">
<path d="M6.08051 11.5079C6.98778 11.5079 7.72327 10.7724 7.72327 9.86512C7.72327 8.95784 6.98778 8.22235 6.08051 8.22235C5.17324 8.22235 4.43774 8.95784 4.43774 9.86512C4.43774 10.7724 5.17324 11.5079 6.08051 11.5079Z" fill="#CB758C"/>
</g>
<g filter="url(#filter2_f_1230_444)">
<path d="M10.5629 8.4903C11.4702 8.4903 12.2057 7.75481 12.2057 6.84754C12.2057 5.94026 11.4702 5.20477 10.5629 5.20477C9.65566 5.20477 8.92017 5.94026 8.92017 6.84754C8.92017 7.75481 9.65566 8.4903 10.5629 8.4903Z" fill="#CB758C"/>
</g>
<g filter="url(#filter3_f_1230_444)">
<path d="M10.1938 20.2133C11.1011 20.2133 11.8366 19.4778 11.8366 18.5705C11.8366 17.6632 11.1011 16.9277 10.1938 16.9277C9.28652 16.9277 8.55103 17.6632 8.55103 18.5705C8.55103 19.4778 9.28652 20.2133 10.1938 20.2133Z" fill="#CB758C"/>
</g>
<g filter="url(#filter4_f_1230_444)">
<path d="M6.33661 16.4633C7.24389 16.4633 7.97938 15.7278 7.97938 14.8205C7.97938 13.9132 7.24389 13.1777 6.33661 13.1777C5.42934 13.1777 4.69385 13.9132 4.69385 14.8205C4.69385 15.7278 5.42934 16.4633 6.33661 16.4633Z" fill="#EDB88B"/>
</g>
<g filter="url(#filter5_f_1230_444)">
<path d="M6.39521 11.2367C7.30248 11.2367 8.03797 10.5012 8.03797 9.59394C8.03797 8.68666 7.30248 7.95117 6.39521 7.95117C5.48793 7.95117 4.75244 8.68666 4.75244 9.59394C4.75244 10.5012 5.48793 11.2367 6.39521 11.2367Z" fill="#EDB88B"/>
</g>
<g filter="url(#filter6_f_1230_444)">
<path d="M11.0241 8.2223C11.9314 8.2223 12.6669 7.48681 12.6669 6.57953C12.6669 5.67226 11.9314 4.93677 11.0241 4.93677C10.1168 4.93677 9.38135 5.67226 9.38135 6.57953C9.38135 7.48681 10.1168 8.2223 11.0241 8.2223Z" fill="#EDB88B"/>
</g>
<g filter="url(#filter7_ii_1230_444)">
<path d="M10.792 8.46094C11.724 8.46094 12.4795 7.70542 12.4795 6.77344C12.4795 5.84146 11.724 5.08594 10.792 5.08594C9.86001 5.08594 9.10449 5.84146 9.10449 6.77344C9.10449 7.70542 9.86001 8.46094 10.792 8.46094Z" fill="url(#paint1_linear_1230_444)"/>
</g>
<g filter="url(#filter8_ii_1230_444)">
<path d="M6.29199 11.4609C7.22397 11.4609 7.97949 10.7054 7.97949 9.77344C7.97949 8.84146 7.22397 8.08594 6.29199 8.08594C5.36001 8.08594 4.60449 8.84146 4.60449 9.77344C4.60449 10.7054 5.36001 11.4609 6.29199 11.4609Z" fill="url(#paint2_linear_1230_444)"/>
</g>
<g filter="url(#filter9_f_1230_444)">
<path d="M6.08051 16.8324C6.98778 16.8324 7.72327 16.0969 7.72327 15.1896C7.72327 14.2824 6.98778 13.5469 6.08051 13.5469C5.17324 13.5469 4.43774 14.2824 4.43774 15.1896C4.43774 16.0969 5.17324 16.8324 6.08051 16.8324Z" fill="#CB758C"/>
</g>
<g filter="url(#filter10_ii_1230_444)">
<path d="M6.29199 16.7109C7.22397 16.7109 7.97949 15.9554 7.97949 15.0234C7.97949 14.0915 7.22397 13.3359 6.29199 13.3359C5.36001 13.3359 4.60449 14.0915 4.60449 15.0234C4.60449 15.9554 5.36001 16.7109 6.29199 16.7109Z" fill="url(#paint3_linear_1230_444)"/>
</g>
<g filter="url(#filter11_ii_1230_444)">
<path d="M10.417 20.0859C11.349 20.0859 12.1045 19.3304 12.1045 18.3984C12.1045 17.4665 11.349 16.7109 10.417 16.7109C9.48501 16.7109 8.72949 17.4665 8.72949 18.3984C8.72949 19.3304 9.48501 20.0859 10.417 20.0859Z" fill="url(#paint4_linear_1230_444)"/>
</g>
<defs>
<filter id="filter0_iii_1230_444" x="1.09551" y="2.91094" width="21.959" height="19.871" filterUnits="userSpaceOnUse" color-interpolation-filters="sRGB">
<feFlood flood-opacity="0" result="BackgroundImageFix"/>
<feBlend mode="normal" in="SourceGraphic" in2="BackgroundImageFix" result="shape"/>
<feColorMatrix in="SourceAlpha" type="matrix" values="0 0 0 0 0 0 0 0 0 0 0 0 0 0 0 0 0 0 127 0" result="hardAlpha"/>
<feOffset dx="0.45" dy="0.3"/>
<feGaussianBlur stdDeviation="0.225"/>
<feComposite in2="hardAlpha" operator="arithmetic" k2="-1" k3="1"/>
<feColorMatrix type="matrix" values="0 0 0 0 1 0 0 0 0 0.647059 0 0 0 0 0.458824 0 0 0 1 0"/>
<feBlend mode="normal" in2="shape" result="effect1_innerShadow_1230_444"/>
<feColorMatrix in="SourceAlpha" type="matrix" values="0 0 0 0 0 0 0 0 0 0 0 0 0 0 0 0 0 0 127 0" result="hardAlpha"/>
<feOffset dx="0.3" dy="-0.3"/>
<feGaussianBlur stdDeviation="0.225"/>
<feComposite in2="hardAlpha" operator="arithmetic" k2="-1" k3="1"/>
<feColorMatrix type="matrix" values="0 0 0 0 0.937255 0 0 0 0 0.501961 0 0 0 0 0.588235 0 0 0 1 0"/>
<feBlend mode="normal" in2="effect1_innerShadow_1230_444" result="effect2_innerShadow_1230_444"/>
<feColorMatrix in="SourceAlpha" type="matrix" values="0 0 0 0 0 0 0 0 0 0 0 0 0 0 0 0 0 0 127 0" result="hardAlpha"/>
<feOffset dx="-0.3" dy="0.3"/>
<feGaussianBlur stdDeviation="0.225"/>
<feComposite in2="hardAlpha" operator="arithmetic" k2="-1" k3="1"/>
<feColorMatrix type="matrix" values="0 0 0 0 1 0 0 0 0 0.835294 0 0 0 0 0.615686 0 0 0 1 0"/>
<feBlend mode="normal" in2="effect2_innerShadow_1230_444" result="effect3_innerShadow_1230_444"/>
</filter>
<filter id="filter1_f_1230_444" x="3.93774" y="7.72235" width="4.28564" height="4.28552" filterUnits="userSpaceOnUse" color-interpolation-filters="sRGB">
<feFlood flood-opacity="0" result="BackgroundImageFix"/>
<feBlend mode="normal" in="SourceGraphic" in2="BackgroundImageFix" result="shape"/>
<feGaussianBlur stdDeviation="0.25" result="effect1_foregroundBlur_1230_444"/>
</filter>
<filter id="filter2_f_1230_444" x="8.42017" y="4.70477" width="4.28564" height="4.28552" filterUnits="userSpaceOnUse" color-interpolation-filters="sRGB">
<feFlood flood-opacity="0" result="BackgroundImageFix"/>
<feBlend mode="normal" in="SourceGraphic" in2="BackgroundImageFix" result="shape"/>
<feGaussianBlur stdDeviation="0.25" result="effect1_foregroundBlur_1230_444"/>
</filter>
<filter id="filter3_f_1230_444" x="8.05103" y="16.4277" width="4.28564" height="4.28552" filterUnits="userSpaceOnUse" color-interpolation-filters="sRGB">
<feFlood flood-opacity="0" result="BackgroundImageFix"/>
<feBlend mode="normal" in="SourceGraphic" in2="BackgroundImageFix" result="shape"/>
<feGaussianBlur stdDeviation="0.25" result="effect1_foregroundBlur_1230_444"/>
</filter>
<filter id="filter4_f_1230_444" x="4.19385" y="12.6777" width="4.28564" height="4.28552" filterUnits="userSpaceOnUse" color-interpolation-filters="sRGB">
<feFlood flood-opacity="0" result="BackgroundImageFix"/>
<feBlend mode="normal" in="SourceGraphic" in2="BackgroundImageFix" result="shape"/>
<feGaussianBlur stdDeviation="0.25" result="effect1_foregroundBlur_1230_444"/>
</filter>
<filter id="filter5_f_1230_444" x="4.25244" y="7.45117" width="4.28564" height="4.28552" filterUnits="userSpaceOnUse" color-interpolation-filters="sRGB">
<feFlood flood-opacity="0" result="BackgroundImageFix"/>
<feBlend mode="normal" in="SourceGraphic" in2="BackgroundImageFix" result="shape"/>
<feGaussianBlur stdDeviation="0.25" result="effect1_foregroundBlur_1230_444"/>
</filter>
<filter id="filter6_f_1230_444" x="8.88135" y="4.43677" width="4.28564" height="4.28552" filterUnits="userSpaceOnUse" color-interpolation-filters="sRGB">
<feFlood flood-opacity="0" result="BackgroundImageFix"/>
<feBlend mode="normal" in="SourceGraphic" in2="BackgroundImageFix" result="shape"/>
<feGaussianBlur stdDeviation="0.25" result="effect1_foregroundBlur_1230_444"/>
</filter>
<filter id="filter7_ii_1230_444" x="8.80449" y="5.08594" width="3.975" height="3.675" filterUnits="userSpaceOnUse" color-interpolation-filters="sRGB">
<feFlood flood-opacity="0" result="BackgroundImageFix"/>
<feBlend mode="normal" in="SourceGraphic" in2="BackgroundImageFix" result="shape"/>
<feColorMatrix in="SourceAlpha" type="matrix" values="0 0 0 0 0 0 0 0 0 0 0 0 0 0 0 0 0 0 127 0" result="hardAlpha"/>
<feOffset dx="-0.3" dy="0.3"/>
<feGaussianBlur stdDeviation="0.225"/>
<feComposite in2="hardAlpha" operator="arithmetic" k2="-1" k3="1"/>
<feColorMatrix type="matrix" values="0 0 0 0 0.87451 0 0 0 0 0.490196 0 0 0 0 0.984314 0 0 0 1 0"/>
<feBlend mode="normal" in2="shape" result="effect1_innerShadow_1230_444"/>
<feColorMatrix in="SourceAlpha" type="matrix" values="0 0 0 0 0 0 0 0 0 0 0 0 0 0 0 0 0 0 127 0" result="hardAlpha"/>
<feOffset dx="0.3"/>
<feGaussianBlur stdDeviation="0.5"/>
<feComposite in2="hardAlpha" operator="arithmetic" k2="-1" k3="1"/>
<feColorMatrix type="matrix" values="0 0 0 0 0.635294 0 0 0 0 0.258824 0 0 0 0 0.639216 0 0 0 1 0"/>
<feBlend mode="normal" in2="effect1_innerShadow_1230_444" result="effect2_innerShadow_1230_444"/>
</filter>
<filter id="filter8_ii_1230_444" x="4.30449" y="8.08594" width="3.975" height="3.675" filterUnits="userSpaceOnUse" color-interpolation-filters="sRGB">
<feFlood flood-opacity="0" result="BackgroundImageFix"/>
<feBlend mode="normal" in="SourceGraphic" in2="BackgroundImageFix" result="shape"/>
<feColorMatrix in="SourceAlpha" type="matrix" values="0 0 0 0 0 0 0 0 0 0 0 0 0 0 0 0 0 0 127 0" result="hardAlpha"/>
<feOffset dx="-0.3" dy="0.3"/>
<feGaussianBlur stdDeviation="0.225"/>
<feComposite in2="hardAlpha" operator="arithmetic" k2="-1" k3="1"/>
<feColorMatrix type="matrix" values="0 0 0 0 1 0 0 0 0 0.34902 0 0 0 0 0.619608 0 0 0 1 0"/>
<feBlend mode="normal" in2="shape" result="effect1_innerShadow_1230_444"/>
<feColorMatrix in="SourceAlpha" type="matrix" values="0 0 0 0 0 0 0 0 0 0 0 0 0 0 0 0 0 0 127 0" result="hardAlpha"/>
<feOffset dx="0.3"/>
<feGaussianBlur stdDeviation="0.5"/>
<feComposite in2="hardAlpha" operator="arithmetic" k2="-1" k3="1"/>
<feColorMatrix type="matrix" values="0 0 0 0 0.807843 0 0 0 0 0.172549 0 0 0 0 0.415686 0 0 0 1 0"/>
<feBlend mode="normal" in2="effect1_innerShadow_1230_444" result="effect2_innerShadow_1230_444"/>
</filter>
<filter id="filter9_f_1230_444" x="3.93774" y="13.0469" width="4.28564" height="4.28552" filterUnits="userSpaceOnUse" color-interpolation-filters="sRGB">
<feFlood flood-opacity="0" result="BackgroundImageFix"/>
<feBlend mode="normal" in="SourceGraphic" in2="BackgroundImageFix" result="shape"/>
<feGaussianBlur stdDeviation="0.25" result="effect1_foregroundBlur_1230_444"/>
</filter>
<filter id="filter10_ii_1230_444" x="4.30449" y="13.3359" width="3.975" height="3.675" filterUnits="userSpaceOnUse" color-interpolation-filters="sRGB">
<feFlood flood-opacity="0" result="BackgroundImageFix"/>
<feBlend mode="normal" in="SourceGraphic" in2="BackgroundImageFix" result="shape"/>
<feColorMatrix in="SourceAlpha" type="matrix" values="0 0 0 0 0 0 0 0 0 0 0 0 0 0 0 0 0 0 127 0" result="hardAlpha"/>
<feOffset dx="-0.3" dy="0.3"/>
<feGaussianBlur stdDeviation="0.225"/>
<feComposite in2="hardAlpha" operator="arithmetic" k2="-1" k3="1"/>
<feColorMatrix type="matrix" values="0 0 0 0 0.364706 0 0 0 0 0.894118 0 0 0 0 0.737255 0 0 0 1 0"/>
<feBlend mode="normal" in2="shape" result="effect1_innerShadow_1230_444"/>
<feColorMatrix in="SourceAlpha" type="matrix" values="0 0 0 0 0 0 0 0 0 0 0 0 0 0 0 0 0 0 127 0" result="hardAlpha"/>
<feOffset dx="0.3"/>
<feGaussianBlur stdDeviation="0.5"/>
<feComposite in2="hardAlpha" operator="arithmetic" k2="-1" k3="1"/>
<feColorMatrix type="matrix" values="0 0 0 0 0.247059 0 0 0 0 0.533333 0 0 0 0 0.694118 0 0 0 1 0"/>
<feBlend mode="normal" in2="effect1_innerShadow_1230_444" result="effect2_innerShadow_1230_444"/>
</filter>
<filter id="filter11_ii_1230_444" x="8.42949" y="16.7109" width="3.975" height="3.675" filterUnits="userSpaceOnUse" color-interpolation-filters="sRGB">
<feFlood flood-opacity="0" result="BackgroundImageFix"/>
<feBlend mode="normal" in="SourceGraphic" in2="BackgroundImageFix" result="shape"/>
<feColorMatrix in="SourceAlpha" type="matrix" values="0 0 0 0 0 0 0 0 0 0 0 0 0 0 0 0 0 0 127 0" result="hardAlpha"/>
<feOffset dx="-0.3" dy="0.3"/>
<feGaussianBlur stdDeviation="0.225"/>
<feComposite in2="hardAlpha" operator="arithmetic" k2="-1" k3="1"/>
<feColorMatrix type="matrix" values="0 0 0 0 0.364706 0 0 0 0 0.752941 0 0 0 0 0.945098 0 0 0 1 0"/>
<feBlend mode="normal" in2="shape" result="effect1_innerShadow_1230_444"/>
<feColorMatrix in="SourceAlpha" type="matrix" values="0 0 0 0 0 0 0 0 0 0 0 0 0 0 0 0 0 0 127 0" result="hardAlpha"/>
<feOffset dx="0.3"/>
<feGaussianBlur stdDeviation="0.5"/>
<feComposite in2="hardAlpha" operator="arithmetic" k2="-1" k3="1"/>
<feColorMatrix type="matrix" values="0 0 0 0 0.266667 0 0 0 0 0.4 0 0 0 0 0.917647 0 0 0 1 0"/>
<feBlend mode="normal" in2="effect1_innerShadow_1230_444" result="effect2_innerShadow_1230_444"/>
</filter>
<linearGradient id="paint0_linear_1230_444" x1="18.0597" y1="5.38819" x2="10.2941" y2="22.2874" gradientUnits="userSpaceOnUse">
<stop stop-color="#FFB9A1"/>
<stop offset="1" stop-color="#FFB4AD"/>
</linearGradient>
<linearGradient id="paint1_linear_1230_444" x1="9.80367" y1="5.08594" x2="11.3545" y2="8.84503" gradientUnits="userSpaceOnUse">
<stop stop-color="#CC67F1"/>
<stop offset="1" stop-color="#C950FC"/>
</linearGradient>
<linearGradient id="paint2_linear_1230_444" x1="5.30367" y1="8.08594" x2="6.85446" y2="11.845" gradientUnits="userSpaceOnUse">
<stop stop-color="#F9399F"/>
<stop offset="1" stop-color="#FD328C"/>
</linearGradient>
<linearGradient id="paint3_linear_1230_444" x1="5.30367" y1="13.3359" x2="6.85446" y2="17.095" gradientUnits="userSpaceOnUse">
<stop stop-color="#47CFA8"/>
<stop offset="1" stop-color="#48ABEB"/>
</linearGradient>
<linearGradient id="paint4_linear_1230_444" x1="9.42867" y1="16.7109" x2="10.9795" y2="20.47" gradientUnits="userSpaceOnUse">
<stop stop-color="#49B1F1"/>
<stop offset="1" stop-color="#4982FE"/>
</linearGradient>
</defs>
</svg>
