<svg width="32" height="32" viewBox="0 0 32 32" fill="none" xmlns="http://www.w3.org/2000/svg">
    <g filter="url(#filter0_iii_1331_799)">
        <path d="M22.0525 6.11356C15.2791 2.7341 7.2507 4.03853 3.59178 9.95092C-0.0671337 15.8633 2.26294 23.7301 8.7987 27.5228C12.0101 29.3856 17.1939 31.2887 19.3002 28.7513C21.365 26.2653 18.3192 24.6902 19.0298 23.3143C20.174 21.1008 25.2915 24.0048 28.639 20.4266C32.4109 16.3927 28.6482 9.40591 22.0525 6.11356ZM24.0795 19.1051C22.317 19.1051 21.0497 17.8468 21.0497 16.1403C21.0497 14.4338 22.317 13.1756 24.0795 13.1756C25.8421 13.1756 27.1094 14.4338 27.1094 16.1403C27.1094 17.8468 25.8421 19.1051 24.0795 19.1051Z" fill="url(#paint0_linear_1331_799)"/>
    </g>
    <g filter="url(#filter1_f_1331_799)">
        <path d="M8.10735 15.3438C9.31704 15.3438 10.2977 14.3632 10.2977 13.1535C10.2977 11.9438 9.31704 10.9631 8.10735 10.9631C6.89765 10.9631 5.91699 11.9438 5.91699 13.1535C5.91699 14.3632 6.89765 15.3438 8.10735 15.3438Z" fill="#CB758C"/>
    </g>
    <g filter="url(#filter2_f_1331_799)">
        <path d="M14.0839 11.3204C15.2936 11.3204 16.2743 10.3397 16.2743 9.13005C16.2743 7.92035 15.2936 6.9397 14.0839 6.9397C12.8742 6.9397 11.8936 7.92035 11.8936 9.13005C11.8936 10.3397 12.8742 11.3204 14.0839 11.3204Z" fill="#CB758C"/>
    </g>
    <g filter="url(#filter3_f_1331_799)">
        <path d="M13.5917 26.951C14.8014 26.951 15.7821 25.9704 15.7821 24.7607C15.7821 23.551 14.8014 22.5703 13.5917 22.5703C12.382 22.5703 11.4014 23.551 11.4014 24.7607C11.4014 25.9704 12.382 26.951 13.5917 26.951Z" fill="#CB758C"/>
    </g>
    <g filter="url(#filter4_f_1331_799)">
        <path d="M8.4489 21.951C9.6586 21.951 10.6393 20.9704 10.6393 19.7607C10.6393 18.551 9.6586 17.5703 8.4489 17.5703C7.2392 17.5703 6.25854 18.551 6.25854 19.7607C6.25854 20.9704 7.2392 21.951 8.4489 21.951Z" fill="#EDB88B"/>
    </g>
    <g filter="url(#filter5_f_1331_799)">
        <path d="M8.52702 14.9823C9.73672 14.9823 10.7174 14.0016 10.7174 12.7919C10.7174 11.5822 9.73672 10.6016 8.52702 10.6016C7.31732 10.6016 6.33667 11.5822 6.33667 12.7919C6.33667 14.0016 7.31732 14.9823 8.52702 14.9823Z" fill="#EDB88B"/>
    </g>
    <g filter="url(#filter6_f_1331_799)">
        <path d="M14.6989 10.9631C15.9086 10.9631 16.8893 9.98245 16.8893 8.77275C16.8893 7.56305 15.9086 6.5824 14.6989 6.5824C13.4892 6.5824 12.5085 7.56305 12.5085 8.77275C12.5085 9.98245 13.4892 10.9631 14.6989 10.9631Z" fill="#EDB88B"/>
    </g>
    <g filter="url(#filter7_ii_1331_799)">
        <path d="M14.3894 11.2812C15.632 11.2812 16.6394 10.2739 16.6394 9.03125C16.6394 7.78861 15.632 6.78125 14.3894 6.78125C13.1468 6.78125 12.1394 7.78861 12.1394 9.03125C12.1394 10.2739 13.1468 11.2812 14.3894 11.2812Z" fill="url(#paint1_linear_1331_799)"/>
    </g>
    <g filter="url(#filter8_ii_1331_799)">
        <path d="M8.3894 15.2812C9.63205 15.2812 10.6394 14.2739 10.6394 13.0312C10.6394 11.7886 9.63205 10.7812 8.3894 10.7812C7.14676 10.7812 6.1394 11.7886 6.1394 13.0312C6.1394 14.2739 7.14676 15.2812 8.3894 15.2812Z" fill="url(#paint2_linear_1331_799)"/>
    </g>
    <g filter="url(#filter9_f_1331_799)">
        <path d="M8.10735 22.4432C9.31704 22.4432 10.2977 21.4626 10.2977 20.2529C10.2977 19.0432 9.31704 18.0625 8.10735 18.0625C6.89765 18.0625 5.91699 19.0432 5.91699 20.2529C5.91699 21.4626 6.89765 22.4432 8.10735 22.4432Z" fill="#CB758C"/>
    </g>
    <g filter="url(#filter10_ii_1331_799)">
        <path d="M8.3894 22.2812C9.63205 22.2812 10.6394 21.2739 10.6394 20.0312C10.6394 18.7886 9.63205 17.7812 8.3894 17.7812C7.14676 17.7812 6.1394 18.7886 6.1394 20.0312C6.1394 21.2739 7.14676 22.2812 8.3894 22.2812Z" fill="url(#paint3_linear_1331_799)"/>
    </g>
    <g filter="url(#filter11_ii_1331_799)">
        <path d="M13.8894 26.7812C15.132 26.7812 16.1394 25.7739 16.1394 24.5312C16.1394 23.2886 15.132 22.2812 13.8894 22.2812C12.6468 22.2812 11.6394 23.2886 11.6394 24.5312C11.6394 25.7739 12.6468 26.7812 13.8894 26.7812Z" fill="url(#paint4_linear_1331_799)"/>
    </g>
    <defs>
        <filter id="filter0_iii_1331_799" x="1.5606" y="3.98125" width="29.0286" height="26.2946" filterUnits="userSpaceOnUse" color-interpolation-filters="sRGB">
            <feFlood flood-opacity="0" result="BackgroundImageFix"/>
            <feBlend mode="normal" in="SourceGraphic" in2="BackgroundImageFix" result="shape"/>
            <feColorMatrix in="SourceAlpha" type="matrix" values="0 0 0 0 0 0 0 0 0 0 0 0 0 0 0 0 0 0 127 0" result="hardAlpha"/>
            <feOffset dx="0.45" dy="0.3"/>
            <feGaussianBlur stdDeviation="0.225"/>
            <feComposite in2="hardAlpha" operator="arithmetic" k2="-1" k3="1"/>
            <feColorMatrix type="matrix" values="0 0 0 0 1 0 0 0 0 0.647059 0 0 0 0 0.458824 0 0 0 1 0"/>
            <feBlend mode="normal" in2="shape" result="effect1_innerShadow_1331_799"/>
            <feColorMatrix in="SourceAlpha" type="matrix" values="0 0 0 0 0 0 0 0 0 0 0 0 0 0 0 0 0 0 127 0" result="hardAlpha"/>
            <feOffset dx="0.3" dy="-0.3"/>
            <feGaussianBlur stdDeviation="0.225"/>
            <feComposite in2="hardAlpha" operator="arithmetic" k2="-1" k3="1"/>
            <feColorMatrix type="matrix" values="0 0 0 0 0.937255 0 0 0 0 0.501961 0 0 0 0 0.588235 0 0 0 1 0"/>
            <feBlend mode="normal" in2="effect1_innerShadow_1331_799" result="effect2_innerShadow_1331_799"/>
            <feColorMatrix in="SourceAlpha" type="matrix" values="0 0 0 0 0 0 0 0 0 0 0 0 0 0 0 0 0 0 127 0" result="hardAlpha"/>
            <feOffset dx="-0.3" dy="0.3"/>
            <feGaussianBlur stdDeviation="0.225"/>
            <feComposite in2="hardAlpha" operator="arithmetic" k2="-1" k3="1"/>
            <feColorMatrix type="matrix" values="0 0 0 0 1 0 0 0 0 0.835294 0 0 0 0 0.615686 0 0 0 1 0"/>
            <feBlend mode="normal" in2="effect2_innerShadow_1331_799" result="effect3_innerShadow_1331_799"/>
        </filter>
        <filter id="filter1_f_1331_799" x="5.41699" y="10.4631" width="5.38062" height="5.38074" filterUnits="userSpaceOnUse" color-interpolation-filters="sRGB">
            <feFlood flood-opacity="0" result="BackgroundImageFix"/>
            <feBlend mode="normal" in="SourceGraphic" in2="BackgroundImageFix" result="shape"/>
            <feGaussianBlur stdDeviation="0.25" result="effect1_foregroundBlur_1331_799"/>
        </filter>
        <filter id="filter2_f_1331_799" x="11.3936" y="6.4397" width="5.38062" height="5.38074" filterUnits="userSpaceOnUse" color-interpolation-filters="sRGB">
            <feFlood flood-opacity="0" result="BackgroundImageFix"/>
            <feBlend mode="normal" in="SourceGraphic" in2="BackgroundImageFix" result="shape"/>
            <feGaussianBlur stdDeviation="0.25" result="effect1_foregroundBlur_1331_799"/>
        </filter>
        <filter id="filter3_f_1331_799" x="10.9014" y="22.0703" width="5.38062" height="5.38074" filterUnits="userSpaceOnUse" color-interpolation-filters="sRGB">
            <feFlood flood-opacity="0" result="BackgroundImageFix"/>
            <feBlend mode="normal" in="SourceGraphic" in2="BackgroundImageFix" result="shape"/>
            <feGaussianBlur stdDeviation="0.25" result="effect1_foregroundBlur_1331_799"/>
        </filter>
        <filter id="filter4_f_1331_799" x="5.75854" y="17.0703" width="5.38062" height="5.38074" filterUnits="userSpaceOnUse" color-interpolation-filters="sRGB">
            <feFlood flood-opacity="0" result="BackgroundImageFix"/>
            <feBlend mode="normal" in="SourceGraphic" in2="BackgroundImageFix" result="shape"/>
            <feGaussianBlur stdDeviation="0.25" result="effect1_foregroundBlur_1331_799"/>
        </filter>
        <filter id="filter5_f_1331_799" x="5.83667" y="10.1016" width="5.38062" height="5.38074" filterUnits="userSpaceOnUse" color-interpolation-filters="sRGB">
            <feFlood flood-opacity="0" result="BackgroundImageFix"/>
            <feBlend mode="normal" in="SourceGraphic" in2="BackgroundImageFix" result="shape"/>
            <feGaussianBlur stdDeviation="0.25" result="effect1_foregroundBlur_1331_799"/>
        </filter>
        <filter id="filter6_f_1331_799" x="12.0085" y="6.0824" width="5.38062" height="5.38074" filterUnits="userSpaceOnUse" color-interpolation-filters="sRGB">
            <feFlood flood-opacity="0" result="BackgroundImageFix"/>
            <feBlend mode="normal" in="SourceGraphic" in2="BackgroundImageFix" result="shape"/>
            <feGaussianBlur stdDeviation="0.25" result="effect1_foregroundBlur_1331_799"/>
        </filter>
        <filter id="filter7_ii_1331_799" x="11.8394" y="6.78125" width="5.1" height="4.8" filterUnits="userSpaceOnUse" color-interpolation-filters="sRGB">
            <feFlood flood-opacity="0" result="BackgroundImageFix"/>
            <feBlend mode="normal" in="SourceGraphic" in2="BackgroundImageFix" result="shape"/>
            <feColorMatrix in="SourceAlpha" type="matrix" values="0 0 0 0 0 0 0 0 0 0 0 0 0 0 0 0 0 0 127 0" result="hardAlpha"/>
            <feOffset dx="-0.3" dy="0.3"/>
            <feGaussianBlur stdDeviation="0.225"/>
            <feComposite in2="hardAlpha" operator="arithmetic" k2="-1" k3="1"/>
            <feColorMatrix type="matrix" values="0 0 0 0 0.87451 0 0 0 0 0.490196 0 0 0 0 0.984314 0 0 0 1 0"/>
            <feBlend mode="normal" in2="shape" result="effect1_innerShadow_1331_799"/>
            <feColorMatrix in="SourceAlpha" type="matrix" values="0 0 0 0 0 0 0 0 0 0 0 0 0 0 0 0 0 0 127 0" result="hardAlpha"/>
            <feOffset dx="0.3"/>
            <feGaussianBlur stdDeviation="0.5"/>
            <feComposite in2="hardAlpha" operator="arithmetic" k2="-1" k3="1"/>
            <feColorMatrix type="matrix" values="0 0 0 0 0.635294 0 0 0 0 0.258824 0 0 0 0 0.639216 0 0 0 1 0"/>
            <feBlend mode="normal" in2="effect1_innerShadow_1331_799" result="effect2_innerShadow_1331_799"/>
        </filter>
        <filter id="filter8_ii_1331_799" x="5.8394" y="10.7812" width="5.1" height="4.8" filterUnits="userSpaceOnUse" color-interpolation-filters="sRGB">
            <feFlood flood-opacity="0" result="BackgroundImageFix"/>
            <feBlend mode="normal" in="SourceGraphic" in2="BackgroundImageFix" result="shape"/>
            <feColorMatrix in="SourceAlpha" type="matrix" values="0 0 0 0 0 0 0 0 0 0 0 0 0 0 0 0 0 0 127 0" result="hardAlpha"/>
            <feOffset dx="-0.3" dy="0.3"/>
            <feGaussianBlur stdDeviation="0.225"/>
            <feComposite in2="hardAlpha" operator="arithmetic" k2="-1" k3="1"/>
            <feColorMatrix type="matrix" values="0 0 0 0 1 0 0 0 0 0.34902 0 0 0 0 0.619608 0 0 0 1 0"/>
            <feBlend mode="normal" in2="shape" result="effect1_innerShadow_1331_799"/>
            <feColorMatrix in="SourceAlpha" type="matrix" values="0 0 0 0 0 0 0 0 0 0 0 0 0 0 0 0 0 0 127 0" result="hardAlpha"/>
            <feOffset dx="0.3"/>
            <feGaussianBlur stdDeviation="0.5"/>
            <feComposite in2="hardAlpha" operator="arithmetic" k2="-1" k3="1"/>
            <feColorMatrix type="matrix" values="0 0 0 0 0.807843 0 0 0 0 0.172549 0 0 0 0 0.415686 0 0 0 1 0"/>
            <feBlend mode="normal" in2="effect1_innerShadow_1331_799" result="effect2_innerShadow_1331_799"/>
        </filter>
        <filter id="filter9_f_1331_799" x="5.41699" y="17.5625" width="5.38062" height="5.38074" filterUnits="userSpaceOnUse" color-interpolation-filters="sRGB">
            <feFlood flood-opacity="0" result="BackgroundImageFix"/>
            <feBlend mode="normal" in="SourceGraphic" in2="BackgroundImageFix" result="shape"/>
            <feGaussianBlur stdDeviation="0.25" result="effect1_foregroundBlur_1331_799"/>
        </filter>
        <filter id="filter10_ii_1331_799" x="5.8394" y="17.7812" width="5.1" height="4.8" filterUnits="userSpaceOnUse" color-interpolation-filters="sRGB">
            <feFlood flood-opacity="0" result="BackgroundImageFix"/>
            <feBlend mode="normal" in="SourceGraphic" in2="BackgroundImageFix" result="shape"/>
            <feColorMatrix in="SourceAlpha" type="matrix" values="0 0 0 0 0 0 0 0 0 0 0 0 0 0 0 0 0 0 127 0" result="hardAlpha"/>
            <feOffset dx="-0.3" dy="0.3"/>
            <feGaussianBlur stdDeviation="0.225"/>
            <feComposite in2="hardAlpha" operator="arithmetic" k2="-1" k3="1"/>
            <feColorMatrix type="matrix" values="0 0 0 0 0.364706 0 0 0 0 0.894118 0 0 0 0 0.737255 0 0 0 1 0"/>
            <feBlend mode="normal" in2="shape" result="effect1_innerShadow_1331_799"/>
            <feColorMatrix in="SourceAlpha" type="matrix" values="0 0 0 0 0 0 0 0 0 0 0 0 0 0 0 0 0 0 127 0" result="hardAlpha"/>
            <feOffset dx="0.3"/>
            <feGaussianBlur stdDeviation="0.5"/>
            <feComposite in2="hardAlpha" operator="arithmetic" k2="-1" k3="1"/>
            <feColorMatrix type="matrix" values="0 0 0 0 0.247059 0 0 0 0 0.533333 0 0 0 0 0.694118 0 0 0 1 0"/>
            <feBlend mode="normal" in2="effect1_innerShadow_1331_799" result="effect2_innerShadow_1331_799"/>
        </filter>
        <filter id="filter11_ii_1331_799" x="11.3394" y="22.2812" width="5.1" height="4.8" filterUnits="userSpaceOnUse" color-interpolation-filters="sRGB">
            <feFlood flood-opacity="0" result="BackgroundImageFix"/>
            <feBlend mode="normal" in="SourceGraphic" in2="BackgroundImageFix" result="shape"/>
            <feColorMatrix in="SourceAlpha" type="matrix" values="0 0 0 0 0 0 0 0 0 0 0 0 0 0 0 0 0 0 127 0" result="hardAlpha"/>
            <feOffset dx="-0.3" dy="0.3"/>
            <feGaussianBlur stdDeviation="0.225"/>
            <feComposite in2="hardAlpha" operator="arithmetic" k2="-1" k3="1"/>
            <feColorMatrix type="matrix" values="0 0 0 0 0.364706 0 0 0 0 0.752941 0 0 0 0 0.945098 0 0 0 1 0"/>
            <feBlend mode="normal" in2="shape" result="effect1_innerShadow_1331_799"/>
            <feColorMatrix in="SourceAlpha" type="matrix" values="0 0 0 0 0 0 0 0 0 0 0 0 0 0 0 0 0 0 127 0" result="hardAlpha"/>
            <feOffset dx="0.3"/>
            <feGaussianBlur stdDeviation="0.5"/>
            <feComposite in2="hardAlpha" operator="arithmetic" k2="-1" k3="1"/>
            <feColorMatrix type="matrix" values="0 0 0 0 0.266667 0 0 0 0 0.4 0 0 0 0 0.917647 0 0 0 1 0"/>
            <feBlend mode="normal" in2="effect1_innerShadow_1331_799" result="effect2_innerShadow_1331_799"/>
        </filter>
        <linearGradient id="paint0_linear_1331_799" x1="24.0795" y1="7.18425" x2="13.7253" y2="29.7166" gradientUnits="userSpaceOnUse">
            <stop stop-color="#FFB9A1"/>
            <stop offset="1" stop-color="#FFB4AD"/>
        </linearGradient>
        <linearGradient id="paint1_linear_1331_799" x1="13.0716" y1="6.78125" x2="15.1394" y2="11.7934" gradientUnits="userSpaceOnUse">
            <stop stop-color="#CC67F1"/>
            <stop offset="1" stop-color="#C950FC"/>
        </linearGradient>
        <linearGradient id="paint2_linear_1331_799" x1="7.07164" y1="10.7813" x2="9.13936" y2="15.7934" gradientUnits="userSpaceOnUse">
            <stop stop-color="#F9399F"/>
            <stop offset="1" stop-color="#FD328C"/>
        </linearGradient>
        <linearGradient id="paint3_linear_1331_799" x1="7.07164" y1="17.7813" x2="9.13936" y2="22.7934" gradientUnits="userSpaceOnUse">
            <stop stop-color="#47CFA8"/>
            <stop offset="1" stop-color="#48ABEB"/>
        </linearGradient>
        <linearGradient id="paint4_linear_1331_799" x1="12.5716" y1="22.2813" x2="14.6394" y2="27.2934" gradientUnits="userSpaceOnUse">
            <stop stop-color="#49B1F1"/>
            <stop offset="1" stop-color="#4982FE"/>
        </linearGradient>
    </defs>
</svg>
