<svg width="24" height="24" viewBox="0 0 24 24" fill="none" xmlns="http://www.w3.org/2000/svg">
<rect x="8.80078" y="2.15625" width="6.14062" height="9.28125" rx="3.07031" stroke="url(#paint0_radial_1230_533)" stroke-width="1.65"/>
<g filter="url(#filter0_f_1230_533)">
<rect x="9.04688" y="2.15625" width="6.14062" height="9.28125" rx="3.07031" stroke="url(#paint1_linear_1230_533)" stroke-width="0.65"/>
</g>
<path d="M3.5625 12.0703C3.5625 7.51396 7.25615 3.82031 11.8125 3.82031C16.3688 3.82031 20.0625 7.51396 20.0625 12.0703V19.459C20.0625 21.1158 18.7194 22.459 17.0625 22.459H6.5625C4.90565 22.459 3.5625 21.1158 3.5625 19.459V12.0703Z" fill="#C4C4C4" fill-opacity="0.5"/>
<g filter="url(#filter1_i_1230_533)">
<path d="M3.5625 12.0703C3.5625 7.51396 7.25615 3.82031 11.8125 3.82031C16.3688 3.82031 20.0625 7.51396 20.0625 12.0703V19.459C20.0625 21.1158 18.7194 22.459 17.0625 22.459H6.5625C4.90565 22.459 3.5625 21.1158 3.5625 19.459V12.0703Z" fill="url(#paint2_radial_1230_533)"/>
<path d="M3.5625 12.0703C3.5625 7.51396 7.25615 3.82031 11.8125 3.82031C16.3688 3.82031 20.0625 7.51396 20.0625 12.0703V19.459C20.0625 21.1158 18.7194 22.459 17.0625 22.459H6.5625C4.90565 22.459 3.5625 21.1158 3.5625 19.459V12.0703Z" fill="url(#paint3_linear_1230_533)"/>
<path d="M3.5625 12.0703C3.5625 7.51396 7.25615 3.82031 11.8125 3.82031C16.3688 3.82031 20.0625 7.51396 20.0625 12.0703V19.459C20.0625 21.1158 18.7194 22.459 17.0625 22.459H6.5625C4.90565 22.459 3.5625 21.1158 3.5625 19.459V12.0703Z" fill="url(#paint4_linear_1230_533)"/>
</g>
<g filter="url(#filter2_f_1230_533)">
<path d="M5.31152 9.06575C6.49591 6.75809 8.89493 5.17969 11.6617 5.17969C14.4284 5.17969 16.8274 6.75809 18.0118 9.06575" stroke="url(#paint5_linear_1230_533)" stroke-linecap="round"/>
</g>
<g filter="url(#filter3_i_1230_533)">
<path d="M5.31152 9.06575C6.52406 6.70938 8.98009 5.09766 11.8126 5.09766C14.645 5.09766 17.1011 6.70938 18.3136 9.06575" stroke="url(#paint6_linear_1230_533)" stroke-linecap="round"/>
<path d="M5.31152 9.06575C6.52406 6.70938 8.98009 5.09766 11.8126 5.09766C14.645 5.09766 17.1011 6.70938 18.3136 9.06575" stroke="url(#paint7_linear_1230_533)" stroke-linecap="round"/>
</g>
<g filter="url(#filter4_f_1230_533)">
<path d="M5.49902 9.06575C6.71156 6.70938 9.16759 5.09766 12.0001 5.09766C14.8325 5.09766 17.2886 6.70938 18.5011 9.06575" stroke="url(#paint8_linear_1230_533)" stroke-width="0.25" stroke-linecap="round"/>
<path d="M5.49902 9.06575C6.71156 6.70938 9.16759 5.09766 12.0001 5.09766C14.8325 5.09766 17.2886 6.70938 18.5011 9.06575" stroke="url(#paint9_linear_1230_533)" stroke-width="0.25" stroke-linecap="round"/>
</g>
<g filter="url(#filter5_di_1230_533)">
<rect x="9.59766" y="6.83203" width="4.46484" height="2.23372" rx="1.11686" fill="#FFC442"/>
<rect x="9.59766" y="6.83203" width="4.46484" height="2.23372" rx="1.11686" fill="url(#paint10_radial_1230_533)"/>
</g>
<g filter="url(#filter6_i_1230_533)">
<path d="M16.1797 22.459C16.9879 22.459 17.7643 22.0342 18.0161 21.2663C18.2262 20.6256 18.3398 19.9413 18.3398 19.2305C18.3398 15.6255 15.4175 12.7031 11.8125 12.7031C8.20754 12.7031 5.28516 15.6255 5.28516 19.2305C5.28516 19.9413 5.39879 20.6256 5.60888 21.2663C5.86073 22.0342 6.63715 22.459 7.44532 22.459H16.1797Z" fill="url(#paint11_radial_1230_533)"/>
<path d="M16.1797 22.459C16.9879 22.459 17.7643 22.0342 18.0161 21.2663C18.2262 20.6256 18.3398 19.9413 18.3398 19.2305C18.3398 15.6255 15.4175 12.7031 11.8125 12.7031C8.20754 12.7031 5.28516 15.6255 5.28516 19.2305C5.28516 19.9413 5.39879 20.6256 5.60888 21.2663C5.86073 22.0342 6.63715 22.459 7.44532 22.459H16.1797Z" fill="url(#paint12_linear_1230_533)"/>
<path d="M16.1797 22.459C16.9879 22.459 17.7643 22.0342 18.0161 21.2663C18.2262 20.6256 18.3398 19.9413 18.3398 19.2305C18.3398 15.6255 15.4175 12.7031 11.8125 12.7031C8.20754 12.7031 5.28516 15.6255 5.28516 19.2305C5.28516 19.9413 5.39879 20.6256 5.60888 21.2663C5.86073 22.0342 6.63715 22.459 7.44532 22.459H16.1797Z" fill="url(#paint13_radial_1230_533)"/>
</g>
<path d="M5.29269 18.9141C5.45773 15.4561 8.31363 12.7031 11.8125 12.7031C15.3114 12.7031 18.1673 15.4561 18.3323 18.9141C18.3373 18.8092 18.3398 18.7037 18.3398 18.5977C18.3398 14.9927 15.4175 12.0703 11.8125 12.0703C8.20754 12.0703 5.28516 14.9927 5.28516 18.5977C5.28516 18.7037 5.28767 18.8092 5.29269 18.9141Z" fill="url(#paint14_radial_1230_533)"/>
<g filter="url(#filter7_i_1230_533)">
<path fill-rule="evenodd" clip-rule="evenodd" d="M5.64227 17.0763C5.32664 17.0763 5.06837 17.3186 5.04834 17.6247L4.84109 19.0426C4.79813 19.3364 5.02934 19.5996 5.33053 19.5996H5.94487C6.2451 19.5996 6.47604 19.338 6.43466 19.0449L6.23718 17.646C6.20985 17.3262 5.96515 17.0763 5.64227 17.0763ZM5.63087 18.0029C5.81855 18.0029 5.97071 17.8508 5.97071 17.6631C5.97071 17.4754 5.81855 17.3232 5.63087 17.3232C5.44319 17.3232 5.29102 17.4754 5.29102 17.6631C5.29102 17.8508 5.44319 18.0029 5.63087 18.0029Z" fill="url(#paint15_radial_1230_533)"/>
</g>
<defs>
<filter id="filter0_f_1230_533" x="8.32192" y="1.43124" width="7.59053" height="10.7313" filterUnits="userSpaceOnUse" color-interpolation-filters="sRGB">
<feFlood flood-opacity="0" result="BackgroundImageFix"/>
<feBlend mode="normal" in="SourceGraphic" in2="BackgroundImageFix" result="shape"/>
<feGaussianBlur stdDeviation="0.2" result="effect1_foregroundBlur_1230_533"/>
</filter>
<filter id="filter1_i_1230_533" x="3.5625" y="3.82031" width="16.75" height="18.8887" filterUnits="userSpaceOnUse" color-interpolation-filters="sRGB">
<feFlood flood-opacity="0" result="BackgroundImageFix"/>
<feBlend mode="normal" in="SourceGraphic" in2="BackgroundImageFix" result="shape"/>
<feColorMatrix in="SourceAlpha" type="matrix" values="0 0 0 0 0 0 0 0 0 0 0 0 0 0 0 0 0 0 127 0" result="hardAlpha"/>
<feOffset dx="0.25" dy="0.25"/>
<feGaussianBlur stdDeviation="0.5"/>
<feComposite in2="hardAlpha" operator="arithmetic" k2="-1" k3="1"/>
<feColorMatrix type="matrix" values="0 0 0 0 0.784314 0 0 0 0 0.329412 0 0 0 0 0.498039 0 0 0 1 0"/>
<feBlend mode="normal" in2="shape" result="effect1_innerShadow_1230_533"/>
</filter>
<filter id="filter2_f_1230_533" x="4.31152" y="4.17969" width="14.7004" height="5.88617" filterUnits="userSpaceOnUse" color-interpolation-filters="sRGB">
<feFlood flood-opacity="0" result="BackgroundImageFix"/>
<feBlend mode="normal" in="SourceGraphic" in2="BackgroundImageFix" result="shape"/>
<feGaussianBlur stdDeviation="0.25" result="effect1_foregroundBlur_1230_533"/>
</filter>
<filter id="filter3_i_1230_533" x="4.81152" y="4.49766" width="14.0022" height="5.0682" filterUnits="userSpaceOnUse" color-interpolation-filters="sRGB">
<feFlood flood-opacity="0" result="BackgroundImageFix"/>
<feBlend mode="normal" in="SourceGraphic" in2="BackgroundImageFix" result="shape"/>
<feColorMatrix in="SourceAlpha" type="matrix" values="0 0 0 0 0 0 0 0 0 0 0 0 0 0 0 0 0 0 127 0" result="hardAlpha"/>
<feOffset dy="-0.1"/>
<feGaussianBlur stdDeviation="0.25"/>
<feComposite in2="hardAlpha" operator="arithmetic" k2="-1" k3="1"/>
<feColorMatrix type="matrix" values="0 0 0 0 0.909804 0 0 0 0 0.380392 0 0 0 0 0.141176 0 0 0 1 0"/>
<feBlend mode="normal" in2="shape" result="effect1_innerShadow_1230_533"/>
</filter>
<filter id="filter4_f_1230_533" x="4.97402" y="4.57266" width="14.0522" height="5.01814" filterUnits="userSpaceOnUse" color-interpolation-filters="sRGB">
<feFlood flood-opacity="0" result="BackgroundImageFix"/>
<feBlend mode="normal" in="SourceGraphic" in2="BackgroundImageFix" result="shape"/>
<feGaussianBlur stdDeviation="0.2" result="effect1_foregroundBlur_1230_533"/>
</filter>
<filter id="filter5_di_1230_533" x="8.49766" y="5.93203" width="6.46484" height="4.23373" filterUnits="userSpaceOnUse" color-interpolation-filters="sRGB">
<feFlood flood-opacity="0" result="BackgroundImageFix"/>
<feColorMatrix in="SourceAlpha" type="matrix" values="0 0 0 0 0 0 0 0 0 0 0 0 0 0 0 0 0 0 127 0" result="hardAlpha"/>
<feOffset dx="-0.1" dy="0.1"/>
<feGaussianBlur stdDeviation="0.5"/>
<feComposite in2="hardAlpha" operator="out"/>
<feColorMatrix type="matrix" values="0 0 0 0 0.890196 0 0 0 0 0.176471 0 0 0 0 0.447059 0 0 0 1 0"/>
<feBlend mode="normal" in2="BackgroundImageFix" result="effect1_dropShadow_1230_533"/>
<feBlend mode="normal" in="SourceGraphic" in2="effect1_dropShadow_1230_533" result="shape"/>
<feColorMatrix in="SourceAlpha" type="matrix" values="0 0 0 0 0 0 0 0 0 0 0 0 0 0 0 0 0 0 127 0" result="hardAlpha"/>
<feOffset dx="0.25" dy="-0.25"/>
<feGaussianBlur stdDeviation="0.3"/>
<feComposite in2="hardAlpha" operator="arithmetic" k2="-1" k3="1"/>
<feColorMatrix type="matrix" values="0 0 0 0 0.945098 0 0 0 0 0.521569 0 0 0 0 0.188235 0 0 0 1 0"/>
<feBlend mode="normal" in2="shape" result="effect2_innerShadow_1230_533"/>
</filter>
<filter id="filter6_i_1230_533" x="5.28516" y="12.7031" width="13.2547" height="9.75586" filterUnits="userSpaceOnUse" color-interpolation-filters="sRGB">
<feFlood flood-opacity="0" result="BackgroundImageFix"/>
<feBlend mode="normal" in="SourceGraphic" in2="BackgroundImageFix" result="shape"/>
<feColorMatrix in="SourceAlpha" type="matrix" values="0 0 0 0 0 0 0 0 0 0 0 0 0 0 0 0 0 0 127 0" result="hardAlpha"/>
<feOffset dx="0.2"/>
<feGaussianBlur stdDeviation="0.25"/>
<feComposite in2="hardAlpha" operator="arithmetic" k2="-1" k3="1"/>
<feColorMatrix type="matrix" values="0 0 0 0 0.894969 0 0 0 0 0.370192 0 0 0 0 0.466334 0 0 0 1 0"/>
<feBlend mode="normal" in2="shape" result="effect1_innerShadow_1230_533"/>
</filter>
<filter id="filter7_i_1230_533" x="4.73594" y="17.0763" width="1.70352" height="2.52328" filterUnits="userSpaceOnUse" color-interpolation-filters="sRGB">
<feFlood flood-opacity="0" result="BackgroundImageFix"/>
<feBlend mode="normal" in="SourceGraphic" in2="BackgroundImageFix" result="shape"/>
<feColorMatrix in="SourceAlpha" type="matrix" values="0 0 0 0 0 0 0 0 0 0 0 0 0 0 0 0 0 0 127 0" result="hardAlpha"/>
<feOffset dx="-0.1"/>
<feGaussianBlur stdDeviation="0.05"/>
<feComposite in2="hardAlpha" operator="arithmetic" k2="-1" k3="1"/>
<feColorMatrix type="matrix" values="0 0 0 0 1 0 0 0 0 0.694118 0 0 0 0 0.270588 0 0 0 1 0"/>
<feBlend mode="normal" in2="shape" result="effect1_innerShadow_1230_533"/>
</filter>
<radialGradient id="paint0_radial_1230_533" cx="0" cy="0" r="1" gradientUnits="userSpaceOnUse" gradientTransform="translate(14.4844 2.15625) rotate(141.554) scale(3.92023 6.60878)">
<stop stop-color="#CE4767"/>
<stop offset="1" stop-color="#AF3349"/>
</radialGradient>
<linearGradient id="paint1_linear_1230_533" x1="14.9648" y1="3.96094" x2="10.957" y2="2.55469" gradientUnits="userSpaceOnUse">
<stop stop-color="#D85773"/>
<stop offset="1" stop-color="#BD385C"/>
</linearGradient>
<radialGradient id="paint2_radial_1230_533" cx="0" cy="0" r="1" gradientUnits="userSpaceOnUse" gradientTransform="translate(14.7656 7.875) rotate(112.419) scale(11.3078 10.6348)">
<stop offset="0.216088" stop-color="#FF5AAC"/>
<stop offset="1" stop-color="#E02E7A"/>
</radialGradient>
<linearGradient id="paint3_linear_1230_533" x1="19.5469" y1="22.9219" x2="11.5781" y2="17.3906" gradientUnits="userSpaceOnUse">
<stop stop-color="#F63659"/>
<stop offset="1" stop-color="#F63659" stop-opacity="0"/>
</linearGradient>
<linearGradient id="paint4_linear_1230_533" x1="4.03125" y1="22.1719" x2="8.53125" y2="15.8906" gradientUnits="userSpaceOnUse">
<stop offset="0.0351833" stop-color="#D64456"/>
<stop offset="1" stop-color="#D64456" stop-opacity="0"/>
</linearGradient>
<linearGradient id="paint5_linear_1230_533" x1="18.0118" y1="7.71599" x2="9.00602" y2="7.71599" gradientUnits="userSpaceOnUse">
<stop stop-color="#FF2274"/>
<stop offset="1" stop-color="#DA2D56"/>
</linearGradient>
<linearGradient id="paint6_linear_1230_533" x1="5.31152" y1="8.60156" x2="11.4844" y2="8.60156" gradientUnits="userSpaceOnUse">
<stop stop-color="#E98832"/>
<stop offset="1" stop-color="#FFC349"/>
</linearGradient>
<linearGradient id="paint7_linear_1230_533" x1="18.3136" y1="8.85937" x2="14.1563" y2="5.09766" gradientUnits="userSpaceOnUse">
<stop stop-color="#FFC74B"/>
<stop offset="1" stop-color="#FFC24C" stop-opacity="0"/>
</linearGradient>
<linearGradient id="paint8_linear_1230_533" x1="19.0079" y1="8.71875" x2="12.7032" y2="4.26563" gradientUnits="userSpaceOnUse">
<stop stop-color="#FFEF6F"/>
<stop offset="1" stop-color="#FFEF6F" stop-opacity="0"/>
</linearGradient>
<linearGradient id="paint9_linear_1230_533" x1="5.62507" y1="8.92969" x2="8.39069" y2="6.16406" gradientUnits="userSpaceOnUse">
<stop stop-color="#F78843"/>
<stop offset="1" stop-color="#F78843" stop-opacity="0"/>
</linearGradient>
<radialGradient id="paint10_radial_1230_533" cx="0" cy="0" r="1" gradientUnits="userSpaceOnUse" gradientTransform="translate(10.3594 7.94889) scale(3.82031 3.46517)">
<stop offset="0.791411" stop-color="#FFEB6D" stop-opacity="0"/>
<stop offset="1" stop-color="#FFEB6D"/>
</radialGradient>
<radialGradient id="paint11_radial_1230_533" cx="0" cy="0" r="1" gradientUnits="userSpaceOnUse" gradientTransform="translate(16.4062 15.4219) rotate(131.779) scale(7.66876 7.89138)">
<stop stop-color="#FF56A6"/>
<stop offset="1" stop-color="#F02779"/>
</radialGradient>
<linearGradient id="paint12_linear_1230_533" x1="12.5156" y1="22.8281" x2="12.5156" y2="19.9219" gradientUnits="userSpaceOnUse">
<stop stop-color="#E41863"/>
<stop offset="1" stop-color="#E41863" stop-opacity="0"/>
</linearGradient>
<radialGradient id="paint13_radial_1230_533" cx="0" cy="0" r="1" gradientUnits="userSpaceOnUse" gradientTransform="translate(7.3125 18.3281) rotate(15.4456) scale(11.4405 11.717)">
<stop offset="0.903867" stop-color="#F55178" stop-opacity="0"/>
<stop offset="1" stop-color="#F55178"/>
</radialGradient>
<radialGradient id="paint14_radial_1230_533" cx="0" cy="0" r="1" gradientUnits="userSpaceOnUse" gradientTransform="translate(16.1953 13.125) rotate(127.129) scale(7.26101 13.8506)">
<stop offset="0.522193" stop-color="#CB184D"/>
<stop offset="1" stop-color="#AA2743"/>
</radialGradient>
<radialGradient id="paint15_radial_1230_533" cx="0" cy="0" r="1" gradientUnits="userSpaceOnUse" gradientTransform="translate(5.6377 18.8672) rotate(-90) scale(1.23047 0.781953)">
<stop stop-color="#FFB54E"/>
<stop offset="1" stop-color="#FFAF4D"/>
</radialGradient>
</defs>
</svg>
