<svg width="32" height="32" viewBox="0 0 32 32" fill="none" xmlns="http://www.w3.org/2000/svg">
    <g filter="url(#filter0_i_1331_797)">
        <path d="M16 30C23.732 30 30 23.732 30 16C30 8.26801 23.732 2 16 2C8.26801 2 2 8.26801 2 16C2 23.732 8.26801 30 16 30Z" fill="url(#paint0_radial_1331_797)"/>
        <path d="M16 30C23.732 30 30 23.732 30 16C30 8.26801 23.732 2 16 2C8.26801 2 2 8.26801 2 16C2 23.732 8.26801 30 16 30Z" fill="url(#paint1_radial_1331_797)"/>
    </g>
    <g filter="url(#filter1_f_1331_797)">
        <path d="M19.8107 2.68176L18.4289 3.9817C18.2484 4.15153 18.0098 4.2461 17.762 4.2461C17.4388 4.2461 17.1247 4.13886 16.869 3.94119L16.4953 3.65228C16.2887 3.44431 15.9835 3.3055 15.6884 3.3055H14.4293C14.2523 3.3055 13.9705 3.39454 13.7439 3.52344L12.5532 4.18709C12.386 4.26632 12.2876 4.43468 12.2778 4.61295C12.2827 4.8846 12.2827 5.03078 12.2827 5.1859C12.2827 5.34102 12.2827 5.50508 12.2876 5.8125C12.2876 6.11952 12.5925 6.27944 12.8286 6.26954C13.0745 6.24973 13.2712 5.99369 13.2712 5.7461C13.2712 4.75688 13.5427 4.72825 13.7351 4.70797L13.7439 4.70704C14.3298 4.64454 14.3264 5.23876 14.2959 5.8957C14.289 6.0432 14.2821 6.19276 14.2821 6.3362C14.2821 6.91062 13.8984 7.30677 13.3181 7.30677H11.7639C11.4811 7.30071 11.1835 7.17235 10.8915 7.04638C10.7062 6.96643 10.5231 6.88743 10.3474 6.84129C9.93429 6.74226 9.3736 6.71905 9.3736 7.50145V7.80846C9.3736 7.99663 9.24498 8.12593 9.00172 8.21875C8.70484 8.33204 8.38011 8.58435 8.38011 8.95079V10.0732C8.38011 10.4198 8.66537 10.707 9.01948 10.707H9.59001C10.0634 10.707 10.1499 10.1461 10.2102 9.75471C10.2167 9.71221 10.223 9.67171 10.2294 9.63415C10.2294 9.44598 10.3769 9.28752 10.5737 9.28752H11.5278C11.6163 9.28752 12.0688 9.29742 12.4229 9.59453L12.8558 9.93126C13.082 10.159 13.3771 10.2779 13.6919 10.2779H13.8296C14.0558 10.2779 14.2624 10.169 14.3804 9.98078L14.9903 9.06964C15.1083 8.89137 15.3051 8.79233 15.5116 8.79233H15.8756C16.033 8.79233 16.1608 8.92108 16.1608 9.07954V9.54688C16.1608 10.0977 16.7017 10.2779 17.0068 10.2779C17.6265 10.2779 18.138 10.783 18.138 11.4069C18.138 11.7337 17.7839 11.9318 17.4986 11.7635C16.9773 11.4465 16.092 11.1989 15.6493 11.3079C15.2165 11.4069 14.2722 12.2685 14.2722 12.2685C14.2722 12.2685 13.1607 12.526 13.1902 11.9516V11.6743C13.2 11.4069 12.9443 11.2881 12.718 11.2881H11.695C11.3901 11.2881 11.095 11.4069 10.8786 11.6248L10.5638 11.9417C10.3474 12.1596 10.0622 12.2785 9.75723 12.2785H8.71455C8.37027 12.2685 8.03582 12.4072 7.79975 12.6548L6.74723 13.7739C6.45213 14.0908 6.28491 14.5167 6.28491 14.9624V15.6655C6.28491 16.547 7.37677 18.2207 8.25223 18.2207H11.0655C11.9803 18.2207 12.718 18.9635 12.718 19.8845V21.588C12.718 21.9445 13.0131 22.2416 13.3673 22.2416H13.7115C13.9181 22.2416 14.2034 22.3803 14.2034 22.9349V25.0237C14.2034 25.608 14.6755 26.0933 15.2657 26.0933H15.7477C16.033 26.0933 16.2986 25.9843 16.4953 25.7764L17.9388 24.3115C18.1232 24.1244 18.2265 23.8723 18.2265 23.6096V21.8356C18.2364 21.5087 18.5013 21.1211 18.8259 21.1211C19.0263 21.1211 19.2136 21.0219 19.3262 20.8561L21.0398 18.3331C21.1382 18.135 21.1873 17.9171 21.1873 17.6992V17.3427C21.1873 17.1842 21.0595 17.0456 20.9021 17.0258C19.7869 16.793 18.2167 15.9883 18.2167 14.9961V14.6653C18.2167 13.2784 19.3422 13.2787 19.6274 13.2787L19.6332 13.2787C19.9086 13.2787 20.125 13.5065 20.125 13.7739V14.6157C20.125 14.9723 20.5681 15.4102 21.2009 15.1211L22.2087 14.6157C22.7104 14.3582 22.8438 13.8315 22.4587 13.3711C22.0994 12.9414 21.9862 12.2148 22.7478 12.2148H24.1384C25.3962 12.2148 26.086 14.128 26.086 15.3165V15.8513C26.086 16.0197 26.2237 16.1583 26.3909 16.1583H26.7253C26.9417 16.1583 27.1385 16.0494 27.2565 15.8711L29.5031 12.7956C28.3158 7.93452 24.5903 4.06855 19.8107 2.68176Z" fill="url(#paint2_linear_1331_797)"/>
    </g>
    <g filter="url(#filter2_ii_1331_797)">
        <path d="M19.9084 2.55286L18.5265 3.85279C18.346 4.02263 18.1075 4.11719 17.8596 4.11719C17.5364 4.11719 17.2224 4.00995 16.9667 3.81229L16.5929 3.52338C16.3864 3.3154 16.0812 3.1766 15.7861 3.1766H14.527C14.3499 3.1766 14.0681 3.26563 13.8416 3.39454L12.6508 4.05818C12.4836 4.13741 12.3852 4.30577 12.3754 4.48404C12.3803 4.7557 12.3803 4.90187 12.3803 5.05699C12.3803 5.21211 12.3803 5.37618 12.3852 5.6836C12.3852 5.99061 12.6902 6.15053 12.9263 6.14063C13.1722 6.12082 13.3689 5.86479 13.3689 5.61719C13.3689 4.62797 13.6404 4.59934 13.8328 4.57906L13.8416 4.57813C14.4275 4.51563 14.4241 5.10985 14.3935 5.7668C14.3867 5.91429 14.3797 6.06385 14.3797 6.20729C14.3797 6.78171 13.9961 7.17786 13.4157 7.17786H11.8615C11.5787 7.1718 11.2812 7.04344 10.9892 6.91747C10.8039 6.83753 10.6208 6.75853 10.4451 6.71239C10.0319 6.61335 9.47126 6.59014 9.47126 7.37254V7.67956C9.47126 7.86773 9.34264 7.99702 9.09937 8.08985C8.8025 8.20313 8.47776 8.45545 8.47776 8.82189V9.94429C8.47776 10.2909 8.76302 10.5781 9.11714 10.5781H9.68766C10.1611 10.5781 10.2475 10.0172 10.3079 9.6258C10.3144 9.58331 10.3206 9.54281 10.327 9.50524C10.327 9.31707 10.4746 9.15861 10.6713 9.15861H11.6255C11.714 9.15861 12.1665 9.16852 12.5206 9.46563L12.9534 9.80236C13.1797 10.0301 13.4747 10.149 13.7895 10.149H13.9272C14.1535 10.149 14.36 10.04 14.4781 9.85188L15.0879 8.94073C15.206 8.76246 15.4027 8.66343 15.6093 8.66343H15.9732C16.1306 8.66343 16.2585 8.79217 16.2585 8.95063V9.41797C16.2585 9.96875 16.7994 10.149 17.1044 10.149C17.7242 10.149 18.2357 10.6541 18.2357 11.278C18.2357 11.6048 17.8815 11.8029 17.5963 11.6346C17.0749 11.3176 16.1896 11.07 15.747 11.179C15.3142 11.278 14.3699 12.1396 14.3699 12.1396C14.3699 12.1396 13.2583 12.3971 13.2879 11.8227V11.5454C13.2977 11.278 13.0419 11.1592 12.8157 11.1592H11.7927C11.4878 11.1592 11.1927 11.278 10.9763 11.4959L10.6615 11.8128C10.4451 12.0307 10.1598 12.1495 9.85488 12.1495H8.81221C8.46793 12.1396 8.13348 12.2783 7.8974 12.5259L6.84489 13.645C6.54979 13.9619 6.38257 14.3878 6.38257 14.8335V15.5366C6.38257 16.4181 7.47443 18.0918 8.34989 18.0918H11.1631C12.078 18.0918 12.8157 18.8346 12.8157 19.7556V21.4591C12.8157 21.8156 13.1108 22.1127 13.4649 22.1127H13.8092C14.0158 22.1127 14.301 22.2514 14.301 22.806V24.8948C14.301 25.4791 14.7732 25.9644 15.3634 25.9644H15.8454C16.1306 25.9644 16.3962 25.8554 16.5929 25.6475L18.0365 24.1826C18.2208 23.9955 18.3242 23.7434 18.3242 23.4807V21.7067C18.334 21.3798 18.599 20.9922 18.9236 20.9922C19.1239 20.9922 19.3113 20.893 19.4239 20.7272L21.1375 18.2042C21.2358 18.0061 21.285 17.7882 21.285 17.5703V17.2138C21.285 17.0553 21.1571 16.9167 20.9997 16.8969C19.8845 16.6641 18.3143 15.8594 18.3143 14.8672V14.5364C18.3143 13.1495 19.4398 13.1498 19.725 13.1498L19.7308 13.1498C20.0062 13.1498 20.2226 13.3776 20.2226 13.645V14.4868C20.2226 14.8434 20.6658 15.2813 21.2986 14.9922L22.3064 14.4868C22.8081 14.2293 22.9414 13.7026 22.5564 13.2422C22.197 12.8125 22.0839 12.0859 22.8455 12.0859H24.2361C25.4939 12.0859 26.1836 13.9991 26.1836 15.1876V15.7224C26.1836 15.8907 26.3213 16.0294 26.4886 16.0294H26.823C27.0394 16.0294 27.2361 15.9205 27.3542 15.7422L29.6007 12.6667C28.4134 7.80562 24.688 3.93965 19.9084 2.55286Z" fill="url(#paint3_radial_1331_797)"/>
    </g>
    <g filter="url(#filter3_f_1331_797)">
        <rect x="21.1719" y="21.1016" width="0.929688" height="1.90625" rx="0.464844" fill="#1C51A0"/>
    </g>
    <g filter="url(#filter4_ii_1331_797)">
        <rect x="21.25" y="21.0312" width="0.984375" height="1.91406" rx="0.492188" fill="url(#paint4_linear_1331_797)"/>
    </g>
    <defs>
        <filter id="filter0_i_1331_797" x="2" y="1.75" width="28.25" height="28.25" filterUnits="userSpaceOnUse" color-interpolation-filters="sRGB">
            <feFlood flood-opacity="0" result="BackgroundImageFix"/>
            <feBlend mode="normal" in="SourceGraphic" in2="BackgroundImageFix" result="shape"/>
            <feColorMatrix in="SourceAlpha" type="matrix" values="0 0 0 0 0 0 0 0 0 0 0 0 0 0 0 0 0 0 127 0" result="hardAlpha"/>
            <feOffset dx="0.25" dy="-0.25"/>
            <feGaussianBlur stdDeviation="1"/>
            <feComposite in2="hardAlpha" operator="arithmetic" k2="-1" k3="1"/>
            <feColorMatrix type="matrix" values="0 0 0 0 0.388235 0 0 0 0 0.537255 0 0 0 0 0.694118 0 0 0 1 0"/>
            <feBlend mode="normal" in2="shape" result="effect1_innerShadow_1331_797"/>
        </filter>
        <filter id="filter1_f_1331_797" x="6.18491" y="2.58176" width="23.4183" height="23.6115" filterUnits="userSpaceOnUse" color-interpolation-filters="sRGB">
            <feFlood flood-opacity="0" result="BackgroundImageFix"/>
            <feBlend mode="normal" in="SourceGraphic" in2="BackgroundImageFix" result="shape"/>
            <feGaussianBlur stdDeviation="0.05" result="effect1_foregroundBlur_1331_797"/>
        </filter>
        <filter id="filter2_ii_1331_797" x="6.28257" y="2.45286" width="23.4183" height="23.5115" filterUnits="userSpaceOnUse" color-interpolation-filters="sRGB">
            <feFlood flood-opacity="0" result="BackgroundImageFix"/>
            <feBlend mode="normal" in="SourceGraphic" in2="BackgroundImageFix" result="shape"/>
            <feColorMatrix in="SourceAlpha" type="matrix" values="0 0 0 0 0 0 0 0 0 0 0 0 0 0 0 0 0 0 127 0" result="hardAlpha"/>
            <feOffset dx="-0.1" dy="-0.1"/>
            <feGaussianBlur stdDeviation="0.05"/>
            <feComposite in2="hardAlpha" operator="arithmetic" k2="-1" k3="1"/>
            <feColorMatrix type="matrix" values="0 0 0 0 0.403922 0 0 0 0 0.929412 0 0 0 0 0.690196 0 0 0 1 0"/>
            <feBlend mode="normal" in2="shape" result="effect1_innerShadow_1331_797"/>
            <feColorMatrix in="SourceAlpha" type="matrix" values="0 0 0 0 0 0 0 0 0 0 0 0 0 0 0 0 0 0 127 0" result="hardAlpha"/>
            <feOffset dx="0.1" dy="-0.1"/>
            <feGaussianBlur stdDeviation="0.05"/>
            <feComposite in2="hardAlpha" operator="arithmetic" k2="-1" k3="1"/>
            <feColorMatrix type="matrix" values="0 0 0 0 0.203922 0 0 0 0 0.592157 0 0 0 0 0.482353 0 0 0 1 0"/>
            <feBlend mode="normal" in2="effect1_innerShadow_1331_797" result="effect2_innerShadow_1331_797"/>
        </filter>
        <filter id="filter3_f_1331_797" x="20.9719" y="20.9016" width="1.32969" height="2.30625" filterUnits="userSpaceOnUse" color-interpolation-filters="sRGB">
            <feFlood flood-opacity="0" result="BackgroundImageFix"/>
            <feBlend mode="normal" in="SourceGraphic" in2="BackgroundImageFix" result="shape"/>
            <feGaussianBlur stdDeviation="0.1" result="effect1_foregroundBlur_1331_797"/>
        </filter>
        <filter id="filter4_ii_1331_797" x="21.2" y="20.9812" width="1.08438" height="2.01406" filterUnits="userSpaceOnUse" color-interpolation-filters="sRGB">
            <feFlood flood-opacity="0" result="BackgroundImageFix"/>
            <feBlend mode="normal" in="SourceGraphic" in2="BackgroundImageFix" result="shape"/>
            <feColorMatrix in="SourceAlpha" type="matrix" values="0 0 0 0 0 0 0 0 0 0 0 0 0 0 0 0 0 0 127 0" result="hardAlpha"/>
            <feOffset dx="-0.05" dy="0.05"/>
            <feGaussianBlur stdDeviation="0.05"/>
            <feComposite in2="hardAlpha" operator="arithmetic" k2="-1" k3="1"/>
            <feColorMatrix type="matrix" values="0 0 0 0 0.423529 0 0 0 0 0.960784 0 0 0 0 0.721569 0 0 0 1 0"/>
            <feBlend mode="normal" in2="shape" result="effect1_innerShadow_1331_797"/>
            <feColorMatrix in="SourceAlpha" type="matrix" values="0 0 0 0 0 0 0 0 0 0 0 0 0 0 0 0 0 0 127 0" result="hardAlpha"/>
            <feOffset dx="0.05" dy="-0.05"/>
            <feGaussianBlur stdDeviation="0.1"/>
            <feComposite in2="hardAlpha" operator="arithmetic" k2="-1" k3="1"/>
            <feColorMatrix type="matrix" values="0 0 0 0 0.254902 0 0 0 0 0.568627 0 0 0 0 0.513726 0 0 0 1 0"/>
            <feBlend mode="normal" in2="effect1_innerShadow_1331_797" result="effect2_innerShadow_1331_797"/>
        </filter>
        <radialGradient id="paint0_radial_1331_797" cx="0" cy="0" r="1" gradientUnits="userSpaceOnUse" gradientTransform="translate(22.7559 11.6181) rotate(122.072) scale(21.1401 23.9585)">
            <stop stop-color="#63D8FF"/>
            <stop offset="1" stop-color="#3488EF"/>
        </radialGradient>
        <radialGradient id="paint1_radial_1331_797" cx="0" cy="0" r="1" gradientUnits="userSpaceOnUse" gradientTransform="translate(25.7544 9.61918) rotate(137.749) scale(26.0707 34.5063)">
            <stop offset="0.495708" stop-color="#465DC2" stop-opacity="0"/>
            <stop offset="1" stop-color="#465DC2"/>
        </radialGradient>
        <linearGradient id="paint2_linear_1331_797" x1="19.2304" y1="6.15235" x2="11.4179" y2="21.1523" gradientUnits="userSpaceOnUse">
            <stop stop-color="#40B9F0"/>
            <stop offset="1" stop-color="#305CBD"/>
        </linearGradient>
        <radialGradient id="paint3_radial_1331_797" cx="0" cy="0" r="1" gradientUnits="userSpaceOnUse" gradientTransform="translate(24.2167 8.54283) rotate(133.768) scale(20.2284 18.6634)">
            <stop offset="0.291562" stop-color="#78FFB5"/>
            <stop offset="1" stop-color="#409A79"/>
        </radialGradient>
        <linearGradient id="paint4_linear_1331_797" x1="21.25" y1="21.9883" x2="22.4484" y2="21.9883" gradientUnits="userSpaceOnUse">
            <stop stop-color="#55CC9B"/>
            <stop offset="1" stop-color="#53C999"/>
        </linearGradient>
    </defs>
</svg>
