<svg width="24" height="24" viewBox="0 0 24 24" fill="none" xmlns="http://www.w3.org/2000/svg">
<g filter="url(#filter0_i_1230_786)">
<path d="M12 22.5C17.799 22.5 22.5 17.799 22.5 12C22.5 6.20101 17.799 1.5 12 1.5C6.20101 1.5 1.5 6.20101 1.5 12C1.5 17.799 6.20101 22.5 12 22.5Z" fill="url(#paint0_radial_1230_786)"/>
<path d="M12 22.5C17.799 22.5 22.5 17.799 22.5 12C22.5 6.20101 17.799 1.5 12 1.5C6.20101 1.5 1.5 6.20101 1.5 12C1.5 17.799 6.20101 22.5 12 22.5Z" fill="url(#paint1_radial_1230_786)"/>
</g>
<g filter="url(#filter1_f_1230_786)">
<path d="M14.858 2.01132L13.8216 2.98627C13.6862 3.11365 13.5073 3.18457 13.3214 3.18457C13.079 3.18457 12.8435 3.10414 12.6517 2.9559L12.3714 2.73921C12.2165 2.58323 11.9876 2.47913 11.7662 2.47913H10.8219C10.6891 2.47913 10.4778 2.5459 10.3079 2.64258L9.41482 3.14032C9.2894 3.19974 9.21563 3.32601 9.20825 3.45971C9.21194 3.66345 9.21194 3.77308 9.21194 3.88942C9.21194 4.00577 9.21194 4.12881 9.21563 4.35938C9.21563 4.58964 9.44433 4.70958 9.62139 4.70215C9.80583 4.6873 9.95337 4.49527 9.95337 4.30957C9.95337 3.56766 10.157 3.54619 10.3013 3.53097L10.3079 3.53028C10.7473 3.4834 10.7447 3.92907 10.7218 4.42178C10.7167 4.5324 10.7115 4.64457 10.7115 4.75215C10.7115 5.18296 10.4238 5.48008 9.98849 5.48008H8.82286C8.61075 5.47553 8.38759 5.37926 8.1686 5.28479C8.0296 5.22482 7.89227 5.16558 7.76051 5.13097C7.45065 5.05669 7.03014 5.03929 7.03014 5.62608V5.85635C7.03014 5.99748 6.93367 6.09445 6.75123 6.16407C6.52857 6.24903 6.28502 6.43826 6.28502 6.71309V7.5549C6.28502 7.81487 6.49896 8.03028 6.76455 8.03028H7.19244C7.54748 8.03028 7.61234 7.60957 7.65758 7.31603C7.6625 7.28416 7.66718 7.25379 7.67198 7.22561C7.67198 7.08448 7.78264 6.96564 7.93019 6.96564H8.6458C8.7122 6.96564 9.05156 6.97307 9.31715 7.1959L9.64175 7.44845C9.81144 7.61929 10.0328 7.70842 10.2688 7.70842H10.3721C10.5418 7.70842 10.6967 7.62671 10.7853 7.48559L11.2427 6.80223C11.3312 6.66853 11.4787 6.59425 11.6337 6.59425H11.9066C12.0247 6.59425 12.1206 6.69081 12.1206 6.80966V7.16016C12.1206 7.57325 12.5262 7.70842 12.755 7.70842C13.2198 7.70842 13.6034 8.08724 13.6034 8.55519C13.6034 8.80031 13.3379 8.94887 13.1239 8.82259C12.7329 8.5849 12.0689 8.39921 11.7369 8.48091C11.4123 8.55519 10.7041 9.20141 10.7041 9.20141C10.7041 9.20141 9.87046 9.39454 9.89259 8.96372V8.75574C9.89997 8.55519 9.70815 8.46606 9.53847 8.46606H8.77122C8.54252 8.46606 8.32119 8.55519 8.15889 8.7186L7.92281 8.95629C7.76051 9.11971 7.54656 9.20884 7.31786 9.20884H6.53585C6.27764 9.20141 6.02681 9.3054 5.84975 9.4911L5.06036 10.3304C4.83904 10.5681 4.71362 10.8875 4.71362 11.2218V11.7492C4.71362 12.4102 5.53252 13.6655 6.18911 13.6655H8.29906C8.98516 13.6655 9.53847 14.2226 9.53847 14.9134V16.191C9.53847 16.4584 9.75979 16.6812 10.0254 16.6812H10.2836C10.4385 16.6812 10.6525 16.7852 10.6525 17.2012V18.7678C10.6525 19.206 11.0066 19.57 11.4492 19.57H11.8107C12.0247 19.57 12.2239 19.4883 12.3714 19.3323L13.454 18.2336C13.5923 18.0933 13.6698 17.9042 13.6698 17.7072V16.3767C13.6772 16.1316 13.8759 15.8408 14.1194 15.8408C14.2697 15.8408 14.4102 15.7664 14.4946 15.6421L15.7798 13.7498C15.8536 13.6012 15.8904 13.4378 15.8904 13.2744V13.007C15.8904 12.8882 15.7945 12.7842 15.6765 12.7693C14.8401 12.5947 13.6625 11.9912 13.6625 11.2471V10.9989C13.6625 9.95879 14.5066 9.959 14.7205 9.95905L14.7248 9.95905C14.9314 9.95905 15.0937 10.1299 15.0937 10.3304V10.9618C15.0937 11.2292 15.426 11.5576 15.9006 11.3408L16.6565 10.9618C17.0328 10.7687 17.1328 10.3736 16.844 10.0283C16.5745 9.70606 16.4896 9.16114 17.0608 9.16114H18.1038C19.0471 9.16114 19.5644 10.596 19.5644 11.4874V11.8885C19.5644 12.0147 19.6677 12.1187 19.7931 12.1187H20.0439C20.2062 12.1187 20.3538 12.037 20.4423 11.9033L22.1272 9.59672C21.2368 5.95089 18.4427 3.05141 14.858 2.01132Z" fill="url(#paint2_linear_1230_786)"/>
</g>
<g filter="url(#filter2_ii_1230_786)">
<path d="M14.9312 1.91464L13.8948 2.88959C13.7594 3.01697 13.5806 3.08789 13.3947 3.08789C13.1523 3.08789 12.9167 3.00747 12.7249 2.85922L12.4446 2.64253C12.2897 2.48655 12.0608 2.38245 11.8395 2.38245H10.8952C10.7624 2.38245 10.551 2.44922 10.3811 2.5459L9.48806 3.04364C9.36265 3.10306 9.28887 3.22933 9.2815 3.36303C9.28518 3.56677 9.28518 3.67641 9.28518 3.79275C9.28518 3.90909 9.28518 4.03213 9.28887 4.2627C9.28887 4.49296 9.51757 4.6129 9.69463 4.60547C9.87907 4.59062 10.0266 4.39859 10.0266 4.21289C10.0266 3.47098 10.2302 3.44951 10.3745 3.43429L10.3811 3.4336C10.8206 3.38672 10.818 3.83239 10.7951 4.3251C10.7899 4.43572 10.7847 4.54789 10.7847 4.65547C10.7847 5.08628 10.497 5.3834 10.0617 5.3834H8.8961C8.68399 5.37885 8.46084 5.28258 8.24184 5.18811C8.10284 5.12814 7.96551 5.0689 7.83375 5.03429C7.5239 4.96001 7.10338 4.94261 7.10338 5.5294V5.75967C7.10338 5.9008 7.00692 5.99777 6.82447 6.06739C6.60181 6.15235 6.35826 6.34159 6.35826 6.61641V7.45822C6.35826 7.71819 6.57221 7.9336 6.83779 7.9336H7.26569C7.62073 7.9336 7.68558 7.51289 7.73083 7.21935C7.73574 7.18748 7.74042 7.15711 7.74522 7.12893C7.74522 6.9878 7.85588 6.86896 8.00343 6.86896H8.71904C8.78544 6.86896 9.1248 6.87639 9.39039 7.09922L9.715 7.35177C9.88468 7.52261 10.106 7.61174 10.3421 7.61174H10.4454C10.615 7.61174 10.77 7.53004 10.8585 7.38891L11.3159 6.70555C11.4044 6.57185 11.552 6.49757 11.7069 6.49757H11.9799C12.0979 6.49757 12.1938 6.59413 12.1938 6.71298V7.06348C12.1938 7.47657 12.5995 7.61174 12.8283 7.61174C13.2931 7.61174 13.6767 7.99056 13.6767 8.45851C13.6767 8.70363 13.4111 8.85219 13.1971 8.72591C12.8061 8.48822 12.1422 8.30253 11.8102 8.38423C11.4856 8.45851 10.7773 9.10473 10.7773 9.10473C10.7773 9.10473 9.9437 9.29786 9.96583 8.86704V8.65906C9.97321 8.45851 9.78139 8.36938 9.61171 8.36938H8.84446C8.61576 8.36938 8.39443 8.45851 8.23213 8.62192L7.99605 8.85961C7.83375 9.02303 7.6198 9.11216 7.3911 9.11216H6.60909C6.35088 9.10473 6.10005 9.20872 5.92299 9.39442L5.13361 10.2338C4.91228 10.4715 4.78687 10.7908 4.78687 11.1251V11.6525C4.78687 12.3135 5.60576 13.5688 6.26235 13.5688H8.3723C9.0584 13.5688 9.61171 14.1259 9.61171 14.8167V16.0943C9.61171 16.3617 9.83303 16.5845 10.0986 16.5845H10.3568C10.5118 16.5845 10.7257 16.6885 10.7257 17.1045V18.6711C10.7257 19.1093 11.0798 19.4733 11.5225 19.4733H11.884C12.0979 19.4733 12.2971 19.3916 12.4446 19.2356L13.5273 18.137C13.6656 17.9966 13.7431 17.8075 13.7431 17.6105V16.28C13.7505 16.0349 13.9492 15.7441 14.1926 15.7441C14.3429 15.7441 14.4834 15.6697 14.5678 15.5454L15.853 13.6531C15.9268 13.5046 15.9637 13.3411 15.9637 13.1777V12.9103C15.9637 12.7915 15.8678 12.6875 15.7497 12.6726C14.9133 12.4981 13.7357 11.8945 13.7357 11.1504V10.9023C13.7357 9.86211 14.5798 9.86232 14.7937 9.86237L14.7981 9.86237C15.0046 9.86237 15.1669 10.0332 15.1669 10.2338V10.8651C15.1669 11.1325 15.4993 11.4609 15.9739 11.2441L16.7297 10.8651C17.106 10.672 17.206 10.2769 16.9172 9.93164C16.6477 9.60938 16.5628 9.06446 17.134 9.06446H18.177C19.1204 9.06446 19.6377 10.4993 19.6377 11.3907V11.7918C19.6377 11.9181 19.7409 12.0221 19.8664 12.0221H20.1172C20.2795 12.0221 20.427 11.9403 20.5156 11.8066L22.2005 9.50004C21.31 5.85421 18.5159 2.95474 14.9312 1.91464Z" fill="url(#paint3_radial_1230_786)"/>
</g>
<g filter="url(#filter3_f_1230_786)">
<rect x="15.8789" y="15.8262" width="0.697266" height="1.42969" rx="0.348633" fill="#1C51A0"/>
</g>
<g filter="url(#filter4_ii_1230_786)">
<rect x="15.9375" y="15.7734" width="0.738281" height="1.43555" rx="0.369141" fill="url(#paint4_linear_1230_786)"/>
</g>
<defs>
<filter id="filter0_i_1230_786" x="1.5" y="1.25" width="21.25" height="21.25" filterUnits="userSpaceOnUse" color-interpolation-filters="sRGB">
<feFlood flood-opacity="0" result="BackgroundImageFix"/>
<feBlend mode="normal" in="SourceGraphic" in2="BackgroundImageFix" result="shape"/>
<feColorMatrix in="SourceAlpha" type="matrix" values="0 0 0 0 0 0 0 0 0 0 0 0 0 0 0 0 0 0 127 0" result="hardAlpha"/>
<feOffset dx="0.25" dy="-0.25"/>
<feGaussianBlur stdDeviation="1"/>
<feComposite in2="hardAlpha" operator="arithmetic" k2="-1" k3="1"/>
<feColorMatrix type="matrix" values="0 0 0 0 0.388235 0 0 0 0 0.537255 0 0 0 0 0.694118 0 0 0 1 0"/>
<feBlend mode="normal" in2="shape" result="effect1_innerShadow_1230_786"/>
</filter>
<filter id="filter1_f_1230_786" x="4.61362" y="1.91132" width="17.6136" height="17.7587" filterUnits="userSpaceOnUse" color-interpolation-filters="sRGB">
<feFlood flood-opacity="0" result="BackgroundImageFix"/>
<feBlend mode="normal" in="SourceGraphic" in2="BackgroundImageFix" result="shape"/>
<feGaussianBlur stdDeviation="0.05" result="effect1_foregroundBlur_1230_786"/>
</filter>
<filter id="filter2_ii_1230_786" x="4.68687" y="1.81464" width="17.6136" height="17.6587" filterUnits="userSpaceOnUse" color-interpolation-filters="sRGB">
<feFlood flood-opacity="0" result="BackgroundImageFix"/>
<feBlend mode="normal" in="SourceGraphic" in2="BackgroundImageFix" result="shape"/>
<feColorMatrix in="SourceAlpha" type="matrix" values="0 0 0 0 0 0 0 0 0 0 0 0 0 0 0 0 0 0 127 0" result="hardAlpha"/>
<feOffset dx="-0.1" dy="-0.1"/>
<feGaussianBlur stdDeviation="0.05"/>
<feComposite in2="hardAlpha" operator="arithmetic" k2="-1" k3="1"/>
<feColorMatrix type="matrix" values="0 0 0 0 0.403922 0 0 0 0 0.929412 0 0 0 0 0.690196 0 0 0 1 0"/>
<feBlend mode="normal" in2="shape" result="effect1_innerShadow_1230_786"/>
<feColorMatrix in="SourceAlpha" type="matrix" values="0 0 0 0 0 0 0 0 0 0 0 0 0 0 0 0 0 0 127 0" result="hardAlpha"/>
<feOffset dx="0.1" dy="-0.1"/>
<feGaussianBlur stdDeviation="0.05"/>
<feComposite in2="hardAlpha" operator="arithmetic" k2="-1" k3="1"/>
<feColorMatrix type="matrix" values="0 0 0 0 0.203922 0 0 0 0 0.592157 0 0 0 0 0.482353 0 0 0 1 0"/>
<feBlend mode="normal" in2="effect1_innerShadow_1230_786" result="effect2_innerShadow_1230_786"/>
</filter>
<filter id="filter3_f_1230_786" x="15.6789" y="15.6262" width="1.09727" height="1.82969" filterUnits="userSpaceOnUse" color-interpolation-filters="sRGB">
<feFlood flood-opacity="0" result="BackgroundImageFix"/>
<feBlend mode="normal" in="SourceGraphic" in2="BackgroundImageFix" result="shape"/>
<feGaussianBlur stdDeviation="0.1" result="effect1_foregroundBlur_1230_786"/>
</filter>
<filter id="filter4_ii_1230_786" x="15.8875" y="15.7234" width="0.838281" height="1.53555" filterUnits="userSpaceOnUse" color-interpolation-filters="sRGB">
<feFlood flood-opacity="0" result="BackgroundImageFix"/>
<feBlend mode="normal" in="SourceGraphic" in2="BackgroundImageFix" result="shape"/>
<feColorMatrix in="SourceAlpha" type="matrix" values="0 0 0 0 0 0 0 0 0 0 0 0 0 0 0 0 0 0 127 0" result="hardAlpha"/>
<feOffset dx="-0.05" dy="0.05"/>
<feGaussianBlur stdDeviation="0.05"/>
<feComposite in2="hardAlpha" operator="arithmetic" k2="-1" k3="1"/>
<feColorMatrix type="matrix" values="0 0 0 0 0.423529 0 0 0 0 0.960784 0 0 0 0 0.721569 0 0 0 1 0"/>
<feBlend mode="normal" in2="shape" result="effect1_innerShadow_1230_786"/>
<feColorMatrix in="SourceAlpha" type="matrix" values="0 0 0 0 0 0 0 0 0 0 0 0 0 0 0 0 0 0 127 0" result="hardAlpha"/>
<feOffset dx="0.05" dy="-0.05"/>
<feGaussianBlur stdDeviation="0.1"/>
<feComposite in2="hardAlpha" operator="arithmetic" k2="-1" k3="1"/>
<feColorMatrix type="matrix" values="0 0 0 0 0.254902 0 0 0 0 0.568627 0 0 0 0 0.513726 0 0 0 1 0"/>
<feBlend mode="normal" in2="effect1_innerShadow_1230_786" result="effect2_innerShadow_1230_786"/>
</filter>
<radialGradient id="paint0_radial_1230_786" cx="0" cy="0" r="1" gradientUnits="userSpaceOnUse" gradientTransform="translate(17.067 8.71361) rotate(122.072) scale(15.8551 17.9689)">
<stop stop-color="#63D8FF"/>
<stop offset="1" stop-color="#3488EF"/>
</radialGradient>
<radialGradient id="paint1_radial_1230_786" cx="0" cy="0" r="1" gradientUnits="userSpaceOnUse" gradientTransform="translate(19.3158 7.21439) rotate(137.749) scale(19.553 25.8797)">
<stop offset="0.495708" stop-color="#465DC2" stop-opacity="0"/>
<stop offset="1" stop-color="#465DC2"/>
</radialGradient>
<linearGradient id="paint2_linear_1230_786" x1="14.4228" y1="4.61426" x2="8.56339" y2="15.8643" gradientUnits="userSpaceOnUse">
<stop stop-color="#40B9F0"/>
<stop offset="1" stop-color="#305CBD"/>
</linearGradient>
<radialGradient id="paint3_radial_1230_786" cx="0" cy="0" r="1" gradientUnits="userSpaceOnUse" gradientTransform="translate(18.1625 6.40712) rotate(133.768) scale(15.1713 13.9976)">
<stop offset="0.291562" stop-color="#78FFB5"/>
<stop offset="1" stop-color="#409A79"/>
</radialGradient>
<linearGradient id="paint4_linear_1230_786" x1="15.9375" y1="16.4912" x2="16.8363" y2="16.4912" gradientUnits="userSpaceOnUse">
<stop stop-color="#55CC9B"/>
<stop offset="1" stop-color="#53C999"/>
</linearGradient>
</defs>
</svg>
