<svg width="24" height="24" viewBox="0 0 24 24" fill="none" xmlns="http://www.w3.org/2000/svg">
<path d="M17.2645 6.73682H6.73828V17.2631H17.2645V6.73682Z" fill="white"/>
<path d="M17.2623 22.0001L21.9992 17.2632L19.6308 16.8591L17.2623 17.2632L16.8301 19.4296L17.2623 22.0001Z" fill="#EA4335"/>
<path d="M2 17.2632V20.4211C2 21.2935 2.70656 22.0001 3.57891 22.0001H6.73688L7.2232 19.6316L6.73688 17.2632L4.15617 16.8591L2 17.2632Z" fill="#188038"/>
<path d="M21.9992 6.73688V3.57891C21.9992 2.70656 21.2927 2 20.4203 2H17.2623C16.9742 3.17469 16.8301 4.03914 16.8301 4.59344C16.8301 5.14766 16.9742 5.86219 17.2623 6.73688C18.31 7.03688 19.0995 7.18688 19.6308 7.18688C20.1621 7.18688 20.9516 7.03688 21.9992 6.73688Z" fill="#1967D2"/>
<path d="M21.9986 6.73682H17.2617V17.2631H21.9986V6.73682Z" fill="#FBBC04"/>
<path d="M17.2645 17.2632H6.73828V22.0001H17.2645V17.2632Z" fill="#34A853"/>
<path d="M17.2631 2H3.57898C2.70656 2 2 2.70656 2 3.57891V17.2631H6.73687V6.73687H17.2631V2Z" fill="#4285F4"/>
<path d="M8.89559 14.9027C8.50215 14.6369 8.22973 14.2488 8.08105 13.7355L8.99426 13.3592C9.07707 13.675 9.22184 13.9198 9.42848 14.0934C9.63371 14.2671 9.88371 14.3527 10.1758 14.3527C10.4745 14.3527 10.7311 14.2619 10.9455 14.0802C11.16 13.8987 11.2679 13.6671 11.2679 13.3869C11.2679 13.1 11.1547 12.8658 10.9285 12.6842C10.7021 12.5027 10.4179 12.4119 10.0785 12.4119H9.55082V11.508H10.0245C10.3166 11.508 10.5626 11.429 10.7626 11.271C10.9626 11.1132 11.0626 10.8974 11.0626 10.6224C11.0626 10.3777 10.9732 10.1829 10.7943 10.0369C10.6154 9.89079 10.3889 9.81712 10.1139 9.81712C9.84551 9.81712 9.63238 9.88821 9.47449 10.0316C9.31669 10.1754 9.19805 10.357 9.12973 10.5592L8.22582 10.1829C8.34551 9.84345 8.56527 9.54345 8.88762 9.28423C9.21004 9.02501 9.62184 8.89478 10.1218 8.89478C10.4916 8.89478 10.8245 8.96587 11.1193 9.10923C11.4139 9.25267 11.6455 9.45134 11.8126 9.70399C11.9798 9.9579 12.0626 10.2421 12.0626 10.5579C12.0626 10.8802 11.985 11.1527 11.8298 11.3763C11.6745 11.6 11.4837 11.771 11.2574 11.8908V11.9447C11.5496 12.0652 11.8035 12.2631 11.9916 12.5171C12.1824 12.7737 12.2785 13.0802 12.2785 13.4382C12.2785 13.796 12.1876 14.1158 12.0061 14.396C11.8245 14.6763 11.5732 14.8974 11.2547 15.0579C10.935 15.2184 10.5758 15.3001 10.1771 15.3001C9.71527 15.3013 9.28894 15.1684 8.89551 14.9027H8.89559ZM14.5047 10.371L13.5021 11.096L13.0008 10.3356L14.7995 9.03813H15.4889V15.1579H14.5047V10.3711V10.371Z" fill="#4285F4"/>
</svg>
