<svg width="24" height="24" viewBox="0 0 24 24" fill="none" xmlns="http://www.w3.org/2000/svg">
    <g filter="url(#filter0_i_942_28061)">
        <path d="M2.68359 5.68359C2.16582 5.68359 1.74609 6.10332 1.74609 6.62109V18.9141C1.74609 19.4318 2.16582 19.8516 2.68359 19.8516H10.9369C11.1757 20.2797 11.6331 20.5693 12.1582 20.5693C12.6833 20.5693 13.1407 20.2797 13.3795 19.8516H21.6328C22.1506 19.8516 22.5703 19.4318 22.5703 18.9141V6.62109C22.5703 6.10332 22.1506 5.68359 21.6328 5.68359H2.68359Z" fill="#3E6ACA"/>
    </g>
    <g filter="url(#filter1_ii_942_28061)">
        <path d="M2.68359 4.95703C2.16582 4.95703 1.74609 5.37675 1.74609 5.89453V18.1875C1.74609 18.7053 2.16582 19.125 2.68359 19.125H10.9369C11.1757 19.5532 11.6331 19.8428 12.1582 19.8428C12.6833 19.8428 13.1407 19.5532 13.3795 19.125H21.6328C22.1506 19.125 22.5703 18.7053 22.5703 18.1875V5.89453C22.5703 5.37675 22.1506 4.95703 21.6328 4.95703H2.68359Z" fill="url(#paint0_linear_942_28061)"/>
    </g>
    <g filter="url(#filter2_f_942_28061)">
        <path d="M3.60777 4.23047L2.43356 5.68671C2.32983 5.81537 2.27344 5.97421 2.27344 6.13779V16.8585C2.27344 17.3627 2.69316 17.7715 3.21094 17.7715H20.7891C21.3068 17.7715 21.7266 17.3627 21.7266 16.8585V6.13779C21.7266 5.97421 21.6702 5.81537 21.5664 5.68671L20.3922 4.23047L19.0111 15.2151H4.98891L3.60777 4.23047Z" fill="#3F9BEA"/>
    </g>
    <path d="M11.0801 16.6875H13.2363V17.8711C13.2363 18.4665 12.7536 18.9492 12.1582 18.9492C11.5628 18.9492 11.0801 18.4665 11.0801 17.8711V16.6875Z" fill="url(#paint1_radial_942_28061)"/>
    <path d="M11.0801 16.6875H13.2363V17.8711C13.2363 18.4665 12.7536 18.9492 12.1582 18.9492C11.5628 18.9492 11.0801 18.4665 11.0801 17.8711V16.6875Z" fill="url(#paint2_linear_942_28061)"/>
    <g filter="url(#filter3_i_942_28061)">
        <path d="M2.56833 5.25116L3.74253 3.75586L5.12368 15.0352H12.1348V17.6602H3.3457C2.82794 17.6602 2.4082 17.2404 2.4082 16.7227V5.71436C2.4082 5.54638 2.46459 5.38327 2.56833 5.25116Z" fill="url(#paint3_linear_942_28061)"/>
    </g>
    <g filter="url(#filter4_i_942_28061)">
        <path d="M21.7012 5.25116L20.527 3.75586L19.1458 15.0352H12.1348V17.6602H20.9238C21.4416 17.6602 21.8613 17.2404 21.8613 16.7227V5.71436C21.8613 5.54638 21.8049 5.38327 21.7012 5.25116Z" fill="url(#paint4_linear_942_28061)"/>
        <path d="M21.7012 5.25116L20.527 3.75586L19.1458 15.0352H12.1348V17.6602H20.9238C21.4416 17.6602 21.8613 17.2404 21.8613 16.7227V5.71436C21.8613 5.54638 21.8049 5.38327 21.7012 5.25116Z" fill="url(#paint5_linear_942_28061)"/>
    </g>
    <path d="M21.7012 5.25116L20.527 3.75586L19.1458 15.0352H12.1348V17.6602H20.9238C21.4416 17.6602 21.8613 17.2404 21.8613 16.7227V5.71436C21.8613 5.54638 21.8049 5.38327 21.7012 5.25116Z" fill="url(#paint6_linear_942_28061)"/>
    <g filter="url(#filter5_ii_942_28061)">
        <path d="M3.60352 4.18359C3.60352 3.76938 3.9393 3.43359 4.35352 3.43359H10.2598C11.2953 3.43359 12.1348 4.27306 12.1348 5.30859V17.6543C12.1348 16.8291 11.2852 16.1602 10.3008 16.1602H4.54102C4.02325 16.1602 3.60352 15.7404 3.60352 15.2227V4.18359Z" fill="url(#paint7_linear_942_28061)"/>
        <path d="M3.60352 4.18359C3.60352 3.76938 3.9393 3.43359 4.35352 3.43359H10.2598C11.2953 3.43359 12.1348 4.27306 12.1348 5.30859V17.6543C12.1348 16.8291 11.2852 16.1602 10.3008 16.1602H4.54102C4.02325 16.1602 3.60352 15.7404 3.60352 15.2227V4.18359Z" fill="url(#paint8_linear_942_28061)"/>
        <path d="M3.60352 4.18359C3.60352 3.76938 3.9393 3.43359 4.35352 3.43359H10.2598C11.2953 3.43359 12.1348 4.27306 12.1348 5.30859V17.6543C12.1348 16.8291 11.2852 16.1602 10.3008 16.1602H4.54102C4.02325 16.1602 3.60352 15.7404 3.60352 15.2227V4.18359Z" fill="url(#paint9_linear_942_28061)"/>
    </g>
    <g filter="url(#filter6_ii_942_28061)">
        <path d="M20.666 4.18359C20.666 3.76938 20.3302 3.43359 19.916 3.43359H14.0098C12.9742 3.43359 12.1348 4.27306 12.1348 5.30859V17.6543C12.1348 16.8291 12.9844 16.1602 13.9688 16.1602H19.7285C20.2463 16.1602 20.666 15.7404 20.666 15.2227V4.18359Z" fill="url(#paint10_linear_942_28061)"/>
        <path d="M20.666 4.18359C20.666 3.76938 20.3302 3.43359 19.916 3.43359H14.0098C12.9742 3.43359 12.1348 4.27306 12.1348 5.30859V17.6543C12.1348 16.8291 12.9844 16.1602 13.9688 16.1602H19.7285C20.2463 16.1602 20.666 15.7404 20.666 15.2227V4.18359Z" fill="url(#paint11_linear_942_28061)"/>
        <path d="M20.666 4.18359C20.666 3.76938 20.3302 3.43359 19.916 3.43359H14.0098C12.9742 3.43359 12.1348 4.27306 12.1348 5.30859V17.6543C12.1348 16.8291 12.9844 16.1602 13.9688 16.1602H19.7285C20.2463 16.1602 20.666 15.7404 20.666 15.2227V4.18359Z" fill="url(#paint12_linear_942_28061)"/>
    </g>
    <defs>
        <filter id="filter0_i_942_28061" x="1.74609" y="5.53359" width="20.9742" height="15.0357" filterUnits="userSpaceOnUse" color-interpolation-filters="sRGB">
            <feFlood flood-opacity="0" result="BackgroundImageFix"/>
            <feBlend mode="normal" in="SourceGraphic" in2="BackgroundImageFix" result="shape"/>
            <feColorMatrix in="SourceAlpha" type="matrix" values="0 0 0 0 0 0 0 0 0 0 0 0 0 0 0 0 0 0 127 0" result="hardAlpha"/>
            <feOffset dx="0.15" dy="-0.15"/>
            <feGaussianBlur stdDeviation="0.25"/>
            <feComposite in2="hardAlpha" operator="arithmetic" k2="-1" k3="1"/>
            <feColorMatrix type="matrix" values="0 0 0 0 0.305882 0 0 0 0 0.541176 0 0 0 0 0.780392 0 0 0 1 0"/>
            <feBlend mode="normal" in2="shape" result="effect1_innerShadow_942_28061"/>
        </filter>
        <filter id="filter1_ii_942_28061" x="1.64609" y="4.85703" width="21.0242" height="14.9857" filterUnits="userSpaceOnUse" color-interpolation-filters="sRGB">
            <feFlood flood-opacity="0" result="BackgroundImageFix"/>
            <feBlend mode="normal" in="SourceGraphic" in2="BackgroundImageFix" result="shape"/>
            <feColorMatrix in="SourceAlpha" type="matrix" values="0 0 0 0 0 0 0 0 0 0 0 0 0 0 0 0 0 0 127 0" result="hardAlpha"/>
            <feOffset dx="-0.1"/>
            <feGaussianBlur stdDeviation="0.15"/>
            <feComposite in2="hardAlpha" operator="arithmetic" k2="-1" k3="1"/>
            <feColorMatrix type="matrix" values="0 0 0 0 0.45098 0 0 0 0 0.941176 0 0 0 0 1 0 0 0 1 0"/>
            <feBlend mode="normal" in2="shape" result="effect1_innerShadow_942_28061"/>
            <feColorMatrix in="SourceAlpha" type="matrix" values="0 0 0 0 0 0 0 0 0 0 0 0 0 0 0 0 0 0 127 0" result="hardAlpha"/>
            <feOffset dx="0.1" dy="-0.1"/>
            <feGaussianBlur stdDeviation="0.15"/>
            <feComposite in2="hardAlpha" operator="arithmetic" k2="-1" k3="1"/>
            <feColorMatrix type="matrix" values="0 0 0 0 0.286275 0 0 0 0 0.666667 0 0 0 0 0.901961 0 0 0 1 0"/>
            <feBlend mode="normal" in2="effect1_innerShadow_942_28061" result="effect2_innerShadow_942_28061"/>
        </filter>
        <filter id="filter2_f_942_28061" x="1.77344" y="3.73047" width="20.4531" height="14.541" filterUnits="userSpaceOnUse" color-interpolation-filters="sRGB">
            <feFlood flood-opacity="0" result="BackgroundImageFix"/>
            <feBlend mode="normal" in="SourceGraphic" in2="BackgroundImageFix" result="shape"/>
            <feGaussianBlur stdDeviation="0.25" result="effect1_foregroundBlur_942_28061"/>
        </filter>
        <filter id="filter3_i_942_28061" x="2.4082" y="3.75586" width="9.82656" height="14.0043" filterUnits="userSpaceOnUse" color-interpolation-filters="sRGB">
            <feFlood flood-opacity="0" result="BackgroundImageFix"/>
            <feBlend mode="normal" in="SourceGraphic" in2="BackgroundImageFix" result="shape"/>
            <feColorMatrix in="SourceAlpha" type="matrix" values="0 0 0 0 0 0 0 0 0 0 0 0 0 0 0 0 0 0 127 0" result="hardAlpha"/>
            <feOffset dx="0.1" dy="0.1"/>
            <feGaussianBlur stdDeviation="0.15"/>
            <feComposite in2="hardAlpha" operator="arithmetic" k2="-1" k3="1"/>
            <feColorMatrix type="matrix" values="0 0 0 0 0.694118 0 0 0 0 0.705882 0 0 0 0 0.733333 0 0 0 1 0"/>
            <feBlend mode="normal" in2="shape" result="effect1_innerShadow_942_28061"/>
        </filter>
        <filter id="filter4_i_942_28061" x="12.1348" y="3.75586" width="9.82656" height="14.0043" filterUnits="userSpaceOnUse" color-interpolation-filters="sRGB">
            <feFlood flood-opacity="0" result="BackgroundImageFix"/>
            <feBlend mode="normal" in="SourceGraphic" in2="BackgroundImageFix" result="shape"/>
            <feColorMatrix in="SourceAlpha" type="matrix" values="0 0 0 0 0 0 0 0 0 0 0 0 0 0 0 0 0 0 127 0" result="hardAlpha"/>
            <feOffset dx="0.1" dy="0.1"/>
            <feGaussianBlur stdDeviation="0.15"/>
            <feComposite in2="hardAlpha" operator="arithmetic" k2="-1" k3="1"/>
            <feColorMatrix type="matrix" values="0 0 0 0 0.831373 0 0 0 0 0.835294 0 0 0 0 0.854902 0 0 0 1 0"/>
            <feBlend mode="normal" in2="shape" result="effect1_innerShadow_942_28061"/>
        </filter>
        <filter id="filter5_ii_942_28061" x="3.60352" y="3.43359" width="8.63125" height="14.2707" filterUnits="userSpaceOnUse" color-interpolation-filters="sRGB">
            <feFlood flood-opacity="0" result="BackgroundImageFix"/>
            <feBlend mode="normal" in="SourceGraphic" in2="BackgroundImageFix" result="shape"/>
            <feColorMatrix in="SourceAlpha" type="matrix" values="0 0 0 0 0 0 0 0 0 0 0 0 0 0 0 0 0 0 127 0" result="hardAlpha"/>
            <feOffset dy="0.05"/>
            <feGaussianBlur stdDeviation="0.15"/>
            <feComposite in2="hardAlpha" operator="arithmetic" k2="-1" k3="1"/>
            <feColorMatrix type="matrix" values="0 0 0 0 0.827451 0 0 0 0 0.819608 0 0 0 0 0.854902 0 0 0 1 0"/>
            <feBlend mode="normal" in2="shape" result="effect1_innerShadow_942_28061"/>
            <feColorMatrix in="SourceAlpha" type="matrix" values="0 0 0 0 0 0 0 0 0 0 0 0 0 0 0 0 0 0 127 0" result="hardAlpha"/>
            <feOffset dx="0.1"/>
            <feGaussianBlur stdDeviation="0.15"/>
            <feComposite in2="hardAlpha" operator="arithmetic" k2="-1" k3="1"/>
            <feColorMatrix type="matrix" values="0 0 0 0 0.980392 0 0 0 0 0.976471 0 0 0 0 1 0 0 0 1 0"/>
            <feBlend mode="normal" in2="effect1_innerShadow_942_28061" result="effect2_innerShadow_942_28061"/>
        </filter>
        <filter id="filter6_ii_942_28061" x="12.0348" y="3.43359" width="8.63125" height="14.2707" filterUnits="userSpaceOnUse" color-interpolation-filters="sRGB">
            <feFlood flood-opacity="0" result="BackgroundImageFix"/>
            <feBlend mode="normal" in="SourceGraphic" in2="BackgroundImageFix" result="shape"/>
            <feColorMatrix in="SourceAlpha" type="matrix" values="0 0 0 0 0 0 0 0 0 0 0 0 0 0 0 0 0 0 127 0" result="hardAlpha"/>
            <feOffset dx="-0.1"/>
            <feGaussianBlur stdDeviation="0.15"/>
            <feComposite in2="hardAlpha" operator="arithmetic" k2="-1" k3="1"/>
            <feColorMatrix type="matrix" values="0 0 0 0 0.980392 0 0 0 0 0.976471 0 0 0 0 1 0 0 0 1 0"/>
            <feBlend mode="normal" in2="shape" result="effect1_innerShadow_942_28061"/>
            <feColorMatrix in="SourceAlpha" type="matrix" values="0 0 0 0 0 0 0 0 0 0 0 0 0 0 0 0 0 0 127 0" result="hardAlpha"/>
            <feOffset dy="0.05"/>
            <feGaussianBlur stdDeviation="0.15"/>
            <feComposite in2="hardAlpha" operator="arithmetic" k2="-1" k3="1"/>
            <feColorMatrix type="matrix" values="0 0 0 0 0.827451 0 0 0 0 0.819608 0 0 0 0 0.854902 0 0 0 1 0"/>
            <feBlend mode="normal" in2="effect1_innerShadow_942_28061" result="effect2_innerShadow_942_28061"/>
        </filter>
        <linearGradient id="paint0_linear_942_28061" x1="12.1582" y1="8.23828" x2="12.1582" y2="19.8428" gradientUnits="userSpaceOnUse">
            <stop stop-color="#5DD8FB"/>
            <stop offset="1" stop-color="#41AEF2"/>
        </linearGradient>
        <radialGradient id="paint1_radial_942_28061" cx="0" cy="0" r="1" gradientUnits="userSpaceOnUse" gradientTransform="translate(11.5313 18.8086) rotate(-26.565) scale(1.67705 2.35311)">
            <stop offset="0.231937" stop-color="#306AB3"/>
            <stop offset="1" stop-color="#1A4CA8"/>
        </radialGradient>
        <linearGradient id="paint2_linear_942_28061" x1="12.1582" y1="17.4961" x2="12.1582" y2="18.0586" gradientUnits="userSpaceOnUse">
            <stop stop-color="#1748A6"/>
            <stop offset="1" stop-color="#1748A6" stop-opacity="0"/>
        </linearGradient>
        <linearGradient id="paint3_linear_942_28061" x1="9.38672" y1="18.9023" x2="3.94922" y2="13.8633" gradientUnits="userSpaceOnUse">
            <stop offset="0.749863" stop-color="#B3A9CF"/>
            <stop offset="0.931655" stop-color="#B6BAC5"/>
        </linearGradient>
        <linearGradient id="paint4_linear_942_28061" x1="14.8828" y1="18.9023" x2="20.3203" y2="13.8633" gradientUnits="userSpaceOnUse">
            <stop offset="0.71707" stop-color="#BBB3D9"/>
            <stop offset="0.912508" stop-color="#DCDDE8"/>
        </linearGradient>
        <linearGradient id="paint5_linear_942_28061" x1="20.9823" y1="4.07498" x2="20.9823" y2="7.40567" gradientUnits="userSpaceOnUse">
            <stop stop-color="#D8DAE2"/>
            <stop offset="1" stop-color="#D8DAE2" stop-opacity="0"/>
        </linearGradient>
        <linearGradient id="paint6_linear_942_28061" x1="12.1348" y1="17.6602" x2="13.3477" y2="16.2305" gradientUnits="userSpaceOnUse">
            <stop stop-color="#A699C9"/>
            <stop offset="1" stop-color="#A699C9" stop-opacity="0"/>
        </linearGradient>
        <linearGradient id="paint7_linear_942_28061" x1="3.60352" y1="10.5439" x2="11.4961" y2="10.5439" gradientUnits="userSpaceOnUse">
            <stop stop-color="#F3F1FA"/>
            <stop offset="1" stop-color="#F0EBF9"/>
        </linearGradient>
        <linearGradient id="paint8_linear_942_28061" x1="12.1348" y1="16.6758" x2="10.0898" y2="16.6758" gradientUnits="userSpaceOnUse">
            <stop stop-color="#D5CCE8"/>
            <stop offset="1" stop-color="#F2EBFF" stop-opacity="0"/>
        </linearGradient>
        <linearGradient id="paint9_linear_942_28061" x1="12.1758" y1="16.8398" x2="12.0117" y2="16.8398" gradientUnits="userSpaceOnUse">
            <stop offset="0.178572" stop-color="#BFB3D1"/>
            <stop offset="1" stop-color="#BFB3D1" stop-opacity="0"/>
        </linearGradient>
        <linearGradient id="paint10_linear_942_28061" x1="12.1348" y1="10.5439" x2="20.0273" y2="10.5439" gradientUnits="userSpaceOnUse">
            <stop stop-color="#F3F1FA"/>
            <stop offset="1" stop-color="#F0EBF9"/>
        </linearGradient>
        <linearGradient id="paint11_linear_942_28061" x1="12.1348" y1="16.6758" x2="14.2383" y2="16.6758" gradientUnits="userSpaceOnUse">
            <stop stop-color="#D5CCE8"/>
            <stop offset="1" stop-color="#F2EBFF" stop-opacity="0"/>
        </linearGradient>
        <linearGradient id="paint12_linear_942_28061" x1="12.1143" y1="16.8398" x2="12.2695" y2="16.8398" gradientUnits="userSpaceOnUse">
            <stop stop-color="#BFB3D1"/>
            <stop offset="1" stop-color="#BFB3D1" stop-opacity="0"/>
        </linearGradient>
    </defs>
</svg>
