<svg width="21" height="20" viewBox="0 0 21 20" fill="none" xmlns="http://www.w3.org/2000/svg">
<g clip-path="url(#clip0_2717_1382)">
<path d="M11.2165 19.7321H12.5207C13.0969 19.7321 13.5737 19.2838 13.6095 18.7087C13.7864 15.8624 13.6324 12.9303 12.6317 10.2631C12.1575 8.99925 11.4955 7.8021 10.5468 6.83101C9.8498 6.11749 9.70187 5.82358 8.99953 6.33409C7.85964 7.16268 8.63511 7.27706 9.02472 8.03194C9.61363 9.17292 10.1152 9.93335 10.3854 11.2536C10.8637 13.591 10.6274 16.0741 10.1472 18.4275C10.0095 19.1019 10.5282 19.7321 11.2165 19.7321Z" fill="#E5AA6E"/>
<path d="M18.9411 4.26805L18.9219 4.23774C18.9091 4.2179 18.891 4.18762 18.8654 4.15008L18.7723 4.01071C18.7557 3.98352 18.7292 3.95313 18.7042 3.92165L18.62 3.82188L18.5242 3.70985L18.4163 3.5968C18.3414 3.517 18.2566 3.43375 18.1603 3.35227C18.111 3.30895 18.0612 3.26625 18.0109 3.22418C17.9587 3.18129 17.9023 3.14153 17.8453 3.09817C17.7878 3.05571 17.729 3.01071 17.6661 2.96985L17.4713 2.84586C17.4378 2.82493 17.4042 2.80274 17.3693 2.7829L17.2622 2.7252L17.0399 2.6068C16.9629 2.57028 16.8834 2.53559 16.8026 2.49958C16.762 2.48204 16.7215 2.4627 16.6797 2.44629L16.553 2.39817C16.2124 2.26583 15.8373 2.16528 15.4403 2.09848L15.2904 2.0743C15.2401 2.06622 15.1896 2.05735 15.1385 2.05407L14.8293 2.02672C14.6212 2.01715 14.4087 2.00704 14.1947 2.02161C14.0876 2.02622 13.9797 2.02965 13.872 2.04297L13.7098 2.05993L13.6286 2.06973L13.6083 2.07219L13.5982 2.07344L13.5931 2.07407C13.6168 2.06907 13.555 2.08157 13.5598 2.08059L13.5251 2.08668L13.2466 2.1354L13.2114 2.14168L13.1683 2.15192L13.0821 2.17262L12.9094 2.21516C12.7908 2.24418 12.6896 2.28012 12.5839 2.31461C12.5312 2.33161 12.4792 2.35051 12.4269 2.36872C12.3749 2.38747 12.3244 2.41043 12.2731 2.43122C12.2219 2.45223 12.1712 2.47418 12.1208 2.49672L12.0451 2.5302C12.02 2.54168 11.9957 2.555 11.971 2.56735C11.8724 2.61692 11.776 2.67036 11.6798 2.7225C11.3081 2.94176 10.9678 3.21034 10.6682 3.52094L10.5618 3.63626C10.5269 3.67477 10.4913 3.7118 10.4596 3.75313L10.2684 3.99211C10.2059 4.08231 10.1447 4.17079 10.0868 4.25973C10.0573 4.18211 10.0211 4.10262 9.98296 4.01844C9.96257 3.97165 9.93827 3.92571 9.91276 3.87887C9.88784 3.83165 9.86093 3.78407 9.83351 3.73524C9.77757 3.63844 9.71198 3.54215 9.64417 3.44184C9.57097 3.34618 9.49757 3.24411 9.41152 3.14856C9.36855 3.10075 9.32542 3.05172 9.28034 3.0034C9.23373 2.95551 9.18616 2.90856 9.13765 2.86258C9.04155 2.76719 8.93331 2.68106 8.82487 2.59184C8.60183 2.4211 8.35636 2.26461 8.0937 2.13325C7.82968 2.0045 7.55312 1.89422 7.27023 1.8095C6.98612 1.7279 6.69757 1.6693 6.41226 1.63711C6.13451 1.6079 5.85481 1.60175 5.57605 1.61872C5.5087 1.62422 5.44218 1.63137 5.37667 1.63786C5.3439 1.64153 5.31148 1.64375 5.27913 1.64875L5.18296 1.66395C5.11937 1.67438 5.05683 1.68352 4.99542 1.69625C4.93401 1.70989 4.87374 1.72274 4.81472 1.73708C4.69651 1.76329 4.58378 1.80168 4.47593 1.83348C4.36878 1.87247 4.2664 1.90848 4.17058 1.94973C4.12269 1.97059 4.0764 1.99258 4.0314 2.01325C3.98636 2.03395 3.94272 2.05415 3.90108 2.0768C3.85921 2.09825 3.81909 2.12102 3.7803 2.1425C3.74155 2.16422 3.70394 2.18434 3.66866 2.20715C3.59757 2.25086 3.53304 2.295 3.47366 2.33387C3.41515 2.37547 3.36335 2.41704 3.31651 2.45254C3.27451 2.48424 3.23406 2.51794 3.1953 2.55352C3.16093 2.58399 3.13261 2.61125 3.10952 2.63254L3.04034 2.7002C3.0035 2.73623 2.97795 2.78222 2.96682 2.83253C2.95569 2.88285 2.95946 2.93532 2.97767 2.98353C2.99588 3.03173 3.02773 3.07359 3.06934 3.10399C3.11095 3.13439 3.16052 3.15201 3.21198 3.15469L3.23495 3.1559L3.32425 3.16055L3.42886 3.16391L3.49397 3.1654C3.51741 3.16708 3.54218 3.16879 3.56792 3.16985C3.61944 3.17211 3.67632 3.17622 3.73648 3.17813C3.79745 3.18274 3.86312 3.18981 3.93108 3.19395C4.06835 3.20704 4.21929 3.22379 4.37894 3.2493C4.41851 3.25344 4.4594 3.26364 4.50019 3.27036L4.6239 3.29235L4.75007 3.31989C4.79237 3.32864 4.83491 3.33704 4.87784 3.34926C4.92073 3.36075 4.96378 3.37071 5.00698 3.38141L5.13702 3.41879C5.22401 3.44161 5.31093 3.47422 5.39816 3.50079C5.57191 3.56352 5.74515 3.6309 5.91413 3.70833C5.95725 3.72888 6.0002 3.74981 6.04296 3.7711C6.01616 3.77235 5.98929 3.7734 5.96269 3.77555C5.88269 3.78118 5.80136 3.78274 5.72233 3.79211L5.48444 3.81864C5.17015 3.86254 4.86058 3.91965 4.56667 4.0025C4.52976 4.01239 4.49273 4.02157 4.45628 4.03196L4.34784 4.0652C4.27597 4.08782 4.20417 4.10903 4.13374 4.1325C3.99417 4.18313 3.85538 4.22915 3.72339 4.28543C3.65752 4.31178 3.592 4.33897 3.52683 4.367C3.46288 4.39618 3.3994 4.42407 3.33737 4.45372C3.21237 4.51016 3.09394 4.57395 2.97839 4.63379C2.86366 4.69582 2.75405 4.7595 2.64894 4.82184C2.59671 4.85387 2.54585 4.8861 2.4962 4.91809C2.44659 4.9502 2.39753 4.98016 2.35101 5.01317C2.25749 5.0779 2.16858 5.13989 2.08589 5.20215C2.00796 5.26148 1.93095 5.32199 1.85487 5.38368C1.78897 5.4394 1.7237 5.49587 1.65909 5.55309C1.5996 5.60711 1.54558 5.66001 1.49718 5.70571C1.39968 5.79934 1.33366 5.87633 1.28597 5.92981C1.23933 5.98368 1.21507 6.01364 1.21507 6.01364C1.19886 6.03367 1.18884 6.05799 1.18623 6.08362C1.18362 6.10926 1.18853 6.1351 1.20036 6.15799C1.21219 6.18087 1.23043 6.19982 1.25286 6.21251C1.27528 6.22521 1.30092 6.23109 1.32663 6.22946C1.32663 6.22946 1.36511 6.22704 1.43601 6.22012L1.56558 6.2054C1.61632 6.19762 1.67362 6.19286 1.73667 6.18583C1.86101 6.16969 2.01437 6.15422 2.18612 6.1304L2.75714 6.05735C2.86054 6.04418 2.96823 6.03239 3.07776 6.0168L3.41726 5.97629L3.59284 5.95622C3.6523 5.94844 3.71189 5.94174 3.77159 5.93614C3.83194 5.93043 3.89214 5.9225 3.95308 5.91559C4.01429 5.91024 4.07573 5.90454 4.1373 5.8977C4.19886 5.89067 4.26108 5.8852 4.32335 5.87997L4.51089 5.86282L4.69944 5.84817C4.76253 5.84332 4.8255 5.83762 4.88858 5.8345C4.95163 5.83036 5.01495 5.8275 5.07792 5.82215L5.26671 5.81391L5.36089 5.80911L5.45456 5.80688C5.51687 5.80594 5.57956 5.80274 5.64124 5.80204C5.88898 5.79891 6.13034 5.80422 6.36261 5.81657C6.47667 5.82747 6.59175 5.83125 6.6996 5.84747C6.8105 5.85657 6.91351 5.87418 7.01858 5.88262C7.06921 5.89008 7.11909 5.89747 7.16952 5.90278C7.19429 5.90622 7.22058 5.90704 7.24421 5.91145C7.26812 5.91563 7.29218 5.91907 7.31624 5.92247C7.34023 5.92606 7.36441 5.92875 7.38851 5.93168C7.40054 5.93325 7.41265 5.93442 7.4248 5.93547L7.45937 5.94126C7.50511 5.94958 7.5512 5.95649 7.59784 5.9618C7.62179 5.96372 7.64257 5.96993 7.66487 5.97344L7.73128 5.98481C7.75335 5.98868 7.77558 5.99223 7.79819 5.99493C7.82116 5.99731 7.84077 6.00368 7.86226 6.00778C7.90444 6.01684 7.9478 6.02383 7.99062 6.0318C8.03335 6.0393 8.07218 6.05153 8.11405 6.05977C8.2803 6.09426 8.43394 6.14137 8.58253 6.18801C8.62198 6.19739 8.6537 6.21387 8.68948 6.22582C8.72413 6.23883 8.75851 6.25157 8.79284 6.26356L8.84362 6.28157L8.89007 6.30204L8.98077 6.3402C9.10058 6.38758 9.19331 6.43668 9.26359 6.46754C9.29843 6.48325 9.32605 6.49555 9.34577 6.50336L9.3569 6.50805C9.35843 6.70872 9.37987 6.88563 9.41144 7.0329C9.42124 7.07887 9.43034 7.122 9.44042 7.16231C9.45132 7.20266 9.46273 7.24012 9.47351 7.27477C9.49126 7.33356 9.51203 7.3914 9.53573 7.44805C9.55343 7.49442 9.57175 7.52907 9.58241 7.55247L9.60019 7.58762C9.61507 7.61709 9.63686 7.64252 9.66369 7.66174C9.69053 7.68096 9.72162 7.69341 9.75431 7.69801C9.787 7.70261 9.82032 7.69923 9.85142 7.68817C9.88252 7.6771 9.91048 7.65867 9.93292 7.63446L10.0134 7.54758L10.0218 7.53848C10.0272 7.53247 10.0364 7.52344 10.046 7.51188C10.0651 7.48875 10.0973 7.45454 10.1329 7.41211L10.4158 7.07594L10.7751 6.64477C10.7903 6.62579 10.8064 6.60688 10.8229 6.58797C10.8308 6.57872 10.8382 6.56825 10.8458 6.55973L10.8682 6.53684L10.8787 6.52528C10.8825 6.52067 10.885 6.51946 10.89 6.51125L10.9171 6.4702L10.9302 6.4493L10.9367 6.43879C10.9306 6.46137 10.9359 6.44403 10.935 6.4486L10.9366 6.4468L10.9397 6.44325C10.9479 6.43372 10.9566 6.42434 10.9645 6.41469C10.9964 6.37612 11.0278 6.33721 11.0588 6.29797L11.0823 6.26856L11.1097 6.24012L11.1644 6.18309C11.2325 6.10547 11.3203 6.03391 11.4016 5.96133C11.4458 5.92633 11.4935 5.89293 11.5385 5.85879C11.5621 5.84219 11.5821 5.82407 11.6081 5.80872C11.6332 5.79293 11.6587 5.77762 11.6828 5.76149C11.8765 5.6325 12.0959 5.52512 12.3168 5.42247C12.5381 5.32 12.7598 5.21973 12.984 5.11313L13.6655 4.80208C13.6888 4.79099 13.7119 4.77957 13.7348 4.76782L13.7696 4.74969L13.787 4.7404L13.8201 4.72969C13.9104 4.70172 13.9999 4.6702 14.0896 4.64047L14.1232 4.62918C14.1359 4.62637 14.0285 4.64829 14.0753 4.6386L14.0784 4.6377L14.0844 4.63586L14.0964 4.63219L14.1446 4.61735L14.241 4.58481C14.2734 4.57465 14.305 4.56051 14.3382 4.55317C14.3711 4.54477 14.404 4.53559 14.4369 4.52567C14.5028 4.50622 14.5688 4.48493 14.6362 4.47157C14.7033 4.45575 14.7705 4.43625 14.8383 4.42208C14.9061 4.40926 14.9742 4.3945 15.0426 4.3802C15.111 4.36606 15.1795 4.35731 15.2482 4.34512L15.3515 4.32747L15.4545 4.315L15.5577 4.302C15.5922 4.29688 15.6269 4.29141 15.6609 4.28965C15.7292 4.28454 15.7976 4.2786 15.8664 4.27114C15.901 4.26661 15.9344 4.26668 15.9683 4.26512C16.002 4.26403 16.0362 4.26098 16.0701 4.25899C16.2077 4.24493 16.3369 4.25512 16.4709 4.24801L16.6651 4.25247L16.7614 4.25489C16.7926 4.25721 16.8239 4.25916 16.8552 4.26075L17.0412 4.27133C17.1025 4.2752 17.1594 4.28547 17.2192 4.28938C17.2778 4.29532 17.3372 4.29911 17.3929 4.30704C17.4479 4.31598 17.5022 4.32461 17.5567 4.33125C17.6102 4.33926 17.6653 4.34391 17.7144 4.35481C17.7638 4.36528 17.813 4.37415 17.8611 4.38247L18.0002 4.40797C18.0409 4.41766 18.0821 4.42485 18.121 4.43313L18.2337 4.45692C18.2701 4.4654 18.3042 4.46825 18.3385 4.48114C18.4057 4.50293 18.4642 4.51989 18.5118 4.53352C18.5589 4.54774 18.5968 4.55661 18.6216 4.56336L18.6596 4.57329L18.7093 4.58625C18.7373 4.59349 18.7664 4.5949 18.795 4.5904C18.8235 4.58591 18.8508 4.5756 18.8752 4.56012C18.8988 4.54529 18.9191 4.52597 18.9352 4.50325C18.9512 4.48054 18.9626 4.45489 18.9688 4.42776C18.9749 4.40063 18.9756 4.37256 18.9708 4.34515C18.9661 4.31775 18.956 4.29155 18.9411 4.26805Z" fill="#1B871B"/>
<path d="M17.2683 8.00808C17.2645 7.8428 17.244 7.64316 17.1953 7.42163C17.147 7.20003 17.0715 6.95624 16.9636 6.70175C16.8461 6.4282 16.7033 6.16623 16.537 5.91925C16.4483 5.78726 16.3496 5.65609 16.2423 5.52538C16.1331 5.39648 16.0166 5.26663 15.887 5.1423C15.6286 4.89319 15.3279 4.65452 14.9676 4.45316C14.9221 4.42785 14.8762 4.40323 14.83 4.37929L14.6857 4.31011C14.6375 4.28714 14.5859 4.2664 14.5357 4.2448L14.4976 4.22913L14.488 4.22527C14.5014 4.22952 14.4643 4.21722 14.467 4.21804L14.4637 4.21667L14.4504 4.2112L14.4236 4.20023C14.4141 4.1964 14.4088 4.19374 14.3898 4.18726L14.2937 4.15429L14.2121 4.12792C14.1585 4.11121 14.1044 4.09608 14.0499 4.08257C13.9418 4.05538 13.8349 4.03073 13.7279 4.01437C13.3008 3.94304 12.8783 3.94327 12.4654 4.00519C12.2637 4.03535 12.0646 4.08124 11.8701 4.14245C11.9645 4.01876 12.0617 3.89717 12.1616 3.77777C12.3146 3.59362 12.4774 3.41015 12.6444 3.22905C12.8117 3.04835 12.9827 2.86921 13.1556 2.69776C13.3279 2.52546 13.5003 2.35765 13.6701 2.19909C13.8329 2.04715 13.9979 1.89744 14.1649 1.74999C14.3128 1.61937 14.4624 1.49076 14.6138 1.36421C14.7526 1.24835 14.8785 1.14441 14.9854 1.05929C15.0123 1.03878 15.0376 1.01734 15.0616 0.997452L15.1281 0.943742C15.149 0.927453 15.1682 0.910577 15.1862 0.895695C15.2041 0.880656 15.2229 0.86757 15.2385 0.855578C15.2712 0.83045 15.3034 0.804637 15.3351 0.778156C15.3611 0.755989 15.381 0.727529 15.3929 0.695486C15.4048 0.663443 15.4084 0.628882 15.4031 0.595094C15.3979 0.561306 15.3842 0.529415 15.3631 0.502457C15.3421 0.475499 15.3145 0.454372 15.283 0.441085C15.283 0.441085 15.2426 0.424054 15.1676 0.396437C15.0958 0.368937 14.9708 0.335656 14.8247 0.303898C14.7425 0.286783 14.6599 0.271998 14.5768 0.259562C14.4867 0.24757 14.388 0.235968 14.283 0.229523C14.0726 0.215343 13.834 0.215304 13.5755 0.237726C13.317 0.259952 13.0391 0.305499 12.7505 0.377726C12.462 0.45007 12.1636 0.550421 11.8639 0.678781C11.7153 0.744913 11.5642 0.814718 11.4164 0.895226C11.2666 0.972882 11.1203 1.06124 10.9744 1.15421C10.8288 1.24765 10.6864 1.34964 10.5461 1.45687C10.4067 1.5655 10.2699 1.67972 10.1381 1.80163C9.87482 2.0455 9.62794 2.31452 9.40978 2.60808C9.29958 2.7537 9.19751 2.90624 9.10661 3.0655C9.01496 3.22389 8.93433 3.38841 8.86529 3.55788C8.72654 3.89491 8.63693 4.25054 8.60236 4.59991C8.5838 4.77398 8.5829 4.94843 8.59075 5.11523C8.59329 5.15464 8.59654 5.19358 8.60021 5.23222C8.53842 5.20098 8.47632 5.17037 8.41392 5.14038L8.3495 5.10976L8.28365 5.083L8.14829 5.02913C7.96439 4.95175 7.76868 4.89659 7.56017 4.83429C7.45646 4.80722 7.35025 4.78464 7.2406 4.7603C7.18603 4.74925 7.12982 4.7348 7.07447 4.72691C7.01892 4.71843 6.96259 4.70925 6.9056 4.70194C6.67618 4.66687 6.44208 4.65515 6.19704 4.64523C6.07708 4.64773 5.95462 4.65101 5.83017 4.65628C5.76759 4.6587 5.70708 4.66663 5.64533 4.67339C5.58376 4.68062 5.52134 4.6871 5.45908 4.69597C4.9629 4.76816 4.46365 4.92198 4.00197 5.15933C3.94491 5.18992 3.88843 5.22156 3.83255 5.25425C3.7761 5.28648 3.72015 5.31959 3.66474 5.35358C3.63708 5.37069 3.60869 5.38691 3.58169 5.40491L3.50193 5.46077C3.44865 5.49792 3.39576 5.53577 3.34353 5.57464C3.29146 5.61358 3.23786 5.65093 3.18822 5.69284C3.13876 5.73495 3.08865 5.77624 3.04056 5.82007L2.89576 5.95042L2.85974 5.98312C2.84786 5.99386 2.83384 6.00823 2.82103 6.02062L2.74279 6.09812L2.59099 6.25718L2.51622 6.33718L2.47911 6.37726L2.45642 6.40577C2.39716 6.47964 2.34103 6.55648 2.28353 6.63171L2.26208 6.66003C2.2706 6.65124 2.17908 6.74819 2.21611 6.70948L2.21263 6.71429L2.20564 6.72394L2.19169 6.74323L2.13622 6.82038L2.02857 6.97612C1.95599 7.07894 1.89064 7.18515 1.82876 7.29284C1.69904 7.50409 1.59431 7.72581 1.49353 7.94269C1.44724 8.05347 1.40372 8.16417 1.3606 8.27316C1.3379 8.32702 1.32048 8.38323 1.30267 8.43878L1.25001 8.60421C1.1165 9.04472 1.03486 9.47866 1.0097 9.89269L0.999115 10.0456C0.995873 10.0961 0.997396 10.1475 0.996693 10.1976C0.996576 10.298 0.996068 10.3959 0.998881 10.4919C1.00505 10.589 1.01138 10.6836 1.02044 10.776L1.03349 10.9124C1.03861 10.9574 1.04701 11.0025 1.05435 11.0465L1.0997 11.3028C1.11552 11.3855 1.13599 11.4666 1.1574 11.5444C1.17919 11.6224 1.19806 11.6971 1.22142 11.7694C1.24544 11.842 1.26931 11.9116 1.2954 11.9783C1.34408 12.1113 1.39712 12.2335 1.45361 12.3433L1.53228 12.4996C1.55986 12.5517 1.58974 12.6 1.61658 12.6452L1.69369 12.7711C1.70572 12.7905 1.71857 12.8089 1.73029 12.8267C1.7363 12.8354 1.74197 12.8448 1.74798 12.8524L1.76595 12.8739C1.80578 12.9222 1.84657 12.9698 1.88829 13.0165C1.92154 13.0552 1.95025 13.0843 1.96833 13.1041L1.9963 13.134L2.04365 13.1847C2.07663 13.2199 2.11898 13.245 2.16571 13.257C2.21245 13.269 2.26164 13.2674 2.30751 13.2524C2.35337 13.2374 2.39401 13.2097 2.42465 13.1724C2.45529 13.1351 2.47466 13.0899 2.48048 13.042L2.48486 13.0059C2.48747 12.9821 2.49279 12.9466 2.4965 12.9009L2.51208 12.7321C2.51361 12.6973 2.52286 12.6676 2.52837 12.6328L2.54685 12.5258C2.55314 12.4885 2.5606 12.4496 2.56642 12.4094L2.59431 12.2768C2.60427 12.231 2.61419 12.1837 2.62326 12.135C2.63154 12.0864 2.6481 12.0358 2.66068 11.9843C2.6747 11.9328 2.68755 11.88 2.70048 11.826C2.71451 11.7721 2.7338 11.7169 2.75072 11.6609C2.76958 11.6049 2.78294 11.5476 2.80345 11.4896L2.86685 11.3134L2.8988 11.2234L2.93568 11.1328L3.01056 10.9484C3.0406 10.8873 3.06786 10.8248 3.0963 10.762C3.11083 10.7307 3.12368 10.6988 3.13962 10.6675L3.18888 10.5738C3.31251 10.3204 3.46724 10.068 3.63474 9.82011C3.67849 9.75902 3.71978 9.69632 3.76517 9.63585L3.90212 9.45448C3.94919 9.39487 4.00079 9.33823 4.04951 9.27968C4.09611 9.21948 4.14896 9.16421 4.20056 9.10796C4.25208 9.05167 4.3022 8.99409 4.35892 8.94273L4.44103 8.86308L4.48087 8.82226L4.49083 8.81202L4.49579 8.8069L4.49829 8.80437C4.52033 8.78116 4.47099 8.83319 4.47736 8.82667L4.50333 8.80276L4.71146 8.61128L4.73724 8.58773L4.75732 8.57292L4.7972 8.54316L4.87583 8.48308C4.92173 8.44198 4.9872 8.39718 5.04697 8.35319C5.07744 8.33148 5.10638 8.30792 5.13587 8.28503C5.16544 8.26233 5.19732 8.24319 5.22775 8.22194C5.2906 8.18269 5.34646 8.13249 5.41009 8.09577C5.47306 8.05792 5.53267 8.01487 5.59368 7.97433C5.62802 7.95288 5.66243 7.93222 5.69681 7.91124C5.6829 7.92694 5.66857 7.94226 5.6549 7.95816C5.3829 8.27487 5.15798 8.63253 4.99126 9.03222C4.94822 9.13151 4.9122 9.23523 4.87779 9.34116C4.86025 9.39453 4.84428 9.44839 4.8299 9.50269L4.80884 9.58581L4.78568 9.68472C4.78103 9.70429 4.78048 9.71015 4.77865 9.7203L4.77372 9.74874L4.77126 9.76296L4.77064 9.76651C4.77138 9.76378 4.76212 9.80171 4.7656 9.78812L4.7638 9.79827L4.75681 9.83886C4.74841 9.89288 4.73853 9.94757 4.73232 10.0007L4.71419 10.1596C4.70989 10.2115 4.70633 10.2635 4.70353 10.3155C4.68247 10.7276 4.72466 11.1093 4.79822 11.4606C4.83458 11.6365 4.88263 11.8041 4.93368 11.9652C4.98736 12.1256 5.04595 12.2789 5.11052 12.4242C5.23129 12.6964 5.37718 12.9566 5.5463 13.2017C5.70439 13.4284 5.87072 13.6219 6.03271 13.7807C6.19443 13.9397 6.35259 14.0632 6.49052 14.1544C6.55759 14.2012 6.62435 14.2372 6.67974 14.2687C6.73716 14.3015 6.7931 14.3279 6.83322 14.3475C6.90837 14.3739 6.95005 14.3863 6.95005 14.3863C7.0077 14.4035 7.06896 14.4046 7.12719 14.3895C7.18543 14.3744 7.2384 14.3436 7.28038 14.3005C7.32235 14.2574 7.35172 14.2036 7.3653 14.145C7.37887 14.0864 7.37614 14.0252 7.3574 13.968L7.35732 13.9678C7.35732 13.9678 7.34376 13.9264 7.31536 13.8519C7.30646 13.8184 7.30036 13.7807 7.28845 13.7348C7.27591 13.6866 7.2638 13.6313 7.24974 13.5703C7.19654 13.325 7.14193 12.9786 7.11247 12.5734C7.09865 12.3704 7.08947 12.1536 7.09021 11.9298C7.09036 11.8739 7.09044 11.8177 7.09275 11.761C7.09263 11.7047 7.09611 11.6478 7.09818 11.591C7.10368 11.4775 7.11165 11.3634 7.12259 11.2512C7.1249 11.223 7.12939 11.1952 7.13243 11.1673C7.13493 11.1393 7.13806 11.1116 7.14224 11.0843C7.14857 11.0289 7.15923 10.975 7.16661 10.9212C7.17634 10.8684 7.18517 10.8151 7.19736 10.7647C7.20673 10.7131 7.21986 10.6645 7.23216 10.6163C7.23939 10.5929 7.24572 10.5694 7.25146 10.546L7.27236 10.4793C7.27896 10.457 7.28783 10.4375 7.29497 10.4164L7.30021 10.4008L7.30146 10.3969C7.30544 10.381 7.29665 10.4166 7.29806 10.4115L7.29923 10.4081L7.30388 10.3944L7.31322 10.3671C7.31618 10.3587 7.32009 10.3459 7.32095 10.347C7.32396 10.343 7.32673 10.339 7.32927 10.335L7.34251 10.3079C7.35228 10.2896 7.35966 10.2704 7.36974 10.251C7.38794 10.2121 7.41025 10.1729 7.43099 10.1318C7.52172 9.96329 7.62277 9.80056 7.73357 9.64452C7.83794 9.49762 7.95144 9.35741 8.07337 9.22472C8.18716 9.1019 8.2974 8.99675 8.41134 8.90519C8.52529 8.81429 8.64603 8.7348 8.78263 8.67206C8.91849 8.6096 9.06958 8.56382 9.22064 8.53573C9.37161 8.50612 9.52075 8.49499 9.65103 8.48761C9.71685 8.4828 9.77548 8.48456 9.82997 8.48179C9.88337 8.48151 9.93009 8.48159 9.96919 8.48077C10.046 8.48194 10.0908 8.48003 10.0908 8.48003L10.1212 8.47882C10.1642 8.47684 10.2064 8.46675 10.2456 8.44909C10.3688 8.39382 10.443 8.27464 10.4474 8.14819C10.4803 8.12507 10.5089 8.0963 10.5318 8.06323L10.5484 8.03917C10.5484 8.03917 10.5738 8.0023 10.6137 7.93659C10.6352 7.90394 10.66 7.86429 10.6886 7.81925C10.7199 7.77456 10.7495 7.72398 10.7886 7.67081C10.8642 7.5644 10.9529 7.44401 11.0583 7.33191C11.1624 7.2189 11.2815 7.1153 11.4067 7.03347C11.5324 6.95112 11.664 6.89116 11.8015 6.843C11.9397 6.79519 12.0874 6.75776 12.2519 6.72671C12.4291 6.69402 12.6082 6.67247 12.7881 6.66218C12.978 6.65132 13.1775 6.65234 13.3617 6.66507C13.4076 6.66937 13.4526 6.67136 13.4952 6.67659C13.517 6.67839 13.5371 6.68233 13.5579 6.68382L13.5878 6.68698C13.5926 6.68698 13.5974 6.68675 13.6024 6.68632C13.6018 6.68499 13.6148 6.68851 13.6235 6.69046L13.6516 6.6971L13.6656 6.70042L13.6692 6.70124C13.6742 6.70276 13.6393 6.69128 13.655 6.69636L13.659 6.69737L13.6749 6.70124C13.6965 6.7064 13.7179 6.70933 13.7402 6.71558L13.8078 6.73331C13.8307 6.74097 13.8539 6.74808 13.8776 6.75441C13.925 6.7696 13.9731 6.78437 14.0218 6.80386C14.071 6.82034 14.1208 6.84116 14.1707 6.86105C14.2201 6.88339 14.2715 6.90304 14.3217 6.92714C14.3471 6.93819 14.3723 6.95026 14.3973 6.96304C14.4226 6.9753 14.4485 6.98628 14.4736 6.99933C14.5751 7.05024 14.6754 7.1036 14.7743 7.15937C14.8235 7.18784 14.8736 7.21519 14.9212 7.24523C14.9705 7.27343 15.0181 7.30323 15.0655 7.33284C15.2554 7.4512 15.4342 7.57425 15.5987 7.69394C15.9263 7.93441 16.1905 8.1648 16.3699 8.34034C16.4142 8.38472 16.4545 8.42437 16.4887 8.46066C16.5212 8.49511 16.5499 8.52034 16.5736 8.54573C16.6215 8.60941 16.6493 8.64288 16.6493 8.64288L16.6494 8.643C16.6923 8.69479 16.7501 8.73214 16.8149 8.74999C16.8991 8.77333 16.9891 8.76226 17.0652 8.71923C17.1412 8.6762 17.1971 8.60473 17.2204 8.52054C17.2204 8.52054 17.232 8.47862 17.2496 8.40089C17.2544 8.35651 17.2618 8.29511 17.2646 8.22905C17.2672 8.16542 17.2723 8.0898 17.2683 8.00808Z" fill="#2BA52E"/>
<path d="M12.7144 10.4902L10.3584 11.1271C10.2206 10.5058 10.0297 10.0083 9.80225 9.52824L11.9545 8.76855C12.2153 9.24871 12.4393 9.75008 12.6317 10.2628C12.6599 10.3384 12.6875 10.4141 12.7144 10.4902ZM10.6417 14.3951L13.5275 14.0988C13.4575 13.4933 13.3601 12.8924 13.2297 12.2996L10.5967 12.7506C10.6418 13.2953 10.6551 13.8446 10.6417 14.3951ZM10.3108 17.5615H13.6612C13.6753 17.0521 13.6769 16.5416 13.6627 16.0318H10.5292C10.4731 16.5443 10.3988 17.055 10.3108 17.5615Z" fill="#AF773F"/>
</g>
<defs>
<clipPath id="clip0_2717_1382">
<rect width="20" height="20" fill="white" transform="translate(0.285645)"/>
</clipPath>
</defs>
</svg>
