<svg width="24" height="24" viewBox="0 0 24 24" fill="none" xmlns="http://www.w3.org/2000/svg">
<circle cx="8.47925" cy="3.375" r="1.875" fill="#DE904C"/>
<circle cx="8.47925" cy="3.375" r="1.875" fill="url(#paint0_radial_1230_489)"/>
<circle cx="8.47925" cy="3.375" r="1.875" fill="url(#paint1_radial_1230_489)"/>
<circle cx="8.47925" cy="3.375" r="1.875" fill="url(#paint2_radial_1230_489)"/>
<circle cx="15.5339" cy="3.375" r="1.875" fill="#D68640"/>
<circle cx="15.5339" cy="3.375" r="1.875" fill="url(#paint3_radial_1230_489)"/>
<circle cx="15.5339" cy="3.375" r="1.875" fill="url(#paint4_radial_1230_489)"/>
<g filter="url(#filter0_f_1230_489)">
<circle cx="15.5749" cy="3.375" r="1.59439" stroke="url(#paint5_linear_1230_489)" stroke-width="0.3"/>
</g>
<circle cx="8.47916" cy="3.42773" r="1.21353" fill="url(#paint6_radial_1230_489)"/>
<circle cx="15.5338" cy="3.42773" r="1.21353" fill="#F9BF76"/>
<circle cx="15.5338" cy="3.42773" r="1.21353" fill="url(#paint7_radial_1230_489)"/>
<g filter="url(#filter1_i_1230_489)">
<rect x="14.3152" y="9.59766" width="10.5" height="4.5" rx="2.25" transform="rotate(31.3889 14.3152 9.59766)" fill="#DE773D"/>
<rect x="14.3152" y="9.59766" width="10.5" height="4.5" rx="2.25" transform="rotate(31.3889 14.3152 9.59766)" fill="url(#paint8_radial_1230_489)"/>
<rect x="14.3152" y="9.59766" width="10.5" height="4.5" rx="2.25" transform="rotate(31.3889 14.3152 9.59766)" fill="url(#paint9_linear_1230_489)"/>
<rect x="14.3152" y="9.59766" width="10.5" height="4.5" rx="2.25" transform="rotate(31.3889 14.3152 9.59766)" fill="url(#paint10_radial_1230_489)"/>
<rect x="14.3152" y="9.59766" width="10.5" height="4.5" rx="2.25" transform="rotate(31.3889 14.3152 9.59766)" fill="url(#paint11_radial_1230_489)"/>
</g>
<g filter="url(#filter2_i_1230_489)">
<rect x="0.721436" y="14.9293" width="10.5" height="4.5" rx="2.25" transform="rotate(-30 0.721436 14.9293)" fill="#D77940"/>
<rect x="0.721436" y="14.9293" width="10.5" height="4.5" rx="2.25" transform="rotate(-30 0.721436 14.9293)" fill="url(#paint12_linear_1230_489)"/>
<rect x="0.721436" y="14.9293" width="10.5" height="4.5" rx="2.25" transform="rotate(-30 0.721436 14.9293)" fill="url(#paint13_radial_1230_489)"/>
<rect x="0.721436" y="14.9293" width="10.5" height="4.5" rx="2.25" transform="rotate(-30 0.721436 14.9293)" fill="url(#paint14_radial_1230_489)"/>
<rect x="0.721436" y="14.9293" width="10.5" height="4.5" rx="2.25" transform="rotate(-30 0.721436 14.9293)" fill="url(#paint15_radial_1230_489)"/>
</g>
<g filter="url(#filter3_f_1230_489)">
<path d="M16.0547 12.2572L20.8828 15.2103" stroke="#FA9C66" stroke-linecap="round"/>
</g>
<ellipse cx="11.9714" cy="15.5977" rx="6" ry="6" fill="url(#paint16_linear_1230_489)"/>
<ellipse cx="11.9714" cy="15.5977" rx="6" ry="6" fill="url(#paint17_radial_1230_489)"/>
<ellipse cx="11.9714" cy="15.5977" rx="6" ry="6" fill="url(#paint18_radial_1230_489)"/>
<ellipse cx="11.9714" cy="15.5977" rx="6" ry="6" fill="url(#paint19_radial_1230_489)"/>
<ellipse cx="11.9714" cy="15.5977" rx="6" ry="6" fill="url(#paint20_radial_1230_489)"/>
<ellipse cx="11.9714" cy="15.5977" rx="6" ry="6" fill="url(#paint21_radial_1230_489)"/>
<ellipse cx="11.9714" cy="15.5977" rx="6" ry="6" fill="url(#paint22_radial_1230_489)"/>
<ellipse cx="11.9714" cy="15.5977" rx="6" ry="6" fill="url(#paint23_radial_1230_489)"/>
<ellipse cx="11.9714" cy="15.5977" rx="6" ry="6" fill="url(#paint24_radial_1230_489)"/>
<circle cx="11.9714" cy="16.3477" r="3.75" fill="url(#paint25_linear_1230_489)"/>
<circle cx="11.9714" cy="16.3477" r="3.75" fill="url(#paint26_radial_1230_489)"/>
<circle cx="11.9714" cy="16.3477" r="3.75" fill="url(#paint27_radial_1230_489)"/>
<circle cx="11.9714" cy="16.3477" r="3.75" fill="url(#paint28_radial_1230_489)"/>
<g filter="url(#filter4_i_1230_489)">
<path d="M17.8884 7.62481C17.8884 10.9755 15.2393 12.1131 11.9714 12.1131C8.70358 12.1131 6.05444 10.9755 6.05444 7.62481C6.05444 4.27408 9.07111 1.875 11.9714 1.875C14.9608 1.875 17.8884 4.27408 17.8884 7.62481Z" fill="url(#paint29_linear_1230_489)"/>
<path d="M17.8884 7.62481C17.8884 10.9755 15.2393 12.1131 11.9714 12.1131C8.70358 12.1131 6.05444 10.9755 6.05444 7.62481C6.05444 4.27408 9.07111 1.875 11.9714 1.875C14.9608 1.875 17.8884 4.27408 17.8884 7.62481Z" fill="url(#paint30_radial_1230_489)"/>
<path d="M17.8884 7.62481C17.8884 10.9755 15.2393 12.1131 11.9714 12.1131C8.70358 12.1131 6.05444 10.9755 6.05444 7.62481C6.05444 4.27408 9.07111 1.875 11.9714 1.875C14.9608 1.875 17.8884 4.27408 17.8884 7.62481Z" fill="url(#paint31_radial_1230_489)"/>
<path d="M17.8884 7.62481C17.8884 10.9755 15.2393 12.1131 11.9714 12.1131C8.70358 12.1131 6.05444 10.9755 6.05444 7.62481C6.05444 4.27408 9.07111 1.875 11.9714 1.875C14.9608 1.875 17.8884 4.27408 17.8884 7.62481Z" fill="url(#paint32_radial_1230_489)"/>
</g>
<circle cx="10.0964" cy="6.31641" r="0.375" fill="url(#paint33_radial_1230_489)"/>
<circle cx="13.8464" cy="6.31641" r="0.375" fill="url(#paint34_radial_1230_489)"/>
<g filter="url(#filter5_i_1230_489)">
<path d="M11.9715 6.83139C11.617 6.83139 10.8421 6.83139 10.0853 7.32358C9.44733 7.73845 9.38843 8.72983 9.7849 9.5853C10.1814 10.4408 10.8542 10.9798 11.9715 10.9798C13.0888 10.9798 13.7616 10.4408 14.1581 9.5853C14.5546 8.72983 14.4957 7.73845 13.8577 7.32358C13.1009 6.83139 12.326 6.83139 11.9715 6.83139Z" fill="url(#paint35_radial_1230_489)"/>
<path d="M11.9715 6.83139C11.617 6.83139 10.8421 6.83139 10.0853 7.32358C9.44733 7.73845 9.38843 8.72983 9.7849 9.5853C10.1814 10.4408 10.8542 10.9798 11.9715 10.9798C13.0888 10.9798 13.7616 10.4408 14.1581 9.5853C14.5546 8.72983 14.4957 7.73845 13.8577 7.32358C13.1009 6.83139 12.326 6.83139 11.9715 6.83139Z" fill="url(#paint36_radial_1230_489)"/>
</g>
<g filter="url(#filter6_ii_1230_489)">
<rect width="5.25" height="6.375" rx="2.625" transform="matrix(-0.872609 0.488419 0.488419 0.872609 7.42114 15.2314)" fill="url(#paint37_linear_1230_489)"/>
<rect width="5.25" height="6.375" rx="2.625" transform="matrix(-0.872609 0.488419 0.488419 0.872609 7.42114 15.2314)" fill="url(#paint38_radial_1230_489)"/>
</g>
<g filter="url(#filter7_ii_1230_489)">
<rect x="16.5239" y="15.2314" width="5.25" height="6.375" rx="2.625" transform="rotate(29.2367 16.5239 15.2314)" fill="url(#paint39_linear_1230_489)"/>
</g>
<rect x="16.5239" y="15.2314" width="5.25" height="6.375" rx="2.625" transform="rotate(29.2367 16.5239 15.2314)" fill="url(#paint40_radial_1230_489)"/>
<rect width="3" height="4.125" rx="1.5" transform="matrix(-0.872609 0.488419 0.488419 0.872609 7.00903 16.778)" fill="url(#paint41_linear_1230_489)"/>
<rect x="16.936" y="16.778" width="3" height="4.125" rx="1.5" transform="rotate(29.2367 16.936 16.778)" fill="url(#paint42_linear_1230_489)"/>
<g filter="url(#filter8_f_1230_489)">
<path d="M11.1273 7.59311C10.9071 7.59311 10.7534 7.79762 10.8676 7.98587C10.9956 8.19702 11.1994 8.43423 11.5024 8.60555C11.5882 8.65406 11.6934 8.65406 11.7792 8.60555C12.0822 8.43423 12.2861 8.19702 12.4141 7.98587C12.5282 7.79762 12.3745 7.59311 12.1543 7.59311H11.1273Z" fill="#D18A74"/>
</g>
<path d="M11.41 7.36459C11.1693 7.36459 11.0013 7.58818 11.126 7.79398C11.266 8.02483 11.4888 8.28415 11.8201 8.47145C11.9139 8.52449 12.0289 8.52449 12.1227 8.47145C12.454 8.28415 12.6768 8.02483 12.8168 7.79398C12.9415 7.58818 12.7735 7.36459 12.5328 7.36459H11.41Z" fill="url(#paint43_linear_1230_489)"/>
<path d="M11.41 7.36459C11.1693 7.36459 11.0013 7.58818 11.126 7.79398C11.266 8.02483 11.4888 8.28415 11.8201 8.47145C11.9139 8.52449 12.0289 8.52449 12.1227 8.47145C12.454 8.28415 12.6768 8.02483 12.8168 7.79398C12.9415 7.58818 12.7735 7.36459 12.5328 7.36459H11.41Z" fill="url(#paint44_radial_1230_489)"/>
<g filter="url(#filter9_f_1230_489)">
<path d="M7.20605 16.9178C7.34383 16.981 7.68825 17.1899 7.96379 17.5206C8.23933 17.8512 8.69856 18.6687 8.89374 19.0361" stroke="#FA9E75" stroke-width="0.5" stroke-linecap="round"/>
</g>
<defs>
<filter id="filter0_f_1230_489" x="13.5306" y="1.33062" width="4.08877" height="4.08877" filterUnits="userSpaceOnUse" color-interpolation-filters="sRGB">
<feFlood flood-opacity="0" result="BackgroundImageFix"/>
<feBlend mode="normal" in="SourceGraphic" in2="BackgroundImageFix" result="shape"/>
<feGaussianBlur stdDeviation="0.15" result="effect1_foregroundBlur_1230_489"/>
</filter>
<filter id="filter1_i_1230_489" x="12.8137" y="10.2899" width="9.77256" height="7.77573" filterUnits="userSpaceOnUse" color-interpolation-filters="sRGB">
<feFlood flood-opacity="0" result="BackgroundImageFix"/>
<feBlend mode="normal" in="SourceGraphic" in2="BackgroundImageFix" result="shape"/>
<feColorMatrix in="SourceAlpha" type="matrix" values="0 0 0 0 0 0 0 0 0 0 0 0 0 0 0 0 0 0 127 0" result="hardAlpha"/>
<feOffset dx="0.15" dy="-0.15"/>
<feGaussianBlur stdDeviation="0.5"/>
<feComposite in2="hardAlpha" operator="arithmetic" k2="-1" k3="1"/>
<feColorMatrix type="matrix" values="0 0 0 0 0.580392 0 0 0 0 0.25098 0 0 0 0 0.309804 0 0 0 1 0"/>
<feBlend mode="normal" in2="shape" result="effect1_innerShadow_1230_489"/>
</filter>
<filter id="filter2_i_1230_489" x="1.04468" y="10.0024" width="10.1968" height="8.00076" filterUnits="userSpaceOnUse" color-interpolation-filters="sRGB">
<feFlood flood-opacity="0" result="BackgroundImageFix"/>
<feBlend mode="normal" in="SourceGraphic" in2="BackgroundImageFix" result="shape"/>
<feColorMatrix in="SourceAlpha" type="matrix" values="0 0 0 0 0 0 0 0 0 0 0 0 0 0 0 0 0 0 127 0" result="hardAlpha"/>
<feOffset dx="-0.5" dy="-0.5"/>
<feGaussianBlur stdDeviation="0.5"/>
<feComposite in2="hardAlpha" operator="arithmetic" k2="-1" k3="1"/>
<feColorMatrix type="matrix" values="0 0 0 0 0.709804 0 0 0 0 0.341176 0 0 0 0 0.278431 0 0 0 1 0"/>
<feBlend mode="normal" in2="shape" result="effect1_innerShadow_1230_489"/>
</filter>
<filter id="filter3_f_1230_489" x="13.5547" y="9.75711" width="9.82812" height="7.95325" filterUnits="userSpaceOnUse" color-interpolation-filters="sRGB">
<feFlood flood-opacity="0" result="BackgroundImageFix"/>
<feBlend mode="normal" in="SourceGraphic" in2="BackgroundImageFix" result="shape"/>
<feGaussianBlur stdDeviation="1" result="effect1_foregroundBlur_1230_489"/>
</filter>
<filter id="filter4_i_1230_489" x="6.05444" y="1.875" width="12.334" height="10.4881" filterUnits="userSpaceOnUse" color-interpolation-filters="sRGB">
<feFlood flood-opacity="0" result="BackgroundImageFix"/>
<feBlend mode="normal" in="SourceGraphic" in2="BackgroundImageFix" result="shape"/>
<feColorMatrix in="SourceAlpha" type="matrix" values="0 0 0 0 0 0 0 0 0 0 0 0 0 0 0 0 0 0 127 0" result="hardAlpha"/>
<feOffset dx="0.5" dy="0.25"/>
<feGaussianBlur stdDeviation="0.75"/>
<feComposite in2="hardAlpha" operator="arithmetic" k2="-1" k3="1"/>
<feColorMatrix type="matrix" values="0 0 0 0 0.741176 0 0 0 0 0.498039 0 0 0 0 0.266667 0 0 0 1 0"/>
<feBlend mode="normal" in2="shape" result="effect1_innerShadow_1230_489"/>
</filter>
<filter id="filter5_i_1230_489" x="9.5354" y="6.83139" width="4.97207" height="4.24844" filterUnits="userSpaceOnUse" color-interpolation-filters="sRGB">
<feFlood flood-opacity="0" result="BackgroundImageFix"/>
<feBlend mode="normal" in="SourceGraphic" in2="BackgroundImageFix" result="shape"/>
<feColorMatrix in="SourceAlpha" type="matrix" values="0 0 0 0 0 0 0 0 0 0 0 0 0 0 0 0 0 0 127 0" result="hardAlpha"/>
<feOffset dx="0.1" dy="0.1"/>
<feGaussianBlur stdDeviation="0.2"/>
<feComposite in2="hardAlpha" operator="arithmetic" k2="-1" k3="1"/>
<feColorMatrix type="matrix" values="0 0 0 0 0.823529 0 0 0 0 0.568627 0 0 0 0 0.384314 0 0 0 1 0"/>
<feBlend mode="normal" in2="shape" result="effect1_innerShadow_1230_489"/>
</filter>
<filter id="filter6_ii_1230_489" x="3.63711" y="15.8786" width="6.10054" height="6.83261" filterUnits="userSpaceOnUse" color-interpolation-filters="sRGB">
<feFlood flood-opacity="0" result="BackgroundImageFix"/>
<feBlend mode="normal" in="SourceGraphic" in2="BackgroundImageFix" result="shape"/>
<feColorMatrix in="SourceAlpha" type="matrix" values="0 0 0 0 0 0 0 0 0 0 0 0 0 0 0 0 0 0 127 0" result="hardAlpha"/>
<feOffset dx="0.15" dy="0.3"/>
<feGaussianBlur stdDeviation="0.3"/>
<feComposite in2="hardAlpha" operator="arithmetic" k2="-1" k3="1"/>
<feColorMatrix type="matrix" values="0 0 0 0 0.807843 0 0 0 0 0.407843 0 0 0 0 0.231373 0 0 0 1 0"/>
<feBlend mode="normal" in2="shape" result="effect1_innerShadow_1230_489"/>
<feColorMatrix in="SourceAlpha" type="matrix" values="0 0 0 0 0 0 0 0 0 0 0 0 0 0 0 0 0 0 127 0" result="hardAlpha"/>
<feOffset dx="-0.15" dy="-0.3"/>
<feGaussianBlur stdDeviation="0.3"/>
<feComposite in2="hardAlpha" operator="arithmetic" k2="-1" k3="1"/>
<feColorMatrix type="matrix" values="0 0 0 0 0.72549 0 0 0 0 0.4 0 0 0 0 0.341176 0 0 0 1 0"/>
<feBlend mode="normal" in2="effect1_innerShadow_1230_489" result="effect2_innerShadow_1230_489"/>
</filter>
<filter id="filter7_ii_1230_489" x="14.2074" y="15.8786" width="6.10054" height="6.83261" filterUnits="userSpaceOnUse" color-interpolation-filters="sRGB">
<feFlood flood-opacity="0" result="BackgroundImageFix"/>
<feBlend mode="normal" in="SourceGraphic" in2="BackgroundImageFix" result="shape"/>
<feColorMatrix in="SourceAlpha" type="matrix" values="0 0 0 0 0 0 0 0 0 0 0 0 0 0 0 0 0 0 127 0" result="hardAlpha"/>
<feOffset dx="-0.15" dy="-0.3"/>
<feGaussianBlur stdDeviation="0.3"/>
<feComposite in2="hardAlpha" operator="arithmetic" k2="-1" k3="1"/>
<feColorMatrix type="matrix" values="0 0 0 0 0.682353 0 0 0 0 0.356863 0 0 0 0 0.32549 0 0 0 1 0"/>
<feBlend mode="normal" in2="shape" result="effect1_innerShadow_1230_489"/>
<feColorMatrix in="SourceAlpha" type="matrix" values="0 0 0 0 0 0 0 0 0 0 0 0 0 0 0 0 0 0 127 0" result="hardAlpha"/>
<feOffset dx="0.15" dy="0.3"/>
<feGaussianBlur stdDeviation="0.3"/>
<feComposite in2="hardAlpha" operator="arithmetic" k2="-1" k3="1"/>
<feColorMatrix type="matrix" values="0 0 0 0 0.815686 0 0 0 0 0.384314 0 0 0 0 0.176471 0 0 0 1 0"/>
<feBlend mode="normal" in2="effect1_innerShadow_1230_489" result="effect2_innerShadow_1230_489"/>
</filter>
<filter id="filter8_f_1230_489" x="10.3289" y="7.09311" width="2.62378" height="2.04883" filterUnits="userSpaceOnUse" color-interpolation-filters="sRGB">
<feFlood flood-opacity="0" result="BackgroundImageFix"/>
<feBlend mode="normal" in="SourceGraphic" in2="BackgroundImageFix" result="shape"/>
<feGaussianBlur stdDeviation="0.25" result="effect1_foregroundBlur_1230_489"/>
</filter>
<filter id="filter9_f_1230_489" x="6.20605" y="15.9178" width="3.68774" height="4.11835" filterUnits="userSpaceOnUse" color-interpolation-filters="sRGB">
<feFlood flood-opacity="0" result="BackgroundImageFix"/>
<feBlend mode="normal" in="SourceGraphic" in2="BackgroundImageFix" result="shape"/>
<feGaussianBlur stdDeviation="0.375" result="effect1_foregroundBlur_1230_489"/>
</filter>
<radialGradient id="paint0_radial_1230_489" cx="0" cy="0" r="1" gradientUnits="userSpaceOnUse" gradientTransform="translate(10.125 2.38998) rotate(-139.844) scale(1.9626 0.589692)">
<stop stop-color="#F4A161"/>
<stop offset="1" stop-color="#F4A161" stop-opacity="0"/>
</radialGradient>
<radialGradient id="paint1_radial_1230_489" cx="0" cy="0" r="1" gradientUnits="userSpaceOnUse" gradientTransform="translate(8.47925 3.375) rotate(99.5615) scale(1.59178)">
<stop offset="0.713086" stop-color="#CE7032"/>
<stop offset="1" stop-color="#CE7032" stop-opacity="0"/>
</radialGradient>
<radialGradient id="paint2_radial_1230_489" cx="0" cy="0" r="1" gradientUnits="userSpaceOnUse" gradientTransform="translate(8.47925 3.375) rotate(-135) scale(1.98557 2.44028)">
<stop offset="0.841414" stop-color="#C17B3B" stop-opacity="0"/>
<stop offset="0.979133" stop-color="#C17B3B"/>
</radialGradient>
<radialGradient id="paint3_radial_1230_489" cx="0" cy="0" r="1" gradientUnits="userSpaceOnUse" gradientTransform="translate(15.7969 3.375) rotate(99.5095) scale(1.59154)">
<stop offset="0.659151" stop-color="#DC692A"/>
<stop offset="1" stop-color="#DC692A" stop-opacity="0"/>
</radialGradient>
<radialGradient id="paint4_radial_1230_489" cx="0" cy="0" r="1" gradientUnits="userSpaceOnUse" gradientTransform="translate(16.0371 3.43881) rotate(-143.383) scale(2.38713 1.96143)">
<stop offset="0.828064" stop-color="#B56E32" stop-opacity="0"/>
<stop offset="0.923978" stop-color="#B56E32"/>
</radialGradient>
<linearGradient id="paint5_linear_1230_489" x1="17.1693" y1="2.69467" x2="16.623" y2="2.97592" gradientUnits="userSpaceOnUse">
<stop stop-color="#FFAF7E"/>
<stop offset="1" stop-color="#FFAF7E" stop-opacity="0"/>
</linearGradient>
<radialGradient id="paint6_radial_1230_489" cx="0" cy="0" r="1" gradientUnits="userSpaceOnUse" gradientTransform="translate(7.78116 2.61264) rotate(49.548) scale(1.46301 2.70422)">
<stop stop-color="#FECC85"/>
<stop offset="1" stop-color="#DCA86A"/>
</radialGradient>
<radialGradient id="paint7_radial_1230_489" cx="0" cy="0" r="1" gradientUnits="userSpaceOnUse" gradientTransform="translate(15.1054 3.2103) rotate(6.91464) scale(1.80611)">
<stop offset="0.617592" stop-color="#E8A869" stop-opacity="0"/>
<stop offset="0.906457" stop-color="#E8A869"/>
</radialGradient>
<radialGradient id="paint8_radial_1230_489" cx="0" cy="0" r="1" gradientUnits="userSpaceOnUse" gradientTransform="translate(21.4433 14.9259) rotate(-84.3783) scale(3.81563 5.35346)">
<stop offset="0.175294" stop-color="#983C50"/>
<stop offset="1" stop-color="#983C50" stop-opacity="0"/>
</radialGradient>
<linearGradient id="paint9_linear_1230_489" x1="19.574" y1="9.47709" x2="19.4274" y2="10.8569" gradientUnits="userSpaceOnUse">
<stop stop-color="#EB9251"/>
<stop offset="1" stop-color="#EB9251" stop-opacity="0"/>
</linearGradient>
<radialGradient id="paint10_radial_1230_489" cx="0" cy="0" r="1" gradientUnits="userSpaceOnUse" gradientTransform="translate(23.6998 10.2544) rotate(95.481) scale(1.875 1.23521)">
<stop stop-color="#FFB075"/>
<stop offset="1" stop-color="#FFB075" stop-opacity="0"/>
</radialGradient>
<radialGradient id="paint11_radial_1230_489" cx="0" cy="0" r="1" gradientUnits="userSpaceOnUse" gradientTransform="translate(17.9336 13.2235) rotate(-45.9881) scale(2.60359 3.51615)">
<stop offset="0.845647" stop-color="#FFAA6F"/>
<stop offset="1" stop-color="#FFAA6F" stop-opacity="0"/>
</radialGradient>
<linearGradient id="paint12_linear_1230_489" x1="5.97407" y1="14.3988" x2="5.94894" y2="16.1563" gradientUnits="userSpaceOnUse">
<stop offset="0.202564" stop-color="#A2643B"/>
<stop offset="1" stop-color="#A2643B" stop-opacity="0"/>
</linearGradient>
<radialGradient id="paint13_radial_1230_489" cx="0" cy="0" r="1" gradientUnits="userSpaceOnUse" gradientTransform="translate(5.62004 18.9582) rotate(153.857) scale(3.79201 2.71935)">
<stop offset="0.15499" stop-color="#BB5124"/>
<stop offset="1" stop-color="#BB5124" stop-opacity="0"/>
</radialGradient>
<radialGradient id="paint14_radial_1230_489" cx="0" cy="0" r="1" gradientUnits="userSpaceOnUse" gradientTransform="translate(1.9317 16.7367) rotate(28.1524) scale(1.23632 1.18089)">
<stop stop-color="#E38B4D"/>
<stop offset="1" stop-color="#E38B4D" stop-opacity="0"/>
</radialGradient>
<radialGradient id="paint15_radial_1230_489" cx="0" cy="0" r="1" gradientUnits="userSpaceOnUse" gradientTransform="translate(6.53023 18.2985) rotate(-140.952) scale(1.58424 3.14953)">
<stop offset="0.92332" stop-color="#D77C46"/>
<stop offset="1" stop-color="#D77C46" stop-opacity="0"/>
</radialGradient>
<linearGradient id="paint16_linear_1230_489" x1="13.5552" y1="20.7923" x2="13.5552" y2="11.3054" gradientUnits="userSpaceOnUse">
<stop stop-color="#CA6645"/>
<stop offset="1" stop-color="#D57E40"/>
</linearGradient>
<radialGradient id="paint17_radial_1230_489" cx="0" cy="0" r="1" gradientUnits="userSpaceOnUse" gradientTransform="translate(17.1427 12.3817) rotate(128.517) scale(7.48893 4.88055)">
<stop stop-color="#FFA66F"/>
<stop offset="1" stop-color="#FFA66F" stop-opacity="0"/>
</radialGradient>
<radialGradient id="paint18_radial_1230_489" cx="0" cy="0" r="1" gradientUnits="userSpaceOnUse" gradientTransform="translate(11.9714 10.6278) rotate(90) scale(2.90983 5.15266)">
<stop offset="0.465753" stop-color="#B54322"/>
<stop offset="1" stop-color="#B54322" stop-opacity="0"/>
</radialGradient>
<radialGradient id="paint19_radial_1230_489" cx="0" cy="0" r="1" gradientUnits="userSpaceOnUse" gradientTransform="translate(12.3594 16.5272) rotate(-125.505) scale(8.03022 8.83676)">
<stop offset="0.714895" stop-color="#A3633D" stop-opacity="0"/>
<stop offset="0.923718" stop-color="#A3633D"/>
</radialGradient>
<radialGradient id="paint20_radial_1230_489" cx="0" cy="0" r="1" gradientUnits="userSpaceOnUse" gradientTransform="translate(6.30059 17.0454) rotate(-8.1301) scale(1.973 5.07344)">
<stop stop-color="#C7733E"/>
<stop offset="1" stop-color="#C7733E" stop-opacity="0"/>
</radialGradient>
<radialGradient id="paint21_radial_1230_489" cx="0" cy="0" r="1" gradientUnits="userSpaceOnUse" gradientTransform="translate(8.8716 20.3139) rotate(55.4375) scale(2.17816 1.70409)">
<stop offset="0.254938" stop-color="#A03434"/>
<stop offset="1" stop-color="#A03434" stop-opacity="0"/>
</radialGradient>
<radialGradient id="paint22_radial_1230_489" cx="0" cy="0" r="1" gradientUnits="userSpaceOnUse" gradientTransform="translate(15.349 20.1146) rotate(136.5) scale(2.69266 1.55264)">
<stop offset="0.317149" stop-color="#A14750"/>
<stop offset="1" stop-color="#A14750" stop-opacity="0"/>
</radialGradient>
<radialGradient id="paint23_radial_1230_489" cx="0" cy="0" r="1" gradientUnits="userSpaceOnUse" gradientTransform="translate(11.9714 12.9796) rotate(90) scale(8.61809)">
<stop offset="0.839082" stop-color="#AC4F52" stop-opacity="0"/>
<stop offset="1" stop-color="#AC4F52"/>
</radialGradient>
<radialGradient id="paint24_radial_1230_489" cx="0" cy="0" r="1" gradientUnits="userSpaceOnUse" gradientTransform="translate(16.4651 17.723) rotate(-63.1836) scale(2.03221 1.46283)">
<stop offset="0.538765" stop-color="#DC6A27"/>
<stop offset="1" stop-color="#DC6A27" stop-opacity="0"/>
</radialGradient>
<linearGradient id="paint25_linear_1230_489" x1="11.9714" y1="12.3817" x2="11.9714" y2="18.5202" gradientUnits="userSpaceOnUse">
<stop stop-color="#E6A04E"/>
<stop offset="1" stop-color="#FFC286"/>
</linearGradient>
<radialGradient id="paint26_radial_1230_489" cx="0" cy="0" r="1" gradientUnits="userSpaceOnUse" gradientTransform="translate(11.9714 14.1355) rotate(90) scale(6.41757)">
<stop offset="0.588337" stop-color="#E2A48D" stop-opacity="0"/>
<stop offset="1" stop-color="#E2A48D"/>
</radialGradient>
<radialGradient id="paint27_radial_1230_489" cx="0" cy="0" r="1" gradientUnits="userSpaceOnUse" gradientTransform="translate(16.3056 14.0957) rotate(151.504) scale(3.17487)">
<stop stop-color="#FFD992"/>
<stop offset="1" stop-color="#FFD992" stop-opacity="0"/>
</radialGradient>
<radialGradient id="paint28_radial_1230_489" cx="0" cy="0" r="1" gradientUnits="userSpaceOnUse" gradientTransform="translate(7.87509 18.5999) rotate(-28.2174) scale(1.8547 3.15654)">
<stop offset="0.545951" stop-color="#BC8A66"/>
<stop offset="1" stop-color="#BC8A66" stop-opacity="0"/>
</radialGradient>
<linearGradient id="paint29_linear_1230_489" x1="11.9714" y1="2.91689" x2="11.9714" y2="12.1131" gradientUnits="userSpaceOnUse">
<stop stop-color="#EC9D55"/>
<stop offset="1" stop-color="#DE7944"/>
</linearGradient>
<radialGradient id="paint30_radial_1230_489" cx="0" cy="0" r="1" gradientUnits="userSpaceOnUse" gradientTransform="translate(15.6272 5.74119) rotate(118.974) scale(4.76382 5.66727)">
<stop stop-color="#FFBE88"/>
<stop offset="1" stop-color="#FFBE88" stop-opacity="0"/>
</radialGradient>
<radialGradient id="paint31_radial_1230_489" cx="0" cy="0" r="1" gradientUnits="userSpaceOnUse" gradientTransform="translate(11.5974 4.12238) rotate(81.8699) scale(9.01123 10.4159)">
<stop offset="0.659866" stop-color="#BA5137" stop-opacity="0"/>
<stop offset="1" stop-color="#BA5137"/>
</radialGradient>
<radialGradient id="paint32_radial_1230_489" cx="0" cy="0" r="1" gradientUnits="userSpaceOnUse" gradientTransform="translate(11.3942 9.76982) rotate(112.62) scale(3.26006 2.71029)">
<stop offset="0.345414" stop-color="#CE6D54"/>
<stop offset="1" stop-color="#CE6D54" stop-opacity="0"/>
</radialGradient>
<radialGradient id="paint33_radial_1230_489" cx="0" cy="0" r="1" gradientUnits="userSpaceOnUse" gradientTransform="translate(10.4714 6.12867) rotate(142.749) scale(0.597469)">
<stop stop-color="#635556"/>
<stop offset="1" stop-color="#452B30"/>
</radialGradient>
<radialGradient id="paint34_radial_1230_489" cx="0" cy="0" r="1" gradientUnits="userSpaceOnUse" gradientTransform="translate(14.1634 6.13728) rotate(142.561) scale(0.347028)">
<stop stop-color="#635556"/>
<stop offset="1" stop-color="#452B30"/>
</radialGradient>
<radialGradient id="paint35_radial_1230_489" cx="0" cy="0" r="1" gradientUnits="userSpaceOnUse" gradientTransform="translate(11.9715 7.38747) rotate(90) scale(4.38854 8.0856)">
<stop offset="0.20438" stop-color="#FFBD96"/>
<stop offset="0.965215" stop-color="#D27067"/>
</radialGradient>
<radialGradient id="paint36_radial_1230_489" cx="0" cy="0" r="1" gradientUnits="userSpaceOnUse" gradientTransform="translate(14.4076 7.51285) rotate(146.39) scale(1.58564 2.12704)">
<stop stop-color="#FFDFAF"/>
<stop offset="1" stop-color="#FFDFAF" stop-opacity="0"/>
</radialGradient>
<linearGradient id="paint37_linear_1230_489" x1="2.56796" y1="-0.145395" x2="2.75305" y2="6.5195" gradientUnits="userSpaceOnUse">
<stop stop-color="#E27749"/>
<stop offset="1" stop-color="#DA835D"/>
</linearGradient>
<radialGradient id="paint38_radial_1230_489" cx="0" cy="0" r="1" gradientUnits="userSpaceOnUse" gradientTransform="translate(-0.363476 3.45842) rotate(-4.46155) scale(3.45201 5.46044)">
<stop stop-color="#E68F58"/>
<stop offset="1" stop-color="#E68F58" stop-opacity="0"/>
</radialGradient>
<linearGradient id="paint39_linear_1230_489" x1="19.1489" y1="15.2314" x2="19.1489" y2="21.6064" gradientUnits="userSpaceOnUse">
<stop stop-color="#E17341"/>
<stop offset="1" stop-color="#D48461"/>
</linearGradient>
<radialGradient id="paint40_radial_1230_489" cx="0" cy="0" r="1" gradientUnits="userSpaceOnUse" gradientTransform="translate(20.4916 15.9116) rotate(129.909) scale(0.895757 1.88552)">
<stop stop-color="#FD9C79"/>
<stop offset="1" stop-color="#FD9C79" stop-opacity="0"/>
</radialGradient>
<linearGradient id="paint41_linear_1230_489" x1="1.35441" y1="0.641571" x2="1.38469" y2="4.43861" gradientUnits="userSpaceOnUse">
<stop stop-color="#FFBE7B"/>
<stop offset="1" stop-color="#FFDDA2"/>
</linearGradient>
<linearGradient id="paint42_linear_1230_489" x1="18.3905" y1="18.0619" x2="18.4157" y2="21.754" gradientUnits="userSpaceOnUse">
<stop stop-color="#F7B678"/>
<stop offset="1" stop-color="#FFDDA2"/>
</linearGradient>
<linearGradient id="paint43_linear_1230_489" x1="11.9714" y1="7.28789" x2="11.9714" y2="8.51123" gradientUnits="userSpaceOnUse">
<stop stop-color="#49393F"/>
<stop offset="1" stop-color="#45323F"/>
</linearGradient>
<radialGradient id="paint44_radial_1230_489" cx="0" cy="0" r="1" gradientUnits="userSpaceOnUse" gradientTransform="translate(12.8591 7.54151) rotate(180) scale(1.0301 0.4625)">
<stop stop-color="#635759"/>
<stop offset="1" stop-color="#635759" stop-opacity="0"/>
</radialGradient>
</defs>
</svg>
