<svg width="24" height="24" viewBox="0 0 24 24" fill="none" xmlns="http://www.w3.org/2000/svg">
<path d="M16.4842 22.5302C16.5537 22.6002 16.6363 22.6558 16.7274 22.6938C16.8184 22.7317 16.9161 22.7513 17.0147 22.7513C17.1134 22.7513 17.2111 22.7317 17.3021 22.6938C17.3932 22.6558 17.4758 22.6002 17.5452 22.5302L21.9532 18.1222C22.2833 17.8021 22.5465 17.4196 22.7274 16.9969C22.9082 16.5742 23.0032 16.1198 23.0068 15.66C23.0104 15.2002 22.9225 14.7444 22.7482 14.3189C22.5739 13.8934 22.3168 13.5069 21.9917 13.1817C21.6666 12.8566 21.2801 12.5993 20.8547 12.425C20.4292 12.2506 19.9734 12.1626 19.5136 12.1661C19.0539 12.1696 18.5994 12.2645 18.1766 12.4453C17.7539 12.6261 17.3714 12.8891 17.0512 13.2192L17.0152 13.2552L16.9792 13.2192C16.658 12.8942 16.2756 12.636 15.8542 12.4594C15.4328 12.2827 14.9806 12.1911 14.5237 12.1898C14.0667 12.1885 13.614 12.2776 13.1916 12.4518C12.7692 12.6261 12.3854 12.8822 12.0623 13.2053C11.7392 13.5284 11.4832 13.9122 11.3089 14.3346C11.1346 14.757 11.0456 15.2097 11.0469 15.6666C11.0482 16.1235 11.1398 16.5757 11.3164 16.9971C11.4931 17.4186 11.7513 17.8009 12.0762 18.1222L16.4842 22.5302Z" fill="#212121"/>
<path fill-rule="evenodd" clip-rule="evenodd" d="M10.95 2.054L10.945 2.047L10.932 2.057C5.912 2.59 2 6.837 2 12C2 14.312 2.785 16.441 4.103 18.135V18.137H4.105C4.93819 19.2104 5.98165 20.1024 7.17151 20.7586C8.36138 21.4147 9.67262 21.8211 11.025 21.953C11.072 21.477 11.188 20.979 11.362 20.476C9.20468 20.3158 7.1902 19.337 5.731 17.74C5.786 17.5 5.811 17.221 5.831 16.979L5.84 16.861L5.84167 16.8406C5.85906 16.6279 5.87587 16.4224 5.903 16.215C5.973 15.688 6.093 15.336 6.28 15.137C6.51948 14.8806 6.76493 14.8372 7.27765 14.7466L7.281 14.746L7.374 14.729C7.638 14.683 7.991 14.612 8.331 14.427C8.694 14.229 9.001 13.927 9.232 13.482C9.465 13.034 9.448 12.572 9.384 12.207C9.32579 11.9147 9.24897 11.6265 9.154 11.344C9.13851 11.2947 9.12317 11.2454 9.108 11.196C8.903 10.528 8.878 10.203 9.047 9.946C9.22997 9.66756 9.48019 9.60272 10.1281 9.43483L10.139 9.432L10.224 9.411C10.89 9.239 11.792 8.951 12.314 7.838C12.88 6.633 12.561 5.274 12.214 4.352C12.1046 4.06236 11.9801 3.77863 11.841 3.502C11.894 3.5 11.947 3.5 12 3.5C13.6053 3.49755 15.1782 3.9519 16.535 4.81C16.343 5.065 16.086 5.401 15.799 5.76C15.169 6.547 14.459 7.357 13.975 7.72C13.7521 7.88283 13.5829 8.10845 13.489 8.368C13.4082 8.60394 13.3893 8.85666 13.434 9.102C13.504 9.518 13.725 9.908 13.921 10.206C14.084 10.455 14.276 10.706 14.437 10.918L14.547 11.061L14.5573 11.0748C14.6457 11.1936 14.7191 11.2923 14.774 11.378C15.2083 11.2527 16.1146 11.002 16.265 11.002C16.155 10.705 15.916 10.386 15.744 10.158C15.7008 10.1012 15.6575 10.0446 15.614 9.988C15.4607 9.79151 15.3142 9.58972 15.175 9.383C15.02 9.147 14.945 8.984 14.92 8.885C15.57 8.383 16.368 7.449 16.97 6.698C17.266 6.328 17.53 5.983 17.727 5.719C19.3764 7.21987 20.368 9.31015 20.487 11.537C21.067 11.583 21.567 11.659 21.997 11.748C21.863 6.342 17.439 2 12 2C11.646 2 11.295 2.018 10.95 2.054ZM3.49999 12.1294C3.51975 13.4352 3.84003 14.7189 4.436 15.881C4.521 15.324 4.698 14.634 5.184 14.114C5.783 13.471 6.519 13.35 6.982 13.274C7.028 13.267 7.072 13.26 7.112 13.252C7.36 13.209 7.504 13.169 7.614 13.109C7.702 13.061 7.802 12.982 7.902 12.789C7.916 12.76 7.944 12.681 7.906 12.464C7.874 12.278 7.814 12.083 7.734 11.828L7.674 11.636C7.489 11.032 7.193 10.033 7.794 9.121C8.31488 8.33071 9.15139 8.12787 9.68356 7.99884L9.687 7.998L9.849 7.958C10.412 7.813 10.732 7.678 10.957 7.2C11.251 6.571 11.125 5.715 10.811 4.88C10.6532 4.46522 10.4595 4.06503 10.232 3.684C8.95464 3.95585 7.75707 4.51829 6.73216 5.32768C5.70726 6.13707 4.88256 7.17166 4.32204 8.35122C3.76151 9.53078 3.48022 10.8236 3.49999 12.1294Z" fill="#212121"/>
</svg>
