<svg width="24" height="24" viewBox="0 0 24 24" fill="none" xmlns="http://www.w3.org/2000/svg">
<path d="M9.0002 3.99854C9.30769 3.99854 9.58403 4.18624 9.69738 4.4721L15.4474 18.9731C15.6001 19.3582 15.4117 19.7941 15.0267 19.9468C14.6416 20.0995 14.2057 19.9112 14.053 19.5261L12.258 14.9993H5.74236L3.94738 19.5261C3.79469 19.9112 3.35877 20.0995 2.97373 19.9468C2.58869 19.7941 2.40033 19.3582 2.55302 18.9731L8.30302 4.4721C8.41637 4.18624 8.69271 3.99854 9.0002 3.99854ZM9.0002 6.78331L6.33719 13.4992H11.6632L9.0002 6.78331Z" fill="#212121"/>
<path d="M17.76 6.00098L20.012 6.00198C20.1933 6.00199 20.3684 6.06762 20.505 6.18675C20.6416 6.30587 20.7304 6.47043 20.755 6.64998L20.762 6.75198C20.762 6.93322 20.6964 7.10832 20.5773 7.24491C20.4581 7.3815 20.2936 7.47033 20.114 7.49498L20.012 7.50198H17.76L16.26 7.50098L14.008 7.50198C13.8268 7.50197 13.6517 7.43634 13.5151 7.31721C13.3785 7.19809 13.2897 7.03354 13.265 6.85398L13.258 6.75198C13.2581 6.57059 13.3239 6.39537 13.4432 6.25876C13.5625 6.12215 13.7273 6.03341 13.907 6.00898L14.008 6.00198H16.26L17.76 6.00098Z" fill="#212121"/>
</svg>
